;Holesize 1 =   35.0 PLATED MILS
;Holesize 2 =  125.0 PLATED MILS
M48
INCH,00.0000
T01C0.035
T02C0.125
%
G05
G90
T01
X006000Y001500
X006000Y002500
X006000Y003500
X006000Y004500
X006000Y005500
X006000Y006500
X006000Y007500
X006000Y008500
X006000Y009500
X006000Y010500
X006000Y011500
X006000Y012500
X006000Y013500
X006000Y014500
X006000Y015500
X012000Y001500
X012000Y002500
X012000Y003500
X012000Y004500
X012000Y005500
X012000Y006500
X012000Y007500
X012000Y008500
X012000Y009500
X012000Y010500
X012000Y011500
X012000Y012500
X012000Y013500
X012000Y014500
X012000Y015500
X002000Y004500
X003000Y004500
X004000Y004500
X002000Y006500
X003000Y006500
X004000Y006500
X003250Y013500
X003250Y014500
X003250Y015500
X002000Y008500
X003000Y008500
X004000Y008500
X002000Y010500
X003000Y010500
X004000Y010500
X014000Y004500
X014000Y005500
X014000Y006500
X014000Y007500
T02
X002750Y001500
X009000Y019500
X014000Y001500
M30
