G04 FreePCB version 1.359*
G04 C:\SkyDrive\Files\freepcb_1200_bin\projects\Balance_Shield\CAM\top_silk.grb*
G04 top silk layer *
G04 Scale: 100 percent, Rotated: No, Reflected: No *
%FSLAX24Y24*%
%MOIN*%
%LN top silk *%
G04 Rounded Rectangle Macro, params: W/2, H/2, R *
%AMRNDREC*
21,1,$1+$1,$2+$2-$3-$3,0,0,0*
21,1,$1+$1-$3-$3,$2+$2,0,0,0*
1,1,$3+$3,$1-$3,$2-$3*
1,1,$3+$3,$3-$1,$2-$3*
1,1,$3+$3,$1-$3,$3-$2*
1,1,$3+$3,$3-$1,$3-$2*%
G04 Rectangular Thermal Macro, params: W/2, H/2, T/2 *
%AMRECTHERM*
$4=$3/2*
21,1,$1-$3,$2-$3,0-$1/2-$4,0-$2/2-$4,0*
21,1,$1-$3,$2-$3,0-$1/2-$4,$2/2+$4,0*
21,1,$1-$3,$2-$3,$1/2+$4,0-$2/2-$4,0*
21,1,$1-$3,$2-$3,$1/2+$4,$2/2+$4,0*%
%ADD10C,0.005000*%
%ADD11C,0.007000*%
G90*
G70D02*

G04 Step and Repeat for panelization *

G04 ----------------------- Draw board outline (positive)*
%LPD*%
G54D10*
G01X6500Y1000D02*
G01X6500Y17500D01*
G04 end of side 1*
G01X11500Y17500D01*
G04 end of side 2*
G01X11500Y1000D01*
G04 end of side 3*
G01X11500Y0D01*
G04 end of side 4*
G01X15500Y0D01*
G04 end of side 5*
G01X15500Y21000D01*
G04 end of side 6*
G01X1000Y21000D01*
G04 end of side 7*
G01X1000Y0D01*
G04 end of side 8*
G01X6500Y0D01*
G04 end of side 9*
G01X6500Y1000D01*

G04 -------------- Draw Parts, Pads, Traces, Vias and Text (positive)*
%LPD*%
G04 Draw part J2*
G04 draw part outline for part J2*
G04 draw reference designator for part J2*
G54D10*
G01X4922Y1327D02*
G01X5286Y1327D01*
G01X5286Y1327D02*
G01X5354Y1304D01*
G01X5354Y1304D02*
G01X5377Y1281D01*
G01X5377Y1281D02*
G01X5400Y1236D01*
G01X5400Y1190D02*
G01X5400Y1236D01*
G01X5377Y1145D02*
G01X5400Y1190D01*
G01X5354Y1122D02*
G01X5377Y1145D01*
G01X5286Y1100D02*
G01X5354Y1122D01*
G01X5240Y1100D02*
G01X5286Y1100D01*
G01X5013Y1531D02*
G01X5036Y1531D01*
G01X4968Y1554D02*
G01X5013Y1531D01*
G01X4945Y1577D02*
G01X4968Y1554D01*
G01X4922Y1622D02*
G01X4945Y1577D01*
G01X4922Y1713D02*
G01X4922Y1622D01*
G01X4922Y1713D02*
G01X4945Y1759D01*
G01X4945Y1759D02*
G01X4968Y1781D01*
G01X4968Y1781D02*
G01X5013Y1804D01*
G01X5013Y1804D02*
G01X5059Y1804D01*
G01X5059Y1804D02*
G01X5104Y1781D01*
G01X5104Y1781D02*
G01X5172Y1736D01*
G01X5172Y1736D02*
G01X5400Y1509D01*
G01X5400Y1827D02*
G01X5400Y1509D01*
G04 Draw part J3*
G04 draw part outline for part J3*
G04 draw reference designator for part J3*
G01X10922Y1327D02*
G01X11286Y1327D01*
G01X11286Y1327D02*
G01X11354Y1304D01*
G01X11354Y1304D02*
G01X11377Y1281D01*
G01X11377Y1281D02*
G01X11400Y1236D01*
G01X11400Y1190D02*
G01X11400Y1236D01*
G01X11377Y1145D02*
G01X11400Y1190D01*
G01X11354Y1122D02*
G01X11377Y1145D01*
G01X11286Y1100D02*
G01X11354Y1122D01*
G01X11240Y1100D02*
G01X11286Y1100D01*
G01X10922Y1804D02*
G01X10922Y1554D01*
G01X10922Y1804D02*
G01X11104Y1668D01*
G01X11104Y1736D02*
G01X11104Y1668D01*
G01X11104Y1736D02*
G01X11127Y1781D01*
G01X11127Y1781D02*
G01X11150Y1804D01*
G01X11150Y1804D02*
G01X11218Y1827D01*
G01X11218Y1827D02*
G01X11263Y1827D01*
G01X11263Y1827D02*
G01X11331Y1804D01*
G01X11331Y1804D02*
G01X11377Y1759D01*
G01X11377Y1759D02*
G01X11400Y1690D01*
G01X11400Y1622D02*
G01X11400Y1690D01*
G01X11377Y1554D02*
G01X11400Y1622D01*
G01X11354Y1531D02*
G01X11377Y1554D01*
G01X11309Y1509D02*
G01X11354Y1531D01*
G04 Draw part J4*
G04 draw part outline for part J4*
G54D11*
G01X1500Y4000D02*
G01X4500Y4000D01*
G01X4500Y4000D02*
G01X4500Y5000D01*
G01X4500Y5000D02*
G01X1500Y5000D01*
G01X1500Y5000D02*
G01X1500Y4000D01*
G04 draw reference designator for part J4*
G54D10*
G01X1827Y5577D02*
G01X1827Y5213D01*
G01X1827Y5213D02*
G01X1804Y5145D01*
G01X1804Y5145D02*
G01X1781Y5122D01*
G01X1781Y5122D02*
G01X1736Y5100D01*
G01X1690Y5100D02*
G01X1736Y5100D01*
G01X1645Y5122D02*
G01X1690Y5100D01*
G01X1622Y5145D02*
G01X1645Y5122D01*
G01X1600Y5213D02*
G01X1622Y5145D01*
G01X1600Y5259D02*
G01X1600Y5213D01*
G01X2236Y5577D02*
G01X2009Y5259D01*
G01X2350Y5259D02*
G01X2009Y5259D01*
G01X2236Y5577D02*
G01X2236Y5100D01*
G04 Draw part J5*
G04 draw part outline for part J5*
G54D11*
G01X1500Y6000D02*
G01X4500Y6000D01*
G01X4500Y6000D02*
G01X4500Y7000D01*
G01X4500Y7000D02*
G01X1500Y7000D01*
G01X1500Y7000D02*
G01X1500Y6000D01*
G04 draw reference designator for part J5*
G54D10*
G01X1827Y7577D02*
G01X1827Y7213D01*
G01X1827Y7213D02*
G01X1804Y7145D01*
G01X1804Y7145D02*
G01X1781Y7122D01*
G01X1781Y7122D02*
G01X1736Y7100D01*
G01X1690Y7100D02*
G01X1736Y7100D01*
G01X1645Y7122D02*
G01X1690Y7100D01*
G01X1622Y7145D02*
G01X1645Y7122D01*
G01X1600Y7213D02*
G01X1622Y7145D01*
G01X1600Y7259D02*
G01X1600Y7213D01*
G01X2054Y7577D02*
G01X2281Y7577D01*
G01X2054Y7577D02*
G01X2031Y7372D01*
G01X2054Y7395D02*
G01X2031Y7372D01*
G01X2122Y7418D02*
G01X2054Y7395D01*
G01X2190Y7418D02*
G01X2122Y7418D01*
G01X2190Y7418D02*
G01X2259Y7395D01*
G01X2259Y7395D02*
G01X2304Y7350D01*
G01X2304Y7350D02*
G01X2327Y7281D01*
G01X2327Y7281D02*
G01X2327Y7236D01*
G01X2327Y7236D02*
G01X2304Y7168D01*
G01X2304Y7168D02*
G01X2259Y7122D01*
G01X2259Y7122D02*
G01X2190Y7100D01*
G01X2122Y7100D02*
G01X2190Y7100D01*
G01X2054Y7122D02*
G01X2122Y7100D01*
G01X2031Y7145D02*
G01X2054Y7122D01*
G01X2009Y7190D02*
G01X2031Y7145D01*
G04 Draw part E1*
G04 draw part outline for part E1*
G04 draw reference designator for part E1*
G01X2750Y1977D02*
G01X2750Y1500D01*
G01X3045Y1977D02*
G01X2750Y1977D01*
G01X2931Y1750D02*
G01X2750Y1750D01*
G01X3045Y1500D02*
G01X2750Y1500D01*
G01X3272Y1909D02*
G01X3227Y1886D01*
G01X3340Y1977D02*
G01X3272Y1909D01*
G01X3340Y1977D02*
G01X3340Y1500D01*
G04 Draw part E2*
G04 draw part outline for part E2*
G04 draw reference designator for part E2*
G01X9000Y19977D02*
G01X9000Y19500D01*
G01X9295Y19977D02*
G01X9000Y19977D01*
G01X9181Y19750D02*
G01X9000Y19750D01*
G01X9295Y19500D02*
G01X9000Y19500D01*
G01X9500Y19886D02*
G01X9500Y19863D01*
G01X9522Y19931D02*
G01X9500Y19886D01*
G01X9545Y19954D02*
G01X9522Y19931D01*
G01X9590Y19977D02*
G01X9545Y19954D01*
G01X9681Y19977D02*
G01X9590Y19977D01*
G01X9681Y19977D02*
G01X9727Y19954D01*
G01X9727Y19954D02*
G01X9750Y19931D01*
G01X9750Y19931D02*
G01X9772Y19886D01*
G01X9772Y19886D02*
G01X9772Y19840D01*
G01X9772Y19840D02*
G01X9750Y19795D01*
G01X9750Y19795D02*
G01X9704Y19727D01*
G01X9704Y19727D02*
G01X9477Y19500D01*
G01X9795Y19500D02*
G01X9477Y19500D01*
G04 Draw part E3*
G04 draw part outline for part E3*
G04 draw reference designator for part E3*
G01X14000Y1977D02*
G01X14000Y1500D01*
G01X14295Y1977D02*
G01X14000Y1977D01*
G01X14181Y1750D02*
G01X14000Y1750D01*
G01X14295Y1500D02*
G01X14000Y1500D01*
G01X14772Y1977D02*
G01X14522Y1977D01*
G01X14772Y1977D02*
G01X14636Y1795D01*
G01X14704Y1795D02*
G01X14636Y1795D01*
G01X14704Y1795D02*
G01X14750Y1772D01*
G01X14750Y1772D02*
G01X14772Y1750D01*
G01X14772Y1750D02*
G01X14795Y1681D01*
G01X14795Y1681D02*
G01X14795Y1636D01*
G01X14795Y1636D02*
G01X14772Y1568D01*
G01X14772Y1568D02*
G01X14727Y1522D01*
G01X14727Y1522D02*
G01X14659Y1500D01*
G01X14590Y1500D02*
G01X14659Y1500D01*
G01X14522Y1522D02*
G01X14590Y1500D01*
G01X14500Y1545D02*
G01X14522Y1522D01*
G01X14477Y1590D02*
G01X14500Y1545D01*
G04 Draw part J6*
G04 draw part outline for part J6*
G54D11*
G01X3750Y13000D02*
G01X3750Y16000D01*
G01X3750Y16000D02*
G01X2750Y16000D01*
G01X2750Y16000D02*
G01X2750Y13000D01*
G01X2750Y13000D02*
G01X3750Y13000D01*
G04 draw reference designator for part J6*
G54D10*
G01X2172Y13327D02*
G01X2536Y13327D01*
G01X2536Y13327D02*
G01X2604Y13304D01*
G01X2604Y13304D02*
G01X2627Y13281D01*
G01X2627Y13281D02*
G01X2650Y13236D01*
G01X2650Y13190D02*
G01X2650Y13236D01*
G01X2627Y13145D02*
G01X2650Y13190D01*
G01X2604Y13122D02*
G01X2627Y13145D01*
G01X2536Y13100D02*
G01X2604Y13122D01*
G01X2490Y13100D02*
G01X2536Y13100D01*
G01X2195Y13759D02*
G01X2240Y13781D01*
G01X2172Y13690D02*
G01X2195Y13759D01*
G01X2172Y13645D02*
G01X2172Y13690D01*
G01X2172Y13645D02*
G01X2195Y13577D01*
G01X2195Y13577D02*
G01X2263Y13531D01*
G01X2263Y13531D02*
G01X2377Y13509D01*
G01X2377Y13509D02*
G01X2490Y13509D01*
G01X2490Y13509D02*
G01X2581Y13531D01*
G01X2581Y13531D02*
G01X2627Y13577D01*
G01X2627Y13577D02*
G01X2650Y13645D01*
G01X2650Y13668D02*
G01X2650Y13645D01*
G01X2627Y13736D02*
G01X2650Y13668D01*
G01X2581Y13781D02*
G01X2627Y13736D01*
G01X2513Y13804D02*
G01X2581Y13781D01*
G01X2490Y13804D02*
G01X2513Y13804D01*
G01X2422Y13781D02*
G01X2490Y13804D01*
G01X2377Y13736D02*
G01X2422Y13781D01*
G01X2354Y13668D02*
G01X2377Y13736D01*
G01X2354Y13645D02*
G01X2354Y13668D01*
G01X2354Y13645D02*
G01X2377Y13577D01*
G01X2377Y13577D02*
G01X2422Y13531D01*
G01X2422Y13531D02*
G01X2490Y13509D01*
G04 Draw part J7*
G04 draw part outline for part J7*
G54D11*
G01X1500Y8000D02*
G01X4500Y8000D01*
G01X4500Y8000D02*
G01X4500Y9000D01*
G01X4500Y9000D02*
G01X1500Y9000D01*
G01X1500Y9000D02*
G01X1500Y8000D01*
G04 draw reference designator for part J7*
G54D10*
G01X1827Y9577D02*
G01X1827Y9213D01*
G01X1827Y9213D02*
G01X1804Y9145D01*
G01X1804Y9145D02*
G01X1781Y9122D01*
G01X1781Y9122D02*
G01X1736Y9100D01*
G01X1690Y9100D02*
G01X1736Y9100D01*
G01X1645Y9122D02*
G01X1690Y9100D01*
G01X1622Y9145D02*
G01X1645Y9122D01*
G01X1600Y9213D02*
G01X1622Y9145D01*
G01X1600Y9259D02*
G01X1600Y9213D01*
G01X2327Y9577D02*
G01X2100Y9100D01*
G01X2327Y9577D02*
G01X2009Y9577D01*
G04 Draw part J8*
G04 draw part outline for part J8*
G54D11*
G01X1500Y10000D02*
G01X4500Y10000D01*
G01X4500Y10000D02*
G01X4500Y11000D01*
G01X4500Y11000D02*
G01X1500Y11000D01*
G01X1500Y11000D02*
G01X1500Y10000D01*
G04 draw reference designator for part J8*
G54D10*
G01X1827Y11577D02*
G01X1827Y11213D01*
G01X1827Y11213D02*
G01X1804Y11145D01*
G01X1804Y11145D02*
G01X1781Y11122D01*
G01X1781Y11122D02*
G01X1736Y11100D01*
G01X1690Y11100D02*
G01X1736Y11100D01*
G01X1645Y11122D02*
G01X1690Y11100D01*
G01X1622Y11145D02*
G01X1645Y11122D01*
G01X1600Y11213D02*
G01X1622Y11145D01*
G01X1600Y11259D02*
G01X1600Y11213D01*
G01X2122Y11577D02*
G01X2054Y11554D01*
G01X2054Y11554D02*
G01X2031Y11509D01*
G01X2031Y11509D02*
G01X2031Y11463D01*
G01X2031Y11463D02*
G01X2054Y11418D01*
G01X2054Y11418D02*
G01X2100Y11395D01*
G01X2100Y11395D02*
G01X2190Y11372D01*
G01X2190Y11372D02*
G01X2259Y11350D01*
G01X2259Y11350D02*
G01X2304Y11304D01*
G01X2304Y11304D02*
G01X2327Y11259D01*
G01X2327Y11259D02*
G01X2327Y11190D01*
G01X2327Y11190D02*
G01X2304Y11145D01*
G01X2304Y11145D02*
G01X2281Y11122D01*
G01X2281Y11122D02*
G01X2213Y11100D01*
G01X2122Y11100D02*
G01X2213Y11100D01*
G01X2054Y11122D02*
G01X2122Y11100D01*
G01X2031Y11145D02*
G01X2054Y11122D01*
G01X2009Y11190D02*
G01X2031Y11145D01*
G01X2009Y11259D02*
G01X2009Y11190D01*
G01X2031Y11304D02*
G01X2009Y11259D01*
G01X2077Y11350D02*
G01X2031Y11304D01*
G01X2145Y11372D02*
G01X2077Y11350D01*
G01X2236Y11395D02*
G01X2145Y11372D01*
G01X2281Y11418D02*
G01X2236Y11395D01*
G01X2304Y11463D02*
G01X2281Y11418D01*
G01X2304Y11509D02*
G01X2304Y11463D01*
G01X2281Y11554D02*
G01X2304Y11509D01*
G01X2213Y11577D02*
G01X2281Y11554D01*
G01X2122Y11577D02*
G01X2213Y11577D01*
G04 Draw part J9*
G04 draw part outline for part J9*
G54D11*
G01X14480Y4020D02*
G01X14480Y7980D01*
G01X14480Y7980D02*
G01X13520Y7980D01*
G01X13520Y7980D02*
G01X13520Y4020D01*
G01X13520Y4020D02*
G01X14480Y4020D01*
G04 draw reference designator for part J9*
G54D10*
G01X13522Y5477D02*
G01X13886Y5477D01*
G01X13886Y5477D02*
G01X13954Y5454D01*
G01X13954Y5454D02*
G01X13977Y5431D01*
G01X13977Y5431D02*
G01X14000Y5386D01*
G01X14000Y5340D02*
G01X14000Y5386D01*
G01X13977Y5295D02*
G01X14000Y5340D01*
G01X13954Y5272D02*
G01X13977Y5295D01*
G01X13886Y5250D02*
G01X13954Y5272D01*
G01X13840Y5250D02*
G01X13886Y5250D01*
G01X13681Y5954D02*
G01X13750Y5931D01*
G01X13750Y5931D02*
G01X13795Y5886D01*
G01X13795Y5886D02*
G01X13818Y5818D01*
G01X13818Y5795D02*
G01X13818Y5818D01*
G01X13795Y5727D02*
G01X13818Y5795D01*
G01X13750Y5681D02*
G01X13795Y5727D01*
G01X13681Y5659D02*
G01X13750Y5681D01*
G01X13659Y5659D02*
G01X13681Y5659D01*
G01X13590Y5681D02*
G01X13659Y5659D01*
G01X13545Y5727D02*
G01X13590Y5681D01*
G01X13522Y5795D02*
G01X13545Y5727D01*
G01X13522Y5818D02*
G01X13522Y5795D01*
G01X13522Y5818D02*
G01X13545Y5886D01*
G01X13545Y5886D02*
G01X13590Y5931D01*
G01X13590Y5931D02*
G01X13681Y5954D01*
G01X13681Y5954D02*
G01X13795Y5954D01*
G01X13795Y5954D02*
G01X13909Y5931D01*
G01X13909Y5931D02*
G01X13977Y5886D01*
G01X13977Y5886D02*
G01X14000Y5818D01*
G01X14000Y5772D02*
G01X14000Y5818D01*
G01X13977Y5704D02*
G01X14000Y5772D01*
G01X13931Y5681D02*
G01X13977Y5704D01*
G04 Draw part R1*
G04 draw part outline for part R1*
G04 draw reference designator for part R1*
G01X4907Y15977D02*
G01X4907Y15500D01*
G01X5112Y15977D02*
G01X4907Y15977D01*
G01X5112Y15977D02*
G01X5180Y15954D01*
G01X5180Y15954D02*
G01X5202Y15931D01*
G01X5202Y15931D02*
G01X5225Y15886D01*
G01X5225Y15886D02*
G01X5225Y15840D01*
G01X5225Y15840D02*
G01X5202Y15795D01*
G01X5202Y15795D02*
G01X5180Y15772D01*
G01X5180Y15772D02*
G01X5112Y15750D01*
G01X4907Y15750D02*
G01X5112Y15750D01*
G01X5066Y15750D02*
G01X5225Y15500D01*
G01X5452Y15909D02*
G01X5407Y15886D01*
G01X5521Y15977D02*
G01X5452Y15909D01*
G01X5521Y15977D02*
G01X5521Y15500D01*
G04 Draw part R2*
G04 draw part outline for part R2*
G04 draw reference designator for part R2*
G01X3772Y16157D02*
G01X4250Y16157D01*
G01X3772Y16362D02*
G01X3772Y16157D01*
G01X3772Y16362D02*
G01X3795Y16430D01*
G01X3795Y16430D02*
G01X3818Y16452D01*
G01X3818Y16452D02*
G01X3863Y16475D01*
G01X3863Y16475D02*
G01X3909Y16475D01*
G01X3909Y16475D02*
G01X3954Y16452D01*
G01X3954Y16452D02*
G01X3977Y16430D01*
G01X3977Y16430D02*
G01X4000Y16362D01*
G01X4000Y16157D02*
G01X4000Y16362D01*
G01X4000Y16316D02*
G01X4250Y16475D01*
G01X3863Y16680D02*
G01X3886Y16680D01*
G01X3818Y16702D02*
G01X3863Y16680D01*
G01X3795Y16725D02*
G01X3818Y16702D01*
G01X3772Y16771D02*
G01X3795Y16725D01*
G01X3772Y16862D02*
G01X3772Y16771D01*
G01X3772Y16862D02*
G01X3795Y16907D01*
G01X3795Y16907D02*
G01X3818Y16930D01*
G01X3818Y16930D02*
G01X3863Y16952D01*
G01X3863Y16952D02*
G01X3909Y16952D01*
G01X3909Y16952D02*
G01X3954Y16930D01*
G01X3954Y16930D02*
G01X4022Y16884D01*
G01X4022Y16884D02*
G01X4250Y16657D01*
G01X4250Y16975D02*
G01X4250Y16657D01*

G04 Draw traces*

G04 Draw Text*
G54D11*
G01X13715Y20500D02*
G01X13000Y20227D01*
G01X13715Y19954D02*
G01X13000Y20227D01*
G01X13579Y19681D02*
G01X13613Y19613D01*
G01X13613Y19613D02*
G01X13715Y19511D01*
G01X13715Y19511D02*
G01X13000Y19511D01*
G01X13068Y19204D02*
G01X13034Y19238D01*
G01X13034Y19238D02*
G01X13000Y19204D01*
G01X13000Y19204D02*
G01X13034Y19170D01*
G01X13034Y19170D02*
G01X13068Y19204D01*
G01X13715Y18693D02*
G01X13681Y18795D01*
G01X13681Y18795D02*
G01X13579Y18863D01*
G01X13579Y18863D02*
G01X13409Y18897D01*
G01X13409Y18897D02*
G01X13306Y18897D01*
G01X13306Y18897D02*
G01X13136Y18863D01*
G01X13136Y18863D02*
G01X13034Y18795D01*
G01X13034Y18795D02*
G01X13000Y18693D01*
G01X13000Y18693D02*
G01X13000Y18625D01*
G01X13000Y18625D02*
G01X13034Y18522D01*
G01X13034Y18522D02*
G01X13136Y18454D01*
G01X13136Y18454D02*
G01X13306Y18420D01*
G01X13306Y18420D02*
G01X13409Y18420D01*
G01X13409Y18420D02*
G01X13579Y18454D01*
G01X13579Y18454D02*
G01X13681Y18522D01*
G01X13681Y18522D02*
G01X13715Y18625D01*
G01X13715Y18625D02*
G01X13715Y18693D01*
G01X13715Y16340D02*
G01X13681Y16443D01*
G01X13681Y16443D02*
G01X13613Y16477D01*
G01X13613Y16477D02*
G01X13545Y16477D01*
G01X13545Y16477D02*
G01X13477Y16443D01*
G01X13477Y16443D02*
G01X13443Y16375D01*
G01X13443Y16375D02*
G01X13409Y16238D01*
G01X13409Y16238D02*
G01X13375Y16136D01*
G01X13375Y16136D02*
G01X13306Y16068D01*
G01X13306Y16068D02*
G01X13238Y16034D01*
G01X13238Y16034D02*
G01X13136Y16034D01*
G01X13136Y16034D02*
G01X13068Y16068D01*
G01X13068Y16068D02*
G01X13034Y16102D01*
G01X13034Y16102D02*
G01X13000Y16204D01*
G01X13000Y16204D02*
G01X13000Y16340D01*
G01X13000Y16340D02*
G01X13034Y16443D01*
G01X13034Y16443D02*
G01X13068Y16477D01*
G01X13068Y16477D02*
G01X13136Y16511D01*
G01X13136Y16511D02*
G01X13238Y16511D01*
G01X13238Y16511D02*
G01X13306Y16477D01*
G01X13306Y16477D02*
G01X13375Y16409D01*
G01X13375Y16409D02*
G01X13409Y16306D01*
G01X13409Y16306D02*
G01X13443Y16170D01*
G01X13443Y16170D02*
G01X13477Y16102D01*
G01X13477Y16102D02*
G01X13545Y16068D01*
G01X13545Y16068D02*
G01X13613Y16068D01*
G01X13613Y16068D02*
G01X13681Y16102D01*
G01X13681Y16102D02*
G01X13715Y16204D01*
G01X13715Y16204D02*
G01X13715Y16340D01*
G01X13852Y15147D02*
G01X12761Y15761D01*
G01X13579Y14875D02*
G01X13613Y14806D01*
G01X13613Y14806D02*
G01X13715Y14704D01*
G01X13715Y14704D02*
G01X13000Y14704D01*
G01X13852Y13818D02*
G01X12761Y14431D01*
G01X13545Y13511D02*
G01X13579Y13511D01*
G01X13579Y13511D02*
G01X13647Y13477D01*
G01X13647Y13477D02*
G01X13681Y13443D01*
G01X13681Y13443D02*
G01X13715Y13375D01*
G01X13715Y13375D02*
G01X13715Y13238D01*
G01X13715Y13238D02*
G01X13681Y13170D01*
G01X13681Y13170D02*
G01X13647Y13136D01*
G01X13647Y13136D02*
G01X13579Y13102D01*
G01X13579Y13102D02*
G01X13511Y13102D01*
G01X13511Y13102D02*
G01X13443Y13136D01*
G01X13443Y13136D02*
G01X13340Y13204D01*
G01X13340Y13204D02*
G01X13000Y13545D01*
G01X13000Y13545D02*
G01X13000Y13068D01*
G01X13715Y12590D02*
G01X13681Y12693D01*
G01X13681Y12693D02*
G01X13579Y12761D01*
G01X13579Y12761D02*
G01X13409Y12795D01*
G01X13409Y12795D02*
G01X13306Y12795D01*
G01X13306Y12795D02*
G01X13136Y12761D01*
G01X13136Y12761D02*
G01X13034Y12693D01*
G01X13034Y12693D02*
G01X13000Y12590D01*
G01X13000Y12590D02*
G01X13000Y12522D01*
G01X13000Y12522D02*
G01X13034Y12420D01*
G01X13034Y12420D02*
G01X13136Y12352D01*
G01X13136Y12352D02*
G01X13306Y12318D01*
G01X13306Y12318D02*
G01X13409Y12318D01*
G01X13409Y12318D02*
G01X13579Y12352D01*
G01X13579Y12352D02*
G01X13681Y12420D01*
G01X13681Y12420D02*
G01X13715Y12522D01*
G01X13715Y12522D02*
G01X13715Y12590D01*
G01X13579Y12045D02*
G01X13613Y11977D01*
G01X13613Y11977D02*
G01X13715Y11875D01*
G01X13715Y11875D02*
G01X13000Y11875D01*
G01X13715Y11193D02*
G01X13715Y11534D01*
G01X13715Y11534D02*
G01X13409Y11568D01*
G01X13409Y11568D02*
G01X13443Y11534D01*
G01X13443Y11534D02*
G01X13477Y11431D01*
G01X13477Y11431D02*
G01X13477Y11329D01*
G01X13477Y11329D02*
G01X13443Y11227D01*
G01X13443Y11227D02*
G01X13375Y11159D01*
G01X13375Y11159D02*
G01X13272Y11125D01*
G01X13272Y11125D02*
G01X13204Y11125D01*
G01X13204Y11125D02*
G01X13102Y11159D01*
G01X13102Y11159D02*
G01X13034Y11227D01*
G01X13034Y11227D02*
G01X13000Y11329D01*
G01X13000Y11329D02*
G01X13000Y11431D01*
G01X13000Y11431D02*
G01X13034Y11534D01*
G01X13034Y11534D02*
G01X13068Y11568D01*
G01X13068Y11568D02*
G01X13136Y11602D01*
G01X14965Y20500D02*
G01X14250Y20329D01*
G01X14965Y20159D02*
G01X14250Y20329D01*
G01X14965Y20159D02*
G01X14250Y19988D01*
G01X14965Y19818D02*
G01X14250Y19988D01*
G01X14965Y19545D02*
G01X14931Y19511D01*
G01X14931Y19511D02*
G01X14965Y19477D01*
G01X14965Y19477D02*
G01X15000Y19511D01*
G01X15000Y19511D02*
G01X14965Y19545D01*
G01X14727Y19511D02*
G01X14250Y19511D01*
G01X14965Y19204D02*
G01X14250Y19204D01*
G01X14965Y18522D02*
G01X14250Y18522D01*
G01X14625Y18522D02*
G01X14693Y18590D01*
G01X14693Y18590D02*
G01X14727Y18659D01*
G01X14727Y18659D02*
G01X14727Y18761D01*
G01X14727Y18761D02*
G01X14693Y18829D01*
G01X14693Y18829D02*
G01X14625Y18897D01*
G01X14625Y18897D02*
G01X14522Y18931D01*
G01X14522Y18931D02*
G01X14454Y18931D01*
G01X14454Y18931D02*
G01X14352Y18897D01*
G01X14352Y18897D02*
G01X14284Y18829D01*
G01X14284Y18829D02*
G01X14250Y18761D01*
G01X14250Y18761D02*
G01X14250Y18659D01*
G01X14250Y18659D02*
G01X14284Y18590D01*
G01X14284Y18590D02*
G01X14352Y18522D01*
G01X14795Y17738D02*
G01X14863Y17772D01*
G01X14863Y17772D02*
G01X14931Y17840D01*
G01X14931Y17840D02*
G01X14965Y17909D01*
G01X14965Y17909D02*
G01X14965Y18045D01*
G01X14965Y18045D02*
G01X14931Y18113D01*
G01X14931Y18113D02*
G01X14863Y18181D01*
G01X14863Y18181D02*
G01X14795Y18215D01*
G01X14795Y18215D02*
G01X14693Y18250D01*
G01X14693Y18250D02*
G01X14522Y18250D01*
G01X14522Y18250D02*
G01X14420Y18215D01*
G01X14420Y18215D02*
G01X14352Y18181D01*
G01X14352Y18181D02*
G01X14284Y18113D01*
G01X14284Y18113D02*
G01X14250Y18045D01*
G01X14250Y18045D02*
G01X14250Y17909D01*
G01X14250Y17909D02*
G01X14284Y17840D01*
G01X14284Y17840D02*
G01X14352Y17772D01*
G01X14352Y17772D02*
G01X14420Y17738D01*
G01X14965Y17465D02*
G01X14931Y17431D01*
G01X14931Y17431D02*
G01X14965Y17397D01*
G01X14965Y17397D02*
G01X15000Y17431D01*
G01X15000Y17431D02*
G01X14965Y17465D01*
G01X14727Y17431D02*
G01X14250Y17431D01*
G01X14727Y17125D02*
G01X14250Y17125D01*
G01X14522Y17125D02*
G01X14625Y17090D01*
G01X14625Y17090D02*
G01X14693Y17022D01*
G01X14693Y17022D02*
G01X14727Y16954D01*
G01X14727Y16954D02*
G01X14727Y16852D01*
G01X14625Y16170D02*
G01X14693Y16238D01*
G01X14693Y16238D02*
G01X14727Y16306D01*
G01X14727Y16306D02*
G01X14727Y16409D01*
G01X14727Y16409D02*
G01X14693Y16477D01*
G01X14693Y16477D02*
G01X14625Y16545D01*
G01X14625Y16545D02*
G01X14522Y16579D01*
G01X14522Y16579D02*
G01X14454Y16579D01*
G01X14454Y16579D02*
G01X14352Y16545D01*
G01X14352Y16545D02*
G01X14284Y16477D01*
G01X14284Y16477D02*
G01X14250Y16409D01*
G01X14250Y16409D02*
G01X14250Y16306D01*
G01X14250Y16306D02*
G01X14284Y16238D01*
G01X14284Y16238D02*
G01X14352Y16170D01*
G01X14727Y15897D02*
G01X14386Y15897D01*
G01X14386Y15897D02*
G01X14284Y15863D01*
G01X14284Y15863D02*
G01X14250Y15795D01*
G01X14250Y15795D02*
G01X14250Y15693D01*
G01X14250Y15693D02*
G01X14284Y15625D01*
G01X14284Y15625D02*
G01X14386Y15522D01*
G01X14727Y15522D02*
G01X14250Y15522D01*
G01X14965Y15250D02*
G01X14931Y15215D01*
G01X14931Y15215D02*
G01X14965Y15181D01*
G01X14965Y15181D02*
G01X15000Y15215D01*
G01X15000Y15215D02*
G01X14965Y15250D01*
G01X14727Y15215D02*
G01X14250Y15215D01*
G01X14965Y14806D02*
G01X14386Y14806D01*
G01X14386Y14806D02*
G01X14284Y14772D01*
G01X14284Y14772D02*
G01X14250Y14704D01*
G01X14250Y14704D02*
G01X14250Y14636D01*
G01X14727Y14909D02*
G01X14727Y14670D01*
G01X14625Y13988D02*
G01X14693Y14022D01*
G01X14693Y14022D02*
G01X14727Y14125D01*
G01X14727Y14125D02*
G01X14727Y14227D01*
G01X14727Y14227D02*
G01X14693Y14329D01*
G01X14693Y14329D02*
G01X14625Y14363D01*
G01X14625Y14363D02*
G01X14556Y14329D01*
G01X14556Y14329D02*
G01X14522Y14261D01*
G01X14522Y14261D02*
G01X14488Y14090D01*
G01X14488Y14090D02*
G01X14454Y14022D01*
G01X14454Y14022D02*
G01X14386Y13988D01*
G01X14386Y13988D02*
G01X14352Y13988D01*
G01X14352Y13988D02*
G01X14284Y14022D01*
G01X14284Y14022D02*
G01X14250Y14125D01*
G01X14250Y14125D02*
G01X14250Y14227D01*
G01X14250Y14227D02*
G01X14284Y14329D01*
G01X14284Y14329D02*
G01X14352Y14363D01*
G01X14863Y12693D02*
G01X14931Y12761D01*
G01X14931Y12761D02*
G01X14965Y12863D01*
G01X14965Y12863D02*
G01X14965Y13000D01*
G01X14965Y13000D02*
G01X14931Y13102D01*
G01X14931Y13102D02*
G01X14863Y13170D01*
G01X14863Y13170D02*
G01X14795Y13170D01*
G01X14795Y13170D02*
G01X14727Y13136D01*
G01X14727Y13136D02*
G01X14693Y13102D01*
G01X14693Y13102D02*
G01X14659Y13034D01*
G01X14659Y13034D02*
G01X14590Y12829D01*
G01X14590Y12829D02*
G01X14556Y12761D01*
G01X14556Y12761D02*
G01X14522Y12727D01*
G01X14522Y12727D02*
G01X14454Y12693D01*
G01X14454Y12693D02*
G01X14352Y12693D01*
G01X14352Y12693D02*
G01X14284Y12761D01*
G01X14284Y12761D02*
G01X14250Y12863D01*
G01X14250Y12863D02*
G01X14250Y13000D01*
G01X14250Y13000D02*
G01X14284Y13102D01*
G01X14284Y13102D02*
G01X14352Y13170D01*
G01X14965Y12147D02*
G01X14250Y12420D01*
G01X14965Y12147D02*
G01X14250Y11875D01*
G01X14488Y12318D02*
G01X14488Y11977D01*
G01X14965Y11602D02*
G01X14250Y11602D01*
G01X14965Y11602D02*
G01X14965Y11295D01*
G01X14965Y11295D02*
G01X14931Y11193D01*
G01X14931Y11193D02*
G01X14897Y11159D01*
G01X14897Y11159D02*
G01X14829Y11125D01*
G01X14829Y11125D02*
G01X14761Y11125D01*
G01X14761Y11125D02*
G01X14693Y11159D01*
G01X14693Y11159D02*
G01X14659Y11193D01*
G01X14659Y11193D02*
G01X14625Y11295D01*
G01X14625Y11602D02*
G01X14625Y11295D01*
G01X14625Y11295D02*
G01X14590Y11193D01*
G01X14590Y11193D02*
G01X14556Y11159D01*
G01X14556Y11159D02*
G01X14488Y11125D01*
G01X14488Y11125D02*
G01X14386Y11125D01*
G01X14386Y11125D02*
G01X14318Y11159D01*
G01X14318Y11159D02*
G01X14284Y11193D01*
G01X14284Y11193D02*
G01X14250Y11295D01*
G01X14250Y11295D02*
G01X14250Y11602D01*
G01X14965Y10784D02*
G01X14965Y10409D01*
G01X14965Y10409D02*
G01X14693Y10613D01*
G01X14693Y10613D02*
G01X14693Y10511D01*
G01X14693Y10511D02*
G01X14659Y10443D01*
G01X14659Y10443D02*
G01X14625Y10409D01*
G01X14625Y10409D02*
G01X14522Y10375D01*
G01X14522Y10375D02*
G01X14454Y10375D01*
G01X14454Y10375D02*
G01X14352Y10409D01*
G01X14352Y10409D02*
G01X14284Y10477D01*
G01X14284Y10477D02*
G01X14250Y10579D01*
G01X14250Y10579D02*
G01X14250Y10681D01*
G01X14250Y10681D02*
G01X14284Y10784D01*
G01X14284Y10784D02*
G01X14318Y10818D01*
G01X14318Y10818D02*
G01X14386Y10852D01*
G01X14965Y9863D02*
G01X14250Y9863D01*
G01X14965Y10102D02*
G01X14965Y9625D01*
M00*
M02*
