<?xml version="1.0" encoding="UTF-8" standalone="no"?>
<!-- Created with Inkscape (http://www.inkscape.org/) -->

<svg
   xmlns:dc="http://purl.org/dc/elements/1.1/"
   xmlns:cc="http://creativecommons.org/ns#"
   xmlns:rdf="http://www.w3.org/1999/02/22-rdf-syntax-ns#"
   xmlns:svg="http://www.w3.org/2000/svg"
   xmlns="http://www.w3.org/2000/svg"
   xmlns:sodipodi="http://sodipodi.sourceforge.net/DTD/sodipodi-0.dtd"
   xmlns:inkscape="http://www.inkscape.org/namespaces/inkscape"
   width="1679.5"
   height="1414"
   id="svg3373"
   version="1.1"
   inkscape:version="0.48.3.1 r9886"
   sodipodi:docname="New document 4">
  <defs
     id="defs3375">
    <symbol
       id="*Paper_Space0" />
    <symbol
       id="*Paper_Space" />
    <symbol
       id="*Model_Space" />
    <pattern
       id="Hatch"
       x="0"
       y="0"
       patternUnits="userSpaceOnUse"
       width="8"
       height="8">
      <path
         id="path4224"
         d="M8 4 l-4,4"
         stroke-width="0.25"
         stroke="#000000"
         linecap="square" />
      <path
         id="path4226"
         d="M6 2 l-4,4"
         stroke-width="0.25"
         stroke="#000000"
         linecap="square" />
      <path
         id="path4228"
         d="M4 0 l-4,4"
         stroke-width="0.25"
         stroke="#000000"
         linecap="square" />
    </pattern>
    <marker
       orient="auto"
       id="DistanceX"
       style="overflow:visible"
       refX="0"
       refY="0">
      <path
         id="path4221"
         d="M 3,-3 -3,3 M 0,-5 0,5"
         style="stroke:#000000;stroke-width:0.5"
         inkscape:connector-curvature="0" />
    </marker>
  </defs>
  <sodipodi:namedview
     id="base"
     pagecolor="#ffffff"
     bordercolor="#666666"
     borderopacity="1.0"
     inkscape:pageopacity="0.0"
     inkscape:pageshadow="2"
     inkscape:zoom="0.5"
     inkscape:cx="1246.3651"
     inkscape:cy="618.84186"
     inkscape:document-units="in"
     inkscape:current-layer="layer1"
     showgrid="false"
     units="in"
     fit-margin-top="0.25"
     fit-margin-left="0.25"
     fit-margin-right="0.25"
     fit-margin-bottom="0.25"
     inkscape:window-width="1920"
     inkscape:window-height="1018"
     inkscape:window-x="-8"
     inkscape:window-y="-8"
     inkscape:window-maximized="1" />
  <metadata
     id="metadata3378">
    <rdf:RDF>
      <cc:Work
         rdf:about="">
        <dc:format>image/svg+xml</dc:format>
        <dc:type
           rdf:resource="http://purl.org/dc/dcmitype/StillImage" />
        <dc:title></dc:title>
      </cc:Work>
    </rdf:RDF>
  </metadata>
  <g
     inkscape:label="Layer 1"
     inkscape:groupmode="layer"
     id="layer1"
     transform="translate(464.75,194.63803)">
    <g
       id="g5014"
       transform="translate(0,-20.000014)">
      <path
         inkscape:connector-curvature="0"
         style="fill:none;stroke:#ff0000;stroke-opacity:1"
         d="m 966.75,1216.362 0,-198"
         id="path4235" />
      <path
         inkscape:connector-curvature="0"
         style="fill:none;stroke:#000000;stroke-opacity:1"
         d="m 1056.75,1018.362 0,198"
         id="path4237" />
      <path
         inkscape:connector-curvature="0"
         style="fill:none;stroke:#000000;stroke-opacity:1"
         d="m 966.75,1018.362 90,0"
         id="path4239" />
      <path
         inkscape:connector-curvature="0"
         style="fill:none;stroke:#000000;stroke-opacity:1"
         d="m 1056.75,1216.362 -90,0"
         id="path4241" />
      <path
         inkscape:connector-curvature="0"
         style="fill:none;stroke:#000000;stroke-opacity:1"
         d="m 966.75,991.36197 0,27.00003"
         id="path4243" />
      <path
         inkscape:connector-curvature="0"
         style="fill:none;stroke:#000000;stroke-opacity:1"
         d="m 1056.75,-151.63802 0,197.99999"
         id="path4245" />
      <path
         inkscape:connector-curvature="0"
         style="fill:none;stroke:#000000;stroke-opacity:1"
         d="m 1056.75,46.36197 -90,0"
         id="path4247" />
      <path
         inkscape:connector-curvature="0"
         style="fill:none;stroke:#ff0000;stroke-opacity:1"
         d="m 966.75,46.36197 0,-197.99999"
         id="path4249" />
      <path
         inkscape:connector-curvature="0"
         style="fill:none;stroke:#000000;stroke-opacity:1"
         d="m 966.75,-151.63802 90,0"
         id="path4251" />
      <path
         inkscape:connector-curvature="0"
         style="fill:none;stroke:#000000;stroke-opacity:1"
         d="m 1191.75,991.36197 0,-918"
         id="path4253" />
      <path
         inkscape:connector-curvature="0"
         style="fill:none;stroke:#000000;stroke-opacity:1"
         d="m 1191.75,73.36197 -225,0"
         id="path4255" />
      <path
         inkscape:connector-curvature="0"
         style="fill:none;stroke:#000000;stroke-opacity:1"
         d="m 966.75,991.36197 225,0"
         id="path4257" />
      <path
         inkscape:connector-curvature="0"
         style="fill:none;stroke:#ff0000;stroke-opacity:1"
         d="m 966.75,73.36197 0,918"
         id="path4259" />
      <path
         inkscape:connector-curvature="0"
         style="fill:none;stroke:#000000;stroke-opacity:1"
         d="m 966.75,46.36197 0,27"
         id="path4261" />
      <path
         inkscape:connector-curvature="0"
         style="fill:none;stroke:#000000;stroke-opacity:1"
         d="m 712.5,-151.63802 254.25,0"
         id="path4263" />
      <path
         inkscape:connector-curvature="0"
         style="fill:none;stroke:#000000;stroke-opacity:1"
         d="m 487.5,73.36197 225,-224.99999"
         id="path4265" />
      <path
         inkscape:connector-curvature="0"
         style="fill:none;stroke:#ff0000;stroke-opacity:1"
         d="m 487.5,73.36197 479.25,0"
         id="path4267" />
      <path
         inkscape:connector-curvature="0"
         style="fill:none;stroke:#000000;stroke-opacity:1"
         d="m 966.75,1216.362 -254.25,0"
         id="path4269" />
      <path
         inkscape:connector-curvature="0"
         style="fill:none;stroke:#000000;stroke-opacity:1"
         d="M 712.5,1216.362 487.5,991.36197"
         id="path4271" />
      <path
         inkscape:connector-curvature="0"
         style="fill:none;stroke:#ff0000;stroke-opacity:1"
         d="m 966.75,991.36197 -479.25,0"
         id="path4273" />
      <path
         inkscape:connector-curvature="0"
         style="fill:none;stroke:#ff0000;stroke-opacity:1"
         d="m 487.5,980.11197 -236.25,0"
         id="path4275" />
      <path
         inkscape:connector-curvature="0"
         style="fill:none;stroke:#ff0000;stroke-opacity:1"
         d="m 251.25,980.11197 -468,0"
         id="path4277" />
      <path
         inkscape:connector-curvature="0"
         style="fill:none;stroke:#ff0000;stroke-opacity:1"
         d="m -216.75,980.11197 -225,0"
         id="path4279" />
      <path
         inkscape:connector-curvature="0"
         style="fill:none;stroke:#ff0000;stroke-opacity:1"
         d="m 487.5,991.36197 0,-918"
         id="path4281" />
      <path
         inkscape:connector-curvature="0"
         style="fill:none;stroke:#ff0000;stroke-opacity:1"
         d="m 487.5,84.61197 -236.25,0"
         id="path4283" />
      <path
         inkscape:connector-curvature="0"
         style="fill:none;stroke:#ff0000;stroke-opacity:1"
         d="m -441.75,84.61197 225,0"
         id="path4285" />
      <path
         inkscape:connector-curvature="0"
         style="fill:none;stroke:#ff0000;stroke-opacity:1"
         d="m -216.75,84.61197 468,0"
         id="path4287" />
      <path
         inkscape:connector-curvature="0"
         style="fill:none;stroke:#000000;stroke-opacity:1"
         d="m 476.25,20.97236 0,63.63961"
         id="path4289" />
      <path
         inkscape:connector-curvature="0"
         style="fill:none;stroke:#000000;stroke-opacity:1"
         d="m 476.25,980.11197 0,63.63963"
         id="path4291" />
      <path
         inkscape:connector-curvature="0"
         style="fill:none;stroke:#000000;stroke-opacity:1"
         d="M 314.88961,1043.7516 251.25,980.11197"
         id="path4293" />
      <path
         inkscape:connector-curvature="0"
         style="fill:none;stroke:#000000;stroke-opacity:1"
         d="m 476.25,1043.7516 -161.36039,0"
         id="path4295" />
      <path
         inkscape:connector-curvature="0"
         style="fill:none;stroke:#000000;stroke-opacity:1"
         d="M 251.25,84.61197 314.88961,20.97236"
         id="path4297" />
      <path
         inkscape:connector-curvature="0"
         style="fill:none;stroke:#000000;stroke-opacity:1"
         d="m 314.88961,20.97236 161.36039,0"
         id="path4299" />
      <path
         inkscape:connector-curvature="0"
         style="fill:none;stroke:#ff0000;stroke-opacity:1"
         d="m 251.25,980.11197 0,-895.5"
         id="path4301" />
      <path
         inkscape:connector-curvature="0"
         style="fill:none;stroke:#000000;stroke-opacity:1"
         d="m 251.25,980.11197 0,225.00003"
         id="path4303" />
      <path
         inkscape:connector-curvature="0"
         style="fill:none;stroke:#000000;stroke-opacity:1"
         d="m 251.25,-140.38802 0,224.99999"
         id="path4305" />
      <path
         inkscape:connector-curvature="0"
         style="fill:none;stroke:#000000;stroke-opacity:1"
         d="m -216.75,-140.38802 468,0"
         id="path4307" />
      <path
         inkscape:connector-curvature="0"
         style="fill:none;stroke:#000000;stroke-opacity:1"
         d="m -216.75,84.61197 0,-224.99999"
         id="path4309" />
      <path
         inkscape:connector-curvature="0"
         style="fill:none;stroke:#000000;stroke-opacity:1"
         d="m 251.25,1205.112 -468,0"
         id="path4311" />
      <path
         inkscape:connector-curvature="0"
         style="fill:none;stroke:#000000;stroke-opacity:1"
         d="m -216.75,1205.112 0,-225.00003"
         id="path4313" />
      <path
         inkscape:connector-curvature="0"
         style="fill:none;stroke:#ff0000;stroke-opacity:1"
         d="m -216.75,84.61197 0,895.5"
         id="path4315" />
      <path
         inkscape:connector-curvature="0"
         style="fill:none;stroke:#000000;stroke-opacity:1"
         d="m -216.75,980.11197 -63.63961,63.63963"
         id="path4317" />
      <path
         inkscape:connector-curvature="0"
         style="fill:none;stroke:#000000;stroke-opacity:1"
         d="m -280.38961,1043.7516 -161.36039,0"
         id="path4319" />
      <path
         inkscape:connector-curvature="0"
         style="fill:none;stroke:#000000;stroke-opacity:1"
         d="m -441.75,1043.7516 0,-63.63963"
         id="path4321" />
      <path
         inkscape:connector-curvature="0"
         style="fill:none;stroke:#000000;stroke-opacity:1"
         d="m -441.75,980.11197 0,-895.5"
         id="path4323" />
      <path
         inkscape:connector-curvature="0"
         style="fill:none;stroke:#000000;stroke-opacity:1"
         d="M -280.38961,20.97236 -216.75,84.61197"
         id="path4325" />
      <path
         inkscape:connector-curvature="0"
         style="fill:none;stroke:#000000;stroke-opacity:1"
         d="m -441.75,84.61197 0,-63.63961"
         id="path4327" />
      <path
         inkscape:connector-curvature="0"
         style="fill:none;stroke:#000000;stroke-opacity:1"
         d="m -441.75,20.97236 161.36039,0"
         id="path4329" />
    </g>
    <g
       transform="matrix(0,-1,1,0,0,2.1e-5)"
       style="font-size:262.98834229px;font-style:normal;font-weight:normal;line-height:125%;letter-spacing:0px;word-spacing:0px;fill:none;stroke:#ff0000;stroke-opacity:1;font-family:Sans"
       id="text5010">
      <path
         d="m -920.84141,1111.9637 23.49945,-2.0546 c 1.11287,9.417 3.70252,17.1431 7.76894,23.1785 4.06635,6.0354 10.37994,10.915 18.94082,14.639 8.56074,3.7239 18.19165,5.5859 28.89276,5.5859 9.50241,0 17.892,-1.4125 25.1688,-4.2376 7.27658,-2.8251 12.69129,-6.6988 16.24416,-11.6213 3.5526,-4.9225 5.32897,-10.2944 5.32911,-16.1158 -1.4e-4,-5.9069 -1.7123,-11.0648 -5.1365,-15.4736 -3.42445,-4.4088 -9.07459,-8.1113 -16.95042,-11.1077 -5.05099,-1.9689 -16.22285,-5.0294 -33.5156,-9.1815 -17.29292,-4.1519 -29.40646,-8.0685 -36.34067,-11.7497 -8.9889,-4.7084 -15.68773,-10.5511 -20.09653,-17.5283 -4.40884,-6.9769 -6.61325,-14.7887 -6.61323,-23.4352 -2e-5,-9.5024 2.69664,-18.3842 8.08998,-26.6456 5.39328,-8.26098 13.26922,-14.53178 23.62785,-18.81237 10.35853,-4.28022 21.87282,-6.42042 34.54291,-6.42061 13.95403,1.9e-4 26.2602,2.2474 36.91853,6.74164 10.65808,4.49461 18.85506,11.10784 24.59095,19.83974 5.73559,8.7322 8.81748,18.6199 9.24568,29.6632 l -23.88468,1.7978 c -1.28426,-11.8994 -5.62887,-20.8883 -13.03385,-26.9666 -7.40522,-6.078 -18.34165,-9.1171 -32.80933,-9.1173 -15.06712,2e-4 -26.04635,2.761 -32.93775,8.2826 -6.89151,5.5219 -10.33723,12.1779 -10.33719,19.9681 -4e-5,6.7632 2.43979,12.3277 7.3195,16.6936 4.794,4.3662 17.31419,8.8392 37.56059,13.4191 20.24623,4.5801 34.13614,8.5823 41.66978,12.0065 10.95771,5.051 19.04767,11.4502 24.26992,19.1977 5.22194,7.7476 7.83299,16.6722 7.83315,26.7739 -1.6e-4,10.0162 -2.86803,19.4545 -8.60362,28.3149 -5.7359,8.8605 -13.97568,15.752 -24.71936,20.6744 -10.74395,4.9225 -22.83609,7.3837 -36.27647,7.3837 -17.03611,0 -31.31126,-2.4826 -42.8255,-7.4479 -11.51433,-4.9652 -20.54599,-12.4346 -27.09499,-22.4079 -6.54904,-9.9733 -9.99476,-21.2522 -10.33719,-33.8367 z"
         style="fill:none;stroke:#ff0000;stroke-opacity:1"
         id="path5065"
         inkscape:connector-curvature="0" />
      <path
         d="m -757.37257,1172.4459 72.29611,-188.25237 26.83817,0 77.04736,188.25237 -28.37911,0 -21.9585,-57.015 -78.71673,0 -20.67437,57.015 z m 54.31839,-77.3042 63.8209,0 -19.64708,-52.1354 c -5.99266,-15.8373 -10.44428,-28.8498 -13.35487,-39.0373 -2.39711,12.0709 -5.77863,24.0561 -10.14457,35.9555 z"
         style="fill:none;stroke:#ff0000;stroke-opacity:1"
         id="path5067"
         inkscape:connector-curvature="0" />
      <path
         d="m -562.05749,1172.4459 0,-188.25237 70.62675,0 c 14.38207,1.8e-4 25.91776,1.90496 34.60711,5.71434 8.68909,3.80974 15.49494,9.6739 20.41755,17.59253 4.92232,7.9189 7.38355,16.2015 7.3837,24.8477 -1.5e-4,8.0473 -2.18315,15.6236 -6.54902,22.729 -4.36616,7.1056 -10.95798,12.8413 -19.77549,17.2072 11.38575,3.3389 20.13918,9.0318 26.26031,17.0789 6.12082,8.0472 9.18131,17.5497 9.18148,28.5075 -1.7e-4,8.8177 -1.86214,17.0147 -5.58594,24.591 -3.72411,7.5763 -8.32554,13.4191 -13.80432,17.5282 -5.47906,4.1092 -12.34911,7.2125 -20.61017,9.3099 -8.2613,2.0974 -18.38446,3.1461 -30.3695,3.1461 z m 24.91198,-109.1504 40.70669,0 c 11.04336,10e-5 18.96211,-0.7276 23.75627,-2.183 6.33489,-1.8833 11.10754,-5.008 14.31797,-9.3741 3.21018,-4.3659 4.81533,-9.8448 4.81546,-16.4368 -1.3e-4,-6.2492 -1.49827,-11.7496 -4.49443,-16.501 -2.99641,-4.7511 -7.27681,-8.0042 -12.84123,-9.7593 -5.56463,-1.7548 -15.10994,-2.6323 -28.63594,-2.6325 l -37.62479,0 z m 0,86.9351 46.87048,0 c 8.04707,0 13.6972,-0.2996 16.95042,-0.8989 5.73563,-1.0273 10.52969,-2.7394 14.38217,-5.1365 3.85225,-2.397 7.01975,-5.8855 9.50251,-10.4656 2.48251,-4.58 3.72382,-9.8663 3.72396,-15.8589 -1.4e-4,-7.0198 -1.79791,-13.1194 -5.39332,-18.2987 -3.59567,-5.1793 -8.58234,-8.8176 -14.96003,-10.9151 -6.37792,-2.0973 -15.55938,-3.146 -27.54443,-3.1461 l -43.53176,0 z"
         style="fill:none;stroke:#ff0000;stroke-opacity:1"
         id="path5069"
         inkscape:connector-curvature="0" />
      <path
         d="m -394.60785,1122.7504 23.11421,-3.0819 c 2.65382,13.0981 7.16964,22.5364 13.54749,28.3149 6.37776,5.7786 14.1467,8.6678 23.30683,8.6678 10.87216,0 20.05363,-3.7667 27.54444,-11.3003 7.49061,-7.5335 11.23596,-16.8647 11.23607,-27.9938 -1.1e-4,-10.6154 -3.46724,-19.3688 -10.40139,-26.2604 -6.93436,-6.8913 -15.75199,-10.3371 -26.45293,-10.3371 -4.36609,0 -9.8022,0.8561 -16.30836,2.5682 l 2.56824,-20.2891 c 1.54089,0.1713 2.78221,0.2569 3.72396,0.2568 9.84487,10e-5 18.70531,-2.5681 26.58134,-7.7047 7.87586,-5.1364 11.81383,-13.0552 11.81393,-23.7563 -10e-5,-8.4751 -2.86797,-15.4949 -8.60362,-21.0596 -5.73584,-5.5644 -13.14094,-8.3467 -22.21533,-8.3468 -8.98892,10e-5 -16.47963,2.8252 -22.47214,8.4752 -5.99262,5.6503 -9.84498,14.1255 -11.55711,25.4256 l -23.11421,-4.1092 c 2.82505,-15.4949 9.24566,-27.5014 19.26184,-36.01963 10.01612,-8.51783 22.4721,-12.77683 37.36797,-12.77702 10.27291,1.9e-4 19.7326,2.2046 28.37912,6.61323 8.64632,4.409 15.25954,10.42302 19.83969,18.04192 4.57992,7.6193 6.86994,15.7093 6.87006,24.2699 -1.2e-4,8.1329 -2.18313,15.538 -6.54902,22.2154 -4.36614,6.6775 -10.82955,11.9852 -19.39026,15.9231 11.12896,2.5683 19.77537,7.8974 25.93928,15.9873 6.16366,8.0901 9.24555,18.2132 9.24569,30.3695 -1.4e-4,16.4368 -5.99271,30.3695 -17.97772,41.7982 -11.98525,11.4287 -27.13789,17.143 -45.45795,17.143 -16.52243,0 -30.24113,-4.9224 -41.15613,-14.7674 -10.91507,-9.8449 -17.14306,-22.6005 -18.68399,-38.2668 z"
         style="fill:none;stroke:#ff0000;stroke-opacity:1"
         id="path5071"
         inkscape:connector-curvature="0" />
      <path
         d="m -191.07443,1172.4459 0,-166.0371 -62.02313,0 0,-22.21527 149.21506,0 0,22.21527 -62.27995,0 0,166.0371 z"
         style="fill:none;stroke:#ff0000;stroke-opacity:1"
         id="path5073"
         inkscape:connector-curvature="0" />
    </g>
    <g
       style="stroke-width:0.99000001;stroke-miterlimit:4;stroke-dasharray:none"
       id="g4593"
       transform="matrix(2.4824955,0,0,2.4824955,-771.5912,-809.2248)">
      <g
         transform="matrix(0,-1,1,0,-226.28216,1072.3622)"
         id="g3163"
         style="stroke:#000000;stroke-width:0.99000001;stroke-miterlimit:4;stroke-opacity:1;stroke-dasharray:none">
        <path
           inkscape:connector-curvature="0"
           style="fill:none;stroke:#ff0000;stroke-width:0.99000001;stroke-miterlimit:4;stroke-opacity:1;stroke-dasharray:none"
           d="m 388.6298,896.19699 0,-16.2311 151.3702,0 151.37019,0 0,16.2311 0,16.23111 -151.37019,0 -151.3702,0 0,-16.23111 z"
           id="path3161" />
        <path
           inkscape:connector-curvature="0"
           style="fill:none;stroke:#ff0000;stroke-width:0.99000001;stroke-miterlimit:4;stroke-opacity:1;stroke-dasharray:none"
           d="m 687.94575,896.37735 0.0623,-12.56411 -148.00586,0 -148.00589,0 0,12.46387 c 0,6.8552 0.0722,12.53609 0.1605,12.62446 0.0883,0.0882 66.66291,0.13331 147.94364,0.10015 l 147.78314,-0.0606 0.0623,-12.56411 z"
           id="path3159" />
        <path
           inkscape:connector-curvature="0"
           style="fill:none;stroke:#ff0000;stroke-width:0.99000001;stroke-miterlimit:4;stroke-opacity:1;stroke-dasharray:none"
           d="m 494.68718,902.2774 c -1.88682,-0.97131 -2.04601,-1.38235 -2.14078,-5.52705 -0.0988,-4.32151 0.15163,-5.18585 1.75047,-6.04169 0.92065,-0.49285 1.29147,-0.52323 6.38777,-0.52323 4.72327,0 5.50932,0.0539 6.18961,0.42586 1.04799,0.57263 1.49202,1.31594 1.6666,2.78995 l 0.14599,1.23271 -1.95718,0 c -1.54524,0 -1.95718,-0.0732 -1.95718,-0.347 0,-0.82007 -0.97852,-1.09578 -3.88957,-1.09578 -1.55511,0 -3.08362,0.11984 -3.40666,0.26704 -0.84081,0.38302 -1.11991,1.19105 -1.11991,3.2419 0,1.59376 0.0685,1.87166 0.59022,2.39329 0.5636,0.56363 0.72559,0.59023 3.59126,0.59023 3.37657,0 4.15258,-0.19046 4.37423,-1.07356 0.1479,-0.58922 0.21763,-0.60967 2.08414,-0.60967 l 1.93111,0 -0.14299,1.2073 c -0.1794,1.51473 -0.5783,2.33783 -1.44385,2.97914 -0.63378,0.46962 -1.03571,0.50707 -6.13176,0.57145 -5.27843,0.0665 -5.48782,0.0513 -6.52152,-0.48089 z"
           id="path3157" />
        <path
           inkscape:connector-curvature="0"
           style="fill:none;stroke:#ff0000;stroke-width:0.99000001;stroke-miterlimit:4;stroke-opacity:1;stroke-dasharray:none"
           d="m 548.05546,896.42902 0,-6.40762 6.91324,0.0825 c 6.33939,0.0749 6.99254,0.12195 7.86842,0.56295 1.67462,0.84313 1.93035,1.60774 1.93035,5.77103 0,4.16329 -0.25573,4.9279 -1.93035,5.77111 -0.87725,0.44168 -1.5191,0.48688 -7.86842,0.55454 l -6.91324,0.0741 0,-6.4077 z"
           id="path3155" />
        <path
           inkscape:connector-curvature="0"
           style="fill:none;stroke:#ff0000;stroke-width:0.99000001;stroke-miterlimit:4;stroke-opacity:1;stroke-dasharray:none"
           d="m 560.40677,898.94478 c 0.59492,-0.46794 0.63358,-0.62196 0.63358,-2.52484 0,-3.01938 0.0526,-2.98824 -5.04968,-2.98824 l -4.08784,0 0,3.00574 0,3.00574 3.93518,0 c 3.61701,0 3.98641,-0.0404 4.56876,-0.4984 z"
           id="path3153" />
        <path
           inkscape:connector-curvature="0"
           style="fill:none;stroke:#ff0000;stroke-width:0.99000001;stroke-miterlimit:4;stroke-opacity:1;stroke-dasharray:none"
           d="m 610.33485,896.41893 0,-6.39071 5.95141,0.0783 c 6.70877,0.0886 7.40059,0.24457 8.34933,1.88201 0.66204,1.14266 0.69981,4.77751 0.0619,5.94735 -0.77474,1.42064 -1.46953,1.60672 -6.36724,1.70511 l -4.38841,0.0882 0,1.54007 0,1.54007 -1.80346,0 -1.80346,0 0,-6.39071 z"
           id="path3151" />
        <path
           inkscape:connector-curvature="0"
           style="fill:none;stroke:#ff0000;stroke-width:0.99000001;stroke-miterlimit:4;stroke-opacity:1;stroke-dasharray:none"
           d="m 621.16915,895.81094 c 0.36375,-0.6796 0.0769,-2.07348 -0.489,-2.37638 -0.25013,-0.13381 -1.81449,-0.24339 -3.47635,-0.24339 l -3.02158,0 0,1.56304 0,1.56296 3.35801,0 c 3.16786,0 3.37333,-0.0286 3.62892,-0.50623 z"
           id="path3149" />
        <path
           inkscape:connector-curvature="0"
           style="fill:none;stroke:#ff0000;stroke-width:0.99000001;stroke-miterlimit:4;stroke-opacity:1;stroke-dasharray:none"
           d="m 401.37424,897.88022 0,-4.68905 -2.64507,0 -2.64507,0 0,-1.56296 0,-1.56296 7.21383,0 7.21383,0 0,1.56296 0,1.56296 -2.64507,0 -2.64508,0 0,4.68905 0,4.68896 -1.92368,0 -1.92369,0 0,-4.68896 z"
           id="path3147" />
        <path
           inkscape:connector-curvature="0"
           style="fill:none;stroke:#ff0000;stroke-width:0.99000001;stroke-miterlimit:4;stroke-opacity:1;stroke-dasharray:none"
           d="m 412.43545,896.31717 0,-6.25192 1.79443,0 1.79443,0 0.0692,2.22421 0.0691,2.2243 4.02773,0.0657 4.02771,0.0657 0,-2.2902 0,-2.2902 1.9237,0 1.92368,0 0,6.25192 0,6.25201 -1.92368,0 -1.9237,0 0,-2.28439 0,-2.2843 -4.08783,0 -4.08784,0 0,2.2843 0,2.28439 -1.80346,0 -1.80345,0 0,-6.25201 z"
           id="path3145" />
        <path
           inkscape:connector-curvature="0"
           style="fill:none;stroke:#ff0000;stroke-width:0.99000001;stroke-miterlimit:4;stroke-opacity:1;stroke-dasharray:none"
           d="m 430.71048,896.31717 0,-6.25192 6.85314,0 6.85315,0 0,1.44269 0,1.44278 -4.92946,0 -4.92945,0 0,1.08206 0,1.08215 4.68899,0 4.68899,0 0,1.20224 0,1.20233 -4.68899,0 -4.68899,0 0,1.08207 0,1.08206 5.04968,0 5.04968,0 0,1.44278 0,1.44277 -6.97337,0 -6.97337,0 0,-6.25201 z"
           id="path3143" />
        <path
           inkscape:connector-curvature="0"
           style="fill:none;stroke:#ff0000;stroke-width:0.99000001;stroke-miterlimit:4;stroke-opacity:1;stroke-dasharray:none"
           d="m 455.47797,896.31717 0,-6.25192 1.92369,0 1.92368,0 0,2.2902 0,2.2902 4.02773,-0.0657 4.02772,-0.0657 0.0692,-2.2243 0.0692,-2.2243 1.79444,0 1.79443,0 0,6.25201 0,6.25201 -1.80346,0 -1.80346,0 0,-2.28439 0,-2.28439 -4.08784,0 -4.08783,0 0,2.28439 0,2.28439 -1.92369,0 -1.92369,0 0,-6.25201 z"
           id="path3141" />
        <path
           inkscape:connector-curvature="0"
           style="fill:none;stroke:#ff0000;stroke-width:0.99000001;stroke-miterlimit:4;stroke-opacity:1;stroke-dasharray:none"
           d="m 472.8043,902.38883 c 0.008,-0.0992 1.49782,-2.88556 3.31243,-6.19184 l 3.29927,-6.01156 2.49966,0 2.49967,0 3.42442,6.19192 3.42441,6.19183 -2.12488,0 -2.12489,0 -0.56345,-1.02197 -0.56345,-1.02197 -3.90332,-0.0665 -3.90333,-0.0656 -0.52861,1.08804 -0.52861,1.08803 -2.11622,0 c -1.16394,0 -2.11033,-0.0808 -2.1031,-0.18035 z"
           id="path3139" />
        <path
           inkscape:connector-curvature="0"
           style="fill:none;stroke:#ff0000;stroke-width:0.99000001;stroke-miterlimit:4;stroke-opacity:1;stroke-dasharray:none"
           d="m 483.37361,895.86859 c -1.58339,-3.04352 -1.40787,-3.0176 -2.70795,-0.40035 l -1.13843,2.29171 2.4152,0 2.41521,0 -0.98403,-1.89136 z"
           id="path3137" />
        <path
           inkscape:connector-curvature="0"
           style="fill:none;stroke:#ff0000;stroke-width:0.99000001;stroke-miterlimit:4;stroke-opacity:1;stroke-dasharray:none"
           d="m 511.02446,896.31717 0,-6.25192 1.91499,0 1.91498,0 0.0688,2.34448 0.0688,2.34448 0.79135,0.0757 c 0.71392,0.069 1.03943,-0.16075 3.32664,-2.34448 l 2.53529,-2.42057 2.56003,0 2.56002,0 -0.71676,0.67784 c -0.39422,0.37283 -1.87998,1.73877 -3.30171,3.03536 -1.42172,1.29667 -2.58496,2.42688 -2.58496,2.51154 0,0.0847 1.59303,1.50514 3.54007,3.15647 l 3.54007,3.00246 -2.5957,0.0682 -2.59571,0.0682 -2.79144,-2.4129 c -2.32696,-2.01138 -2.92424,-2.41291 -3.58944,-2.41291 l -0.79799,0 0,2.40457 0,2.40466 -1.92368,0 -1.92369,0 0,-6.25201 z"
           id="path3135" />
        <path
           inkscape:connector-curvature="0"
           style="fill:none;stroke:#ff0000;stroke-width:0.99000001;stroke-miterlimit:4;stroke-opacity:1;stroke-dasharray:none"
           d="m 528.51794,901.30676 c 0.38891,-0.69433 1.92638,-3.50776 3.41659,-6.25201 l 2.70948,-4.9895 2.4492,0 2.44921,0 2.54985,4.62887 c 1.40242,2.54588 2.94906,5.35923 3.43697,6.25193 l 0.88712,1.62313 -2.13829,0 -2.13831,0 -0.52571,-1.08206 -0.52571,-1.08206 -3.92282,0 -3.92282,0 -0.52571,1.08206 -0.52571,1.08206 -2.19024,0 -2.19023,0 0.70712,-1.26242 z"
           id="path3133" />
        <path
           inkscape:connector-curvature="0"
           style="fill:none;stroke:#ff0000;stroke-width:0.99000001;stroke-miterlimit:4;stroke-opacity:1;stroke-dasharray:none"
           d="m 538.39384,895.53574 c -0.66344,-1.22337 -1.24301,-2.2626 -1.28792,-2.30948 -0.0808,-0.0843 -2.27582,4.16776 -2.27582,4.40863 0,0.069 1.07326,0.12506 2.385,0.12506 l 2.38501,0 -1.20627,-2.22421 z"
           id="path3131" />
        <path
           inkscape:connector-curvature="0"
           style="fill:none;stroke:#ff0000;stroke-width:0.99000001;stroke-miterlimit:4;stroke-opacity:1;stroke-dasharray:none"
           d="m 566.74898,900.94605 c 0.48968,-0.8927 2.02959,-3.67903 3.42203,-6.19184 l 2.53169,-4.56878 2.49284,0 2.49283,0 3.3324,6.01156 c 1.8328,3.30628 3.33506,6.09269 3.33835,6.19184 0.003,0.0992 -0.94636,0.18035 -2.11029,0.18035 l -2.11622,0 -0.52572,-1.08206 -0.52572,-1.08206 -3.92281,0 -3.92281,0 -0.52572,1.08206 -0.52572,1.08206 -2.1627,0 -2.16273,0 0.8903,-1.62313 z"
           id="path3129" />
        <path
           inkscape:connector-curvature="0"
           style="fill:none;stroke:#ff0000;stroke-width:0.99000001;stroke-miterlimit:4;stroke-opacity:1;stroke-dasharray:none"
           d="m 576.54668,895.65592 c -0.62101,-1.15722 -1.20247,-2.18332 -1.29214,-2.28027 -0.0896,-0.0969 -0.67273,0.84995 -1.29572,2.10403 l -1.13272,2.28027 2.42483,0 2.42486,0 -1.12911,-2.10403 z"
           id="path3127" />
        <path
           inkscape:connector-curvature="0"
           style="fill:none;stroke:#ff0000;stroke-width:0.99000001;stroke-miterlimit:4;stroke-opacity:1;stroke-dasharray:none"
           d="m 589.6552,900.50092 0,-2.06835 -3.18736,-3.76285 c -1.75306,-2.06962 -3.33532,-3.95222 -3.51613,-4.18366 -0.30799,-0.3943 -0.18619,-0.42081 1.92873,-0.42081 l 2.25747,0 2.118,2.53948 c 1.69198,2.0288 2.18416,2.4847 2.44698,2.26655 0.18095,-0.15014 1.16819,-1.29297 2.19385,-2.53957 l 1.86487,-2.26646 2.25331,0 2.25332,0 -0.48746,0.66125 c -0.26812,0.36367 -1.78747,2.17616 -3.37635,4.02771 l -2.88884,3.36646 -0.007,2.22421 -0.007,2.2243 -1.92369,0 -1.92369,0 0,-2.06826 z"
           id="path3125" />
        <path
           inkscape:connector-curvature="0"
           style="fill:none;stroke:#ff0000;stroke-width:0.99000001;stroke-miterlimit:4;stroke-opacity:1;stroke-dasharray:none"
           d="m 627.22319,896.37735 0.0641,-6.19192 6.49245,0 c 6.11692,0 6.54109,0.0286 7.33353,0.49411 1.14458,0.67237 1.43561,1.36476 1.43976,3.42537 0.004,2.02787 -0.42444,3.09133 -1.33807,3.32067 l -0.61148,0.15343 0.74207,0.45127 c 0.92674,0.56363 1.21101,1.29406 1.21101,3.11178 l 0,1.42712 -1.92368,0 -1.92369,0 0,-1.09788 c 0,-2.02787 0,-2.02812 -4.09631,-2.02812 l -3.59844,0 0,1.56304 0,1.56296 -1.92775,0 -1.92773,0 0.0642,-6.19183 z"
           id="path3123" />
        <path
           inkscape:connector-curvature="0"
           style="fill:none;stroke:#ff0000;stroke-width:0.99000001;stroke-miterlimit:4;stroke-opacity:1;stroke-dasharray:none"
           d="m 638.57537,895.78275 c 0.51058,-0.72892 0.46992,-1.53409 -0.10659,-2.1106 -0.4367,-0.43671 -0.80153,-0.48098 -3.9676,-0.48098 l -3.48669,0 0,1.56304 0,1.56296 3.59329,0 c 3.44061,0 3.60917,-0.0227 3.9676,-0.53442 z"
           id="path3121" />
        <path
           inkscape:connector-curvature="0"
           style="fill:none;stroke:#ff0000;stroke-width:0.99000001;stroke-miterlimit:4;stroke-opacity:1;stroke-dasharray:none"
           d="m 645.44214,896.31717 0,-6.25192 1.92369,0 1.92369,0 0,6.25192 0,6.25201 -1.92369,0 -1.92369,0 0,-6.25201 z"
           id="path3119" />
        <path
           inkscape:connector-curvature="0"
           style="fill:none;stroke:#ff0000;stroke-width:0.99000001;stroke-miterlimit:4;stroke-opacity:1;stroke-dasharray:none"
           d="m 651.69413,901.06345 0,-1.50581 4.35148,-3.12306 4.35149,-3.12314 -4.23126,-0.0657 -4.23125,-0.0657 0,-1.56102 0,-1.56103 7.15372,0.064 7.15371,0.064 0.0702,1.44833 0.0702,1.44842 -4.4769,3.24063 -4.4769,3.24063 4.46685,0.0657 4.46683,0.0656 0,1.43747 0,1.43739 -7.33406,0 -7.33407,0 0,-1.50573 z"
           id="path3117" />
        <path
           inkscape:connector-curvature="0"
           style="fill:none;stroke:#ff0000;stroke-width:0.99000001;stroke-miterlimit:4;stroke-opacity:1;stroke-dasharray:none"
           d="m 668.34198,896.37735 0.0642,-6.19192 6.79302,-0.064 6.79303,-0.064 0,1.44648 0,1.44656 -4.92945,0 -4.92945,0 0,1.08206 0,1.08207 4.68898,0 4.68899,0 0,1.19711 0,1.19711 -4.62887,0.0656 -4.62887,0.0657 -0.074,1.02197 -0.074,1.02197 5.06351,0 5.0635,0 0,1.44278 0,1.44269 -6.97743,0 -6.97743,0 0.0642,-6.19183 z"
           id="path3115" />
      </g>
      <g
         transform="matrix(0,-1,1,0,-225.47855,1068.1571)"
         id="g3189"
         style="stroke:#000000;stroke-width:0.99000001;stroke-miterlimit:4;stroke-opacity:1;stroke-dasharray:none">
        <path
           inkscape:connector-curvature="0"
           style="fill:none;stroke:#ff0000;stroke-width:0.99000001;stroke-miterlimit:4;stroke-opacity:1;stroke-dasharray:none"
           d="m 486.69646,868.67194 c -0.75018,-0.0715 -1.42255,-0.18928 -1.49418,-0.2609 -0.0716,-0.0715 1.7055,-1.96357 3.94917,-4.20437 l 4.07939,-4.07408 -4.86723,-4.87159 -4.86724,-4.87152 -4.14157,4.13645 c -2.27786,2.27505 -4.20176,4.07636 -4.27534,4.00271 -0.0736,-0.0732 -0.20042,-0.99798 -0.28188,-2.05429 -0.29248,-3.79281 0.99637,-7.33062 3.724,-10.22207 2.78659,-2.95389 7.32607,-4.61886 11.10184,-4.07189 l 1.32253,0.19155 3.73685,-3.69309 3.73684,-3.69308 5.52091,4.35804 c 3.0365,2.397 5.56992,4.40585 5.62983,4.46426 0.0599,0.0581 -1.77838,1.99572 -4.08509,4.30527 l -4.19403,4.19915 0.0773,2.46492 c 0.13201,4.21076 -1.01273,7.22567 -3.80294,10.01587 -2.95801,2.95802 -6.66602,4.2812 -10.86913,3.87866 z"
           id="path3113" />
        <path
           inkscape:connector-curvature="0"
           style="fill:none;stroke:#ff0000;stroke-width:0.99000001;stroke-miterlimit:4;stroke-opacity:1;stroke-dasharray:none"
           d="m 580.11613,868.2975 c -3.69235,-0.99503 -7.03332,-3.67616 -8.68201,-6.96738 -1.12873,-2.25325 -1.71437,-5.77422 -1.30616,-7.85276 l 0.21993,-1.11976 -4.1735,-4.16843 c -2.29542,-2.29264 -4.14615,-4.23954 -4.11274,-4.32648 0.0334,-0.087 2.54953,-2.11531 5.59136,-4.50743 l 5.53061,-4.34929 3.54476,3.53856 3.54472,3.53857 2.94772,0.021 c 2.53368,0.0177 3.17126,0.10579 4.53944,0.62515 4.38261,1.66336 7.25607,4.68804 8.53341,8.98245 0.45057,1.51491 0.60357,5.74301 0.22965,6.34796 -0.14163,0.22917 -1.33226,-0.81586 -4.254,-3.73382 l -4.05733,-4.05203 -4.92908,4.9247 -4.92908,4.92462 4.11064,4.11565 4.11061,4.11566 -0.77438,0.15486 c -1.2912,0.25829 -4.36537,0.14375 -5.68457,-0.21175 z"
           id="path3111" />
        <path
           inkscape:connector-curvature="0"
           style="fill:none;stroke:#ff0000;stroke-width:0.99000001;stroke-miterlimit:4;stroke-opacity:1;stroke-dasharray:none"
           d="m 529.96515,849.40025 c -2.15598,-0.20796 -6.4587,-1.01263 -7.46956,-1.39699 -0.56266,-0.21394 -0.5676,-0.24794 -0.54897,-3.77354 l 0.0188,-3.55776 1.08208,-0.31392 c 6.19713,-1.79785 18.13179,-1.85382 24.89618,-0.11673 l 1.67476,0.43006 0.0663,3.6436 0.0663,3.64351 -0.90793,0.25392 c -4.49153,1.25611 -12.77016,1.77698 -18.87799,1.18785 z"
           id="path3109" />
        <path
           inkscape:connector-curvature="0"
           style="fill:none;stroke:#ff0000;stroke-width:0.99000001;stroke-miterlimit:4;stroke-opacity:1;stroke-dasharray:none"
           d="m 536.2644,847.03852 c 0.1369,-0.25585 0.24892,-1.60067 0.24892,-2.98857 0,-2.62567 -0.28152,-3.43294 -1.08903,-3.12306 -0.4763,0.1828 -0.52638,6.22651 -0.0532,6.41747 0.52207,0.21065 0.63811,0.17093 0.89328,-0.30584 z"
           id="path3107" />
        <path
           inkscape:connector-curvature="0"
           style="fill:none;stroke:#ff0000;stroke-width:0.99000001;stroke-miterlimit:4;stroke-opacity:1;stroke-dasharray:none"
           d="m 541.18264,847.35766 c 0.54715,-0.20999 0.56476,-5.89408 0.0197,-6.34653 -0.28776,-0.23876 -0.43362,-0.23876 -0.72138,0 -0.46587,0.38664 -0.5282,5.74789 -0.0721,6.20396 0.33722,0.33715 0.28959,0.32839 0.77386,0.14257 z"
           id="path3105" />
        <path
           inkscape:connector-curvature="0"
           style="fill:none;stroke:#ff0000;stroke-width:0.99000001;stroke-miterlimit:4;stroke-opacity:1;stroke-dasharray:none"
           d="m 531.17004,844.10541 c 0.0562,-2.54571 0.008,-3.06028 -0.30058,-3.17852 -0.95487,-0.36644 -1.08905,0.0126 -1.08905,3.07567 0,1.617 0.0767,3.01668 0.17045,3.11044 0.0937,0.0938 0.39132,0.13887 0.66127,0.10015 0.46035,-0.0656 0.49498,-0.25879 0.55791,-3.10774 z"
           id="path3103" />
        <path
           inkscape:connector-curvature="0"
           style="fill:none;stroke:#ff0000;stroke-width:0.99000001;stroke-miterlimit:4;stroke-opacity:1;stroke-dasharray:none"
           d="m 519.20012,843.70691 c -2.60503,-0.30139 -7.9185,-1.34431 -8.37576,-1.64384 -0.31044,-0.20342 -3.3024,-2.52745 -6.6488,-5.1644 -5.26516,-4.14907 -6.10355,-4.89911 -6.22681,-5.57106 -0.24361,-1.32789 -1.07588,-9.95452 -1.37405,-14.24229 -0.3952,-5.68316 -0.40571,-16.72572 -0.0188,-19.71782 0.45956,-3.55346 1.38914,-7.99179 2.22945,-10.64439 2.00664,-6.33441 6.30038,-12.94881 11.1387,-17.15882 10.72164,-9.32945 24.96327,-12.21021 38.37181,-7.76178 9.23844,3.06491 16.51866,9.12393 21.54304,17.92923 2.5323,4.43791 3.97275,8.86598 4.93534,15.17168 1.10874,7.26288 0.78213,21.90072 -0.77659,34.80611 l -0.27593,2.28439 -6.25493,4.92941 c -3.44019,2.71118 -6.48289,5.0528 -6.76152,5.20361 -0.46412,0.25106 -7.47687,1.5293 -8.39052,1.5293 -0.33121,0 -0.40493,-0.35053 -0.46307,-2.20191 l -0.0692,-2.20192 -1.32253,-0.44992 c -4.69974,-1.5989 -13.79976,-2.31638 -20.71428,-1.63307 -3.03268,0.29961 -7.02722,1.05976 -8.56629,1.63004 l -1.13774,0.42156 -0.12024,2.27774 c -0.11932,2.26049 -0.12478,2.27716 -0.72138,2.20815 z"
           id="path3101" />
        <path
           inkscape:connector-curvature="0"
           style="fill:none;stroke:#ff0000;stroke-width:0.99000001;stroke-miterlimit:4;stroke-opacity:1;stroke-dasharray:none"
           d="m 546.25956,833.11697 c 3.53133,-0.54587 7.7658,-1.46029 10.66283,-2.30249 1.77676,-0.51658 2.32849,-0.84978 6.26218,-3.78137 l 4.31375,-3.21488 0.50401,-1.84153 c 1.42617,-5.21094 2.14537,-9.8627 2.33966,-15.13297 0.30623,-8.30731 -1.12685,-14.57952 -4.81631,-21.07972 -3.7868,-6.67173 -9.46825,-12.20323 -15.37724,-14.9713 -4.65743,-2.1818 -8.43554,-2.98268 -13.99582,-2.9666 -5.45893,0.016 -9.47581,0.92215 -13.94673,3.14713 -7.04734,3.50717 -13.48624,10.51932 -17.5508,19.11346 -3.83565,8.11013 -4.21628,18.8359 -1.08754,30.6455 l 0.77506,2.92545 4.29814,3.26277 c 4.18147,3.17414 4.36291,3.28196 6.68444,3.97166 3.84984,1.14367 9.48968,2.19164 14.81592,2.753 0.52901,0.0555 3.66702,0.069 6.97336,0.0286 4.53302,-0.0547 6.78222,-0.19163 9.14509,-0.55689 z"
           id="path3099" />
        <path
           inkscape:connector-curvature="0"
           style="fill:none;stroke:#ff0000;stroke-width:0.99000001;stroke-miterlimit:4;stroke-opacity:1;stroke-dasharray:none"
           d="m 533.74802,831.71383 c -1.36282,-0.22505 -2.42116,-1.63509 -2.59042,-3.45104 -0.11008,-1.18103 -0.655,-1.64299 -0.65715,-0.55714 -0.003,1.05664 -0.42096,2.29651 -1.03269,3.05665 l -0.55697,0.69223 -3.3247,-0.53182 c -1.82861,-0.29246 -3.46255,-0.58467 -3.63101,-0.6493 -0.80615,-0.30938 -1.19796,-3.27682 -0.58411,-4.42378 0.2485,-0.46431 0.10174,-0.67312 -1.52895,-2.17573 -4.30326,-3.96518 -7.27916,-9.42002 -8.50814,-15.59552 -0.562,-2.82404 -0.55038,-8.55955 0.0228,-11.25633 1.23047,-5.78895 3.58048,-10.37937 7.31428,-14.28748 2.31847,-2.42671 4.4401,-3.98765 7.2741,-5.35166 3.61613,-1.74037 5.44674,-2.13786 9.84686,-2.13786 3.078,0 4.06219,0.0911 5.65084,0.52331 7.28742,1.98217 13.62338,7.66172 16.83252,15.08853 4.78386,11.07118 2.33969,24.20009 -6.05618,32.53089 -2.11924,2.10286 -2.25672,2.29777 -2.03544,2.88556 0.65153,1.73086 0.45741,3.63408 -0.41846,4.10286 -0.24092,0.12894 -1.88741,0.44681 -3.65886,0.70628 l -3.22082,0.47181 -0.53405,-0.49705 c -0.58598,-0.54537 -0.97408,-1.53233 -1.1132,-2.83094 -0.0577,-0.53846 -0.232,-0.86964 -0.48388,-0.91938 -0.31414,-0.0623 -0.39371,0.12498 -0.39371,0.92552 0,1.152 -0.50279,2.3497 -1.30131,3.09992 -0.45467,0.42712 -0.91124,0.53543 -2.5714,0.61 -1.11023,0.0497 -2.34321,0.037 -2.73996,-0.0286 z"
           id="path3097" />
        <path
           inkscape:connector-curvature="0"
           style="fill:none;stroke:#ff0000;stroke-width:0.99000001;stroke-miterlimit:4;stroke-opacity:1;stroke-dasharray:none"
           d="m 534.46001,817.23379 c 0.48574,-1.46239 1.16162,-2.15218 1.68404,-1.71858 0.19862,0.16479 0.54503,0.88311 0.76981,1.59612 0.43974,1.39506 0.64413,1.55943 1.03377,0.83143 0.58514,-1.09334 -0.11375,-5.55818 -1.14694,-7.32725 -0.91273,-1.5628 -2.03759,-0.51987 -2.9045,2.69299 -0.9544,3.53713 -0.45713,6.99911 0.56383,3.92529 z"
           id="path3095" />
        <path
           inkscape:connector-curvature="0"
           style="fill:none;stroke:#ff0000;stroke-width:0.99000001;stroke-miterlimit:4;stroke-opacity:1;stroke-dasharray:none"
           d="m 522.69584,808.72381 c 0.22756,-1.65461 0.90445,-2.2753 3.69584,-3.38909 2.82209,-1.126 4.21648,-2.07273 4.83305,-3.28129 0.86363,-1.69282 0.63475,-2.49159 -1.29172,-4.50785 -1.86322,-1.9501 -5.25468,-2.57096 -7.72712,-1.4145 -1.49256,0.69812 -3.09618,2.41358 -3.90229,4.17432 -0.5551,1.21252 -0.60016,1.53671 -0.47726,3.43362 0.0747,1.15208 0.31135,2.51625 0.52603,3.03149 0.69865,1.67683 3.00274,3.63459 3.88095,3.29761 0.16121,-0.0614 0.36934,-0.66681 0.46252,-1.34431 z"
           id="path3093" />
        <path
           inkscape:connector-curvature="0"
           style="fill:none;stroke:#ff0000;stroke-width:0.99000001;stroke-miterlimit:4;stroke-opacity:1;stroke-dasharray:none"
           d="m 551.79522,808.73181 c 1.59238,-1.59293 2.12538,-3.18004 1.98688,-5.91629 -0.1177,-2.32589 -0.60217,-3.34912 -2.46937,-5.21557 -1.61798,-1.61733 -2.59597,-2.03342 -4.77905,-2.03342 -2.08338,0 -3.76424,0.74702 -5.18934,2.30627 -1.50057,1.64191 -1.744,2.60598 -1.02941,4.07678 0.61659,1.26915 1.95501,2.22304 4.50631,3.21168 1.05142,0.40751 2.26986,0.96054 2.70764,1.22918 0.82203,0.50429 1.48841,1.71958 1.48841,2.71437 0,0.72084 0.17403,0.88942 0.91828,0.88942 0.40044,0 1.01413,-0.4166 1.85965,-1.26242 z"
           id="path3091" />
        <path
           inkscape:connector-curvature="0"
           style="fill:none;stroke:#ff0000;stroke-width:0.99000001;stroke-miterlimit:4;stroke-opacity:1;stroke-dasharray:none"
           d="m 495.55701,773.48646 -4.52171,-4.52644 -1.36721,0.19348 c -2.3023,0.32571 -4.89445,-0.15006 -7.39436,-1.35718 -4.93809,-2.38446 -7.89547,-7.50375 -7.47615,-12.94141 0.0815,-1.05631 0.2083,-1.98074 0.28188,-2.05429 0.0736,-0.0732 1.99748,1.72766 4.27534,4.00271 l 4.14157,4.13653 4.86724,-4.8716 4.86723,-4.87159 -4.08366,-4.07838 c -3.15793,-3.15377 -4.00205,-4.12399 -3.72364,-4.27977 0.60846,-0.34052 4.70993,-0.21932 6.22421,0.18398 4.38737,1.16841 8.22581,5.00591 9.40311,9.4009 0.38054,1.42056 0.52701,5.63949 0.21342,6.1469 -0.0897,0.14518 1.672,2.09385 4.00322,4.42789 l 4.16347,4.1686 -2.18717,2.16227 c -2.15463,2.13021 -4.15886,4.58823 -5.95323,7.30117 -0.50297,0.76048 -0.9814,1.38268 -1.06317,1.38268 -0.0818,0 -2.18345,-2.03695 -4.67039,-4.52645 z"
           id="path3089" />
        <path
           inkscape:connector-curvature="0"
           style="fill:none;stroke:#ff0000;stroke-width:0.99000001;stroke-miterlimit:4;stroke-opacity:1;stroke-dasharray:none"
           d="m 570.25328,776.38767 c -1.45083,-2.33631 -3.8048,-5.18425 -6.08465,-7.36142 l -1.9823,-1.89296 4.07307,-4.11852 4.07304,-4.11852 -0.18695,-1.44277 c -0.52301,-4.03613 1.21701,-8.67401 4.28972,-11.43383 2.49483,-2.24079 5.51748,-3.38219 8.96799,-3.38648 3.65915,-0.008 3.69474,-0.17009 -0.96403,4.48268 l -4.08615,4.08082 4.85471,4.85905 4.8547,4.85906 4.21465,-4.1234 4.21466,-4.1234 0.20819,0.94993 c 0.32019,1.46129 0.0338,4.84963 -0.55232,6.5342 -0.92235,2.651 -2.88782,5.2159 -5.24878,6.84972 -2.37385,1.64266 -6.07488,2.54563 -8.86246,2.16202 l -1.48703,-0.20459 -4.52211,4.52678 c -2.48714,2.48975 -4.57727,4.52595 -4.6447,4.52477 -0.0674,-8.4e-4 -0.57559,-0.73153 -1.12925,-1.62314 z"
           id="path3800" />
      </g>
    </g>
  </g>
</svg>
