<?xml version="1.0" encoding="UTF-8" standalone="no"?>
<!-- Created with Inkscape (http://www.inkscape.org/) -->

<svg
   xmlns:dc="http://purl.org/dc/elements/1.1/"
   xmlns:cc="http://creativecommons.org/ns#"
   xmlns:rdf="http://www.w3.org/1999/02/22-rdf-syntax-ns#"
   xmlns:svg="http://www.w3.org/2000/svg"
   xmlns="http://www.w3.org/2000/svg"
   xmlns:sodipodi="http://sodipodi.sourceforge.net/DTD/sodipodi-0.dtd"
   xmlns:inkscape="http://www.inkscape.org/namespaces/inkscape"
   width="490.15002"
   height="1354.5"
   id="svg3373"
   version="1.1"
   inkscape:version="0.48.3.1 r9886"
   sodipodi:docname="New document 1">
  <defs
     id="defs3375">
    <symbol
       id="*Paper_Space0" />
    <symbol
       id="*Paper_Space" />
    <symbol
       id="*Model_Space" />
    <pattern
       id="Hatch"
       x="0"
       y="0"
       patternUnits="userSpaceOnUse"
       width="8"
       height="8">
      <path
         id="path2992"
         d="M8 4 l-4,4"
         stroke-width="0.25"
         stroke="#000000"
         linecap="square" />
      <path
         id="path2994"
         d="M6 2 l-4,4"
         stroke-width="0.25"
         stroke="#000000"
         linecap="square" />
      <path
         id="path2996"
         d="M4 0 l-4,4"
         stroke-width="0.25"
         stroke="#000000"
         linecap="square" />
    </pattern>
    <marker
       orient="auto"
       id="DistanceX"
       style="overflow:visible"
       refX="0"
       refY="0">
      <path
         id="path2989"
         d="M 3,-3 -3,3 M 0,-5 0,5"
         style="stroke:#000000;stroke-width:0.5"
         inkscape:connector-curvature="0" />
    </marker>
  </defs>
  <sodipodi:namedview
     id="base"
     pagecolor="#ffffff"
     bordercolor="#666666"
     borderopacity="1.0"
     inkscape:pageopacity="0.0"
     inkscape:pageshadow="2"
     inkscape:zoom="0.75"
     inkscape:cx="499.07501"
     inkscape:cy="855.16664"
     inkscape:document-units="in"
     inkscape:current-layer="layer1"
     showgrid="false"
     units="in"
     fit-margin-top="0.25"
     fit-margin-left="0.25"
     fit-margin-right="0.25"
     fit-margin-bottom="0.25"
     inkscape:window-width="1920"
     inkscape:window-height="1018"
     inkscape:window-x="-8"
     inkscape:window-y="-8"
     inkscape:window-maximized="1" />
  <metadata
     id="metadata3378">
    <rdf:RDF>
      <cc:Work
         rdf:about="">
        <dc:format>image/svg+xml</dc:format>
        <dc:type
           rdf:resource="http://purl.org/dc/dcmitype/StillImage" />
        <dc:title></dc:title>
      </cc:Work>
    </rdf:RDF>
  </metadata>
  <g
     inkscape:label="Layer 1"
     inkscape:groupmode="layer"
     id="layer1"
     transform="translate(-294.92499,-259.6953)">
    <g
       id="g3878"
       transform="matrix(0,-1,1,0,-432.36199,2047.6953)">
      <path
         inkscape:connector-curvature="0"
         style="fill:none;stroke:#0000ff;stroke-opacity:1"
         d="m 736.625,1018.712 a 5.625,5.625 0 1 0 -11.25,0 5.625,5.625 0 0 0 11.25,0 z"
         id="path3003" />
      <path
         inkscape:connector-curvature="0"
         style="fill:none;stroke:#0000ff;stroke-opacity:1"
         d="m 736.625,926.01198 a 5.625,5.625 0 1 0 -11.25,0 5.625,5.625 0 0 0 11.25,0 z"
         id="path3005" />
      <path
         inkscape:connector-curvature="0"
         style="fill:none;stroke:#0000ff;stroke-opacity:1"
         d="m 768.125,1003.862 a 5.625,5.625 0 1 0 -11.25,0 5.625,5.625 0 0 0 11.25,0 z"
         id="path3007" />
      <path
         inkscape:connector-curvature="0"
         style="fill:none;stroke:#0000ff;stroke-opacity:1"
         d="m 768.125,940.86198 a 5.625,5.625 0 1 0 -11.25,0 5.625,5.625 0 0 0 11.25,0 z"
         id="path3009" />
      <path
         inkscape:connector-curvature="0"
         style="fill:none;stroke:#0000ff;stroke-opacity:1"
         d="m 831.125,1003.862 a 5.625,5.625 0 1 0 -11.25,0 5.625,5.625 0 0 0 11.25,0 z"
         id="path3011" />
      <path
         inkscape:connector-curvature="0"
         style="fill:none;stroke:#0000ff;stroke-opacity:1"
         d="m 831.125,940.86198 a 5.625,5.625 0 1 0 -11.25,0 5.625,5.625 0 0 0 11.25,0 z"
         id="path3013" />
      <path
         inkscape:connector-curvature="0"
         style="fill:none;stroke:#000000;stroke-opacity:1"
         d="m 524,784.03698 a 33.75,33.75 0 1 0 -33.75,33.75"
         id="path3015" />
      <path
         inkscape:connector-curvature="0"
         style="fill:none;stroke:#000000;stroke-opacity:1"
         d="m 490.25,1126.937 a 33.75,33.75 0 1 0 33.75,33.75"
         id="path3017" />
      <path
         inkscape:connector-curvature="0"
         style="fill:none;stroke:#000000;stroke-opacity:1"
         d="m 1064,1160.687 a 33.75,33.75 0 1 0 33.75,-33.75"
         id="path3019" />
      <path
         inkscape:connector-curvature="0"
         style="fill:none;stroke:#000000;stroke-opacity:1"
         d="m 1097.75,817.78698 a 33.75,33.75 0 1 0 -33.75,-33.75"
         id="path3021" />
      <path
         inkscape:connector-curvature="0"
         style="fill:none;stroke:#0000ff;stroke-opacity:1"
         d="m 574.625,926.01198 a 5.625,5.625 0 1 0 -11.25,0 5.625,5.625 0 0 0 11.25,0 z"
         id="path3023" />
      <path
         inkscape:connector-curvature="0"
         style="fill:none;stroke:#0000ff;stroke-opacity:1"
         d="m 574.625,1018.712 a 5.625,5.625 0 1 0 -11.25,0 5.625,5.625 0 0 0 11.25,0 z"
         id="path3025" />
      <path
         inkscape:connector-curvature="0"
         style="fill:none;stroke:#000000;stroke-opacity:1"
         d="m 1097.75,817.78698 c -61.875,51.525 -123.75,103.05 -123.75,154.575 0,51.52502 61.875,103.05002 123.75,154.57502"
         id="path3027" />
      <path
         inkscape:connector-curvature="0"
         style="fill:none;stroke:#000000;stroke-opacity:1"
         d="m 1064,1160.687 c -90,-55.0125 -180,-110.025 -270,-110.025 -90,0 -180,55.0125 -270,110.025"
         id="path3029" />
      <path
         inkscape:connector-curvature="0"
         style="fill:none;stroke:#000000;stroke-opacity:1"
         d="m 490.25,1126.937 c 28.125,-51.525 56.25,-103.05 56.25,-154.57502 0,-51.525 -28.125,-103.05 -56.25,-154.575"
         id="path3031" />
      <path
         inkscape:connector-curvature="0"
         style="fill:none;stroke:#000000;stroke-opacity:1"
         d="m 524,784.03698 c 90,55.0125 180,110.025 270,110.025 90,0 180,-55.0125 270,-110.025"
         id="path3033" />
    </g>
    <g
       transform="matrix(0,-1,1,0,-452.36199,1477.6953)"
       id="g4812">
      <path
         inkscape:connector-curvature="0"
         style="fill:none;stroke:#0000ff;stroke-opacity:1"
         d="m 914.38073,1022.737 a 4.05,4.05 0 1 0 -8.1,0 4.05,4.05 0 0 0 8.1,0 z"
         id="path3922" />
      <path
         inkscape:connector-curvature="0"
         style="fill:none;stroke:#0000ff;stroke-opacity:1"
         d="m 853.71927,961.98698 a 4.05,4.05 0 1 0 -8.1,0 4.05,4.05 0 1 0 8.1,0 z"
         id="path3924" />
      <path
         inkscape:connector-curvature="0"
         style="fill:none;stroke:#0000ff;stroke-opacity:1"
         d="m 914.38073,992.36198 a 4.05,4.05 0 1 0 -8.1,0 4.05,4.05 0 0 0 8.1,0 z"
         id="path3926" />
      <path
         inkscape:connector-curvature="0"
         style="fill:none;stroke:#0000ff;stroke-opacity:1"
         d="m 853.71927,992.36198 a 4.05,4.05 0 1 0 -8.1,0 4.05,4.05 0 1 0 8.1,0 z"
         id="path3928" />
      <path
         inkscape:connector-curvature="0"
         style="fill:none;stroke:#0000ff;stroke-opacity:1"
         d="m 768.85,1118.812 a 4.05,4.05 0 1 0 -8.1,0 4.05,4.05 0 1 0 8.1,0 z"
         id="path3930" />
      <path
         inkscape:connector-curvature="0"
         style="fill:none;stroke:#0000ff;stroke-opacity:1"
         d="m 768.85,865.91198 a 4.05,4.05 0 1 0 -8.1,0 4.05,4.05 0 1 0 8.1,0 z"
         id="path3932" />
      <path
         inkscape:connector-curvature="0"
         style="fill:none;stroke:#0000ff;stroke-opacity:1"
         d="m 999.25,865.91198 a 4.05,4.05 0 1 0 -8.1,0 4.05,4.05 0 0 0 8.1,0 z"
         id="path3934" />
      <path
         inkscape:connector-curvature="0"
         style="fill:none;stroke:#0000ff;stroke-opacity:1"
         d="m 1187.8,1180.687 a 4.05,4.05 0 1 0 -8.1,0 4.05,4.05 0 0 0 8.1,0 z"
         id="path3936" />
      <path
         inkscape:connector-curvature="0"
         style="fill:none;stroke:#0000ff;stroke-opacity:1"
         d="m 580.3,1180.687 a 4.05,4.05 0 1 0 -8.1,0 4.05,4.05 0 0 0 8.1,0 z"
         id="path3938" />
      <path
         inkscape:connector-curvature="0"
         style="fill:none;stroke:#0000ff;stroke-opacity:1"
         d="m 580.3,804.03698 a 4.05,4.05 0 1 0 -8.1,0 4.05,4.05 0 0 0 8.1,0 z"
         id="path3940" />
      <path
         inkscape:connector-curvature="0"
         style="fill:none;stroke:#0000ff;stroke-opacity:1"
         d="m 1187.8,804.03698 a 4.05,4.05 0 1 0 -8.1,0 4.05,4.05 0 0 0 8.1,0 z"
         id="path3942" />
      <path
         inkscape:connector-curvature="0"
         style="fill:none;stroke:#0000ff;stroke-opacity:1"
         d="m 999.25,1118.812 a 4.05,4.05 0 1 0 -8.1,0 4.05,4.05 0 0 0 8.1,0 z"
         id="path3944" />
      <path
         inkscape:connector-curvature="0"
         style="fill:none;stroke:#000000;stroke-opacity:1"
         d="m 972.86259,1132.312 a 26.1,26.1 0 0 0 47.67831,-19.749"
         id="path3946" />
      <path
         inkscape:connector-curvature="0"
         style="fill:none;stroke:#000000;stroke-opacity:1"
         d="m 1020.5409,872.16098 a 26.1,26.1 0 0 0 -47.67831,-19.749"
         id="path3948" />
      <path
         inkscape:connector-curvature="0"
         style="fill:none;stroke:#000000;stroke-opacity:1"
         d="m 787.13741,852.41198 a 26.1,26.1 0 0 0 -47.67829,19.749"
         id="path3950" />
      <path
         inkscape:connector-curvature="0"
         style="fill:none;stroke:#000000;stroke-opacity:1"
         d="m 739.45912,1112.563 a 26.1,26.1 0 0 0 47.67829,19.749"
         id="path3952" />
      <path
         inkscape:connector-curvature="0"
         style="fill:none;stroke:#0000ff;stroke-opacity:1"
         d="m 884.05,992.36198 a 4.05,4.05 0 1 0 -8.1,0 4.05,4.05 0 0 0 8.1,0 z"
         id="path3954" />
      <path
         inkscape:connector-curvature="0"
         style="fill:none;stroke:#0000ff;stroke-opacity:1"
         d="m 853.71927,1022.737 a 4.05,4.05 0 1 0 -8.1,0 4.05,4.05 0 1 0 8.1,0 z"
         id="path3956" />
      <path
         inkscape:connector-curvature="0"
         style="fill:none;stroke:#0000ff;stroke-opacity:1"
         d="m 914.38073,961.98698 a 4.05,4.05 0 1 0 -8.1,0 4.05,4.05 0 0 0 8.1,0 z"
         id="path3958" />
      <path
         inkscape:connector-curvature="0"
         style="fill:none;stroke:#000000;stroke-opacity:1"
         d="m 739.45912,1112.563 -12.23899,-12.239"
         id="path3960" />
      <path
         inkscape:connector-curvature="0"
         style="fill:none;stroke:#000000;stroke-opacity:1"
         d="M 727.22013,1100.324 610,1169.437"
         id="path3962" />
      <path
         inkscape:connector-curvature="0"
         style="fill:none;stroke:#000000;stroke-opacity:1"
         d="m 610,1169.437 0,22.5"
         id="path3964" />
      <path
         inkscape:connector-curvature="0"
         style="fill:none;stroke:#000000;stroke-opacity:1"
         d="m 610,1191.937 -45,0"
         id="path3966" />
      <path
         inkscape:connector-curvature="0"
         style="fill:none;stroke:#000000;stroke-opacity:1"
         d="m 565,1191.937 0,-45"
         id="path3968" />
      <path
         inkscape:connector-curvature="0"
         style="fill:none;stroke:#000000;stroke-opacity:1"
         d="m 565,1146.937 22.5,0"
         id="path3970" />
      <path
         inkscape:connector-curvature="0"
         style="fill:none;stroke:#000000;stroke-opacity:1"
         d="M 587.5,1146.937 835,1001.011"
         id="path3972" />
      <path
         inkscape:connector-curvature="0"
         style="fill:none;stroke:#000000;stroke-opacity:1"
         d="m 835,1001.011 0,-17.29802"
         id="path3974" />
      <path
         inkscape:connector-curvature="0"
         style="fill:none;stroke:#000000;stroke-opacity:1"
         d="M 835,983.71298 587.5,837.78698"
         id="path3976" />
      <path
         inkscape:connector-curvature="0"
         style="fill:none;stroke:#000000;stroke-opacity:1"
         d="m 587.5,837.78698 -22.5,0"
         id="path3978" />
      <path
         inkscape:connector-curvature="0"
         style="fill:none;stroke:#000000;stroke-opacity:1"
         d="m 565,837.78698 0,-45"
         id="path3980" />
      <path
         inkscape:connector-curvature="0"
         style="fill:none;stroke:#000000;stroke-opacity:1"
         d="m 565,792.78698 45,0"
         id="path3982" />
      <path
         inkscape:connector-curvature="0"
         style="fill:none;stroke:#000000;stroke-opacity:1"
         d="m 610,792.78698 0,22.5"
         id="path3984" />
      <path
         inkscape:connector-curvature="0"
         style="fill:none;stroke:#000000;stroke-opacity:1"
         d="m 610,815.28698 117.22013,69.113"
         id="path3986" />
      <path
         inkscape:connector-curvature="0"
         style="fill:none;stroke:#000000;stroke-opacity:1"
         d="m 727.22013,884.39998 12.23899,-12.239"
         id="path3988" />
      <path
         inkscape:connector-curvature="0"
         style="fill:none;stroke:#000000;stroke-opacity:1"
         d="m 787.13741,852.41198 185.72518,0"
         id="path3990" />
      <path
         inkscape:connector-curvature="0"
         style="fill:none;stroke:#000000;stroke-opacity:1"
         d="m 1020.5409,872.16098 12.239,12.239"
         id="path3992" />
      <path
         inkscape:connector-curvature="0"
         style="fill:none;stroke:#000000;stroke-opacity:1"
         d="M 1032.7799,884.39998 1150,815.28698"
         id="path3994" />
      <path
         inkscape:connector-curvature="0"
         style="fill:none;stroke:#000000;stroke-opacity:1"
         d="m 1150,815.28698 0,-22.5"
         id="path3996" />
      <path
         inkscape:connector-curvature="0"
         style="fill:none;stroke:#000000;stroke-opacity:1"
         d="m 1150,792.78698 45,0"
         id="path3998" />
      <path
         inkscape:connector-curvature="0"
         style="fill:none;stroke:#000000;stroke-opacity:1"
         d="m 1195,792.78698 0,45"
         id="path4000" />
      <path
         inkscape:connector-curvature="0"
         style="fill:none;stroke:#000000;stroke-opacity:1"
         d="m 1195,837.78698 -22.5,0"
         id="path4002" />
      <path
         inkscape:connector-curvature="0"
         style="fill:none;stroke:#000000;stroke-opacity:1"
         d="M 1172.5,837.78698 925,983.71298"
         id="path4004" />
      <path
         inkscape:connector-curvature="0"
         style="fill:none;stroke:#000000;stroke-opacity:1"
         d="m 925,983.71298 0,17.29802"
         id="path4006" />
      <path
         inkscape:connector-curvature="0"
         style="fill:none;stroke:#000000;stroke-opacity:1"
         d="m 925,1001.011 247.5,145.926"
         id="path4008" />
      <path
         inkscape:connector-curvature="0"
         style="fill:none;stroke:#000000;stroke-opacity:1"
         d="m 1172.5,1146.937 22.5,0"
         id="path4010" />
      <path
         inkscape:connector-curvature="0"
         style="fill:none;stroke:#000000;stroke-opacity:1"
         d="m 1195,1146.937 0,45"
         id="path4012" />
      <path
         inkscape:connector-curvature="0"
         style="fill:none;stroke:#000000;stroke-opacity:1"
         d="m 1195,1191.937 -45,0"
         id="path4014" />
      <path
         inkscape:connector-curvature="0"
         style="fill:none;stroke:#000000;stroke-opacity:1"
         d="m 1150,1191.937 0,-22.5"
         id="path4016" />
      <path
         inkscape:connector-curvature="0"
         style="fill:none;stroke:#000000;stroke-opacity:1"
         d="m 1150,1169.437 -117.2201,-69.113"
         id="path4018" />
      <path
         inkscape:connector-curvature="0"
         style="fill:none;stroke:#000000;stroke-opacity:1"
         d="m 1032.7799,1100.324 -12.239,12.239"
         id="path4020" />
      <path
         inkscape:connector-curvature="0"
         style="fill:none;stroke:#000000;stroke-opacity:1"
         d="m 972.86259,1132.312 -185.72518,0"
         id="path4022" />
      <path
         inkscape:connector-curvature="0"
         style="fill:none;stroke:#000000;stroke-opacity:1"
         d="m 925,1036.777 0,0.585"
         id="path4024" />
      <path
         inkscape:connector-curvature="0"
         style="fill:none;stroke:#000000;stroke-opacity:1"
         d="m 925,1037.362 -90,0"
         id="path4026" />
      <path
         inkscape:connector-curvature="0"
         style="fill:none;stroke:#000000;stroke-opacity:1"
         d="m 835,1037.362 0,-0.585"
         id="path4028" />
      <path
         inkscape:connector-curvature="0"
         style="fill:none;stroke:#000000;stroke-opacity:1"
         d="m 835,1036.777 -83.75888,49.3842"
         id="path4030" />
      <path
         inkscape:connector-curvature="0"
         style="fill:none;stroke:#000000;stroke-opacity:1"
         d="m 751.24112,1086.1612 7.30989,7.3099"
         id="path4032" />
      <path
         inkscape:connector-curvature="0"
         style="fill:none;stroke:#000000;stroke-opacity:1"
         d="m 787.13741,1105.312 a 26.1,26.1 0 0 0 -28.5864,-11.8409"
         id="path4034" />
      <path
         inkscape:connector-curvature="0"
         style="fill:none;stroke:#000000;stroke-opacity:1"
         d="m 787.13741,1105.312 185.72518,0"
         id="path4036" />
      <path
         inkscape:connector-curvature="0"
         style="fill:none;stroke:#000000;stroke-opacity:1"
         d="m 1001.449,1093.4711 a 26.1,26.1 0 0 0 -28.58641,11.8409"
         id="path4038" />
      <path
         inkscape:connector-curvature="0"
         style="fill:none;stroke:#000000;stroke-opacity:1"
         d="m 1001.449,1093.4711 7.3099,-7.3099"
         id="path4040" />
      <path
         inkscape:connector-curvature="0"
         style="fill:none;stroke:#000000;stroke-opacity:1"
         d="M 1008.7589,1086.1612 925,1036.777"
         id="path4042" />
      <path
         inkscape:connector-curvature="0"
         style="fill:none;stroke:#000000;stroke-opacity:1"
         d="m 758.55101,891.25288 a 26.1,26.1 0 0 0 28.5864,-11.8409"
         id="path4044" />
      <path
         inkscape:connector-curvature="0"
         style="fill:none;stroke:#000000;stroke-opacity:1"
         d="m 758.55101,891.25288 -7.30989,7.3099"
         id="path4046" />
      <path
         inkscape:connector-curvature="0"
         style="fill:none;stroke:#000000;stroke-opacity:1"
         d="M 751.24112,898.56278 835,947.94698"
         id="path4048" />
      <path
         inkscape:connector-curvature="0"
         style="fill:none;stroke:#000000;stroke-opacity:1"
         d="m 835,947.94698 0,-0.585"
         id="path4050" />
      <path
         inkscape:connector-curvature="0"
         style="fill:none;stroke:#000000;stroke-opacity:1"
         d="m 835,947.36198 90,0"
         id="path4052" />
      <path
         inkscape:connector-curvature="0"
         style="fill:none;stroke:#000000;stroke-opacity:1"
         d="m 925,947.36198 0,0.585"
         id="path4054" />
      <path
         inkscape:connector-curvature="0"
         style="fill:none;stroke:#000000;stroke-opacity:1"
         d="m 925,947.94698 83.7589,-49.3842"
         id="path4056" />
      <path
         inkscape:connector-curvature="0"
         style="fill:none;stroke:#000000;stroke-opacity:1"
         d="m 1008.7589,898.56278 -7.3099,-7.3099"
         id="path4058" />
      <path
         inkscape:connector-curvature="0"
         style="fill:none;stroke:#000000;stroke-opacity:1"
         d="m 972.86259,879.41198 a 26.1,26.1 0 0 0 28.58641,11.8409"
         id="path4060" />
      <path
         inkscape:connector-curvature="0"
         style="fill:none;stroke:#000000;stroke-opacity:1"
         d="m 972.86259,879.41198 -185.72518,0"
         id="path4062" />
    </g>
  </g>
</svg>
