<?xml version="1.0" encoding="UTF-8" standalone="no"?>
<!-- Created with Inkscape (http://www.inkscape.org/) -->

<svg
   xmlns:dc="http://purl.org/dc/elements/1.1/"
   xmlns:cc="http://creativecommons.org/ns#"
   xmlns:rdf="http://www.w3.org/1999/02/22-rdf-syntax-ns#"
   xmlns:svg="http://www.w3.org/2000/svg"
   xmlns="http://www.w3.org/2000/svg"
   xmlns:sodipodi="http://sodipodi.sourceforge.net/DTD/sodipodi-0.dtd"
   xmlns:inkscape="http://www.inkscape.org/namespaces/inkscape"
   width="490.14999"
   height="1353.3326"
   id="svg4902"
   version="1.1"
   inkscape:version="0.48.4 r9939"
   sodipodi:docname="New document 6">
  <defs
     id="defs4904">
    <symbol
       id="*PAPER_SPACE" />
    <symbol
       id="*MODEL_SPACE" />
    <pattern
       id="Hatch"
       x="0"
       y="0"
       patternUnits="userSpaceOnUse"
       width="8"
       height="8">
      <path
         id="path4920"
         d="M8 4 l-4,4"
         stroke-width="0.25"
         stroke="#000000"
         linecap="square" />
      <path
         id="path4922"
         d="M6 2 l-4,4"
         stroke-width="0.25"
         stroke="#000000"
         linecap="square" />
      <path
         id="path4924"
         d="M4 0 l-4,4"
         stroke-width="0.25"
         stroke="#000000"
         linecap="square" />
    </pattern>
    <marker
       orient="auto"
       id="DistanceX"
       style="overflow:visible"
       refX="0"
       refY="0">
      <path
         id="path4917"
         d="M 3,-3 -3,3 M 0,-5 0,5"
         style="stroke:#000000;stroke-width:0.5"
         inkscape:connector-curvature="0" />
    </marker>
  </defs>
  <sodipodi:namedview
     id="base"
     pagecolor="#ffffff"
     bordercolor="#666666"
     borderopacity="1.0"
     inkscape:pageopacity="0.0"
     inkscape:pageshadow="2"
     inkscape:zoom="0.98994949"
     inkscape:cx="331.84697"
     inkscape:cy="827.72323"
     inkscape:document-units="in"
     inkscape:current-layer="layer1"
     showgrid="false"
     units="in"
     fit-margin-top="0.25"
     fit-margin-left="0.25"
     fit-margin-right="0.25"
     fit-margin-bottom="0.25"
     inkscape:window-width="1920"
     inkscape:window-height="1028"
     inkscape:window-x="-8"
     inkscape:window-y="-8"
     inkscape:window-maximized="1" />
  <metadata
     id="metadata4907">
    <rdf:RDF>
      <cc:Work
         rdf:about="">
        <dc:format>image/svg+xml</dc:format>
        <dc:type
           rdf:resource="http://purl.org/dc/dcmitype/StillImage" />
        <dc:title></dc:title>
      </cc:Work>
    </rdf:RDF>
  </metadata>
  <g
     inkscape:label="Layer 1"
     inkscape:groupmode="layer"
     id="layer1"
     transform="translate(-287.27542,-285.80371)">
    <g
       id="g6328"
       transform="matrix(0,1,-1,0,1156.1541,100.94657)">
      <g
         transform="translate(0,14.298675)"
         style="stroke:#000000;stroke-opacity:1"
         id="g5430">
        <g
           id="g6042">
          <path
             inkscape:connector-curvature="0"
             style="fill:none;stroke:#0000ff;stroke-opacity:1"
             d="m 830.65714,421.18004 a 4.05,4.05 0 1 0 -8.1,0 4.05,4.05 0 0 0 8.1,0 z"
             id="path4930" />
          <path
             inkscape:connector-curvature="0"
             style="fill:none;stroke:#0000ff;stroke-opacity:1"
             d="m 223.15714,421.18004 a 4.05,4.05 0 1 0 -8.1,0 4.05,4.05 0 0 0 8.1,0 z"
             id="path4932" />
          <path
             inkscape:connector-curvature="0"
             style="fill:none;stroke:#000000;stroke-opacity:1"
             d="m 382.31626,729.70604 a 26.1,26.1 0 0 0 47.67829,19.749"
             id="path4934" />
          <path
             inkscape:connector-curvature="0"
             style="fill:none;stroke:#000000;stroke-opacity:1"
             d="m 615.71973,749.45504 a 26.1,26.1 0 0 0 47.67829,-19.749"
             id="path4936" />
          <path
             inkscape:connector-curvature="0"
             style="fill:none;stroke:#000000;stroke-opacity:1"
             d="m 663.39802,489.30404 a 26.1,26.1 0 0 0 -47.67829,-19.749"
             id="path4938" />
          <path
             inkscape:connector-curvature="0"
             style="fill:none;stroke:#000000;stroke-opacity:1"
             d="m 429.99455,469.55504 a 26.1,26.1 0 0 0 -47.67829,19.749"
             id="path4940" />
          <path
             inkscape:connector-curvature="0"
             style="fill:none;stroke:#000000;stroke-opacity:1"
             d="m 633.46075,590.97174 a 52.869877,52.869877 0 0 0 -0.12256,37.5519"
             id="path4942" />
          <path
             inkscape:connector-curvature="0"
             style="fill:none;stroke:#000000;stroke-opacity:1"
             d="m 732.18934,628.83414 a 52.869877,52.869877 0 0 0 0.12364,-37.5246"
             id="path4944" />
          <path
             inkscape:connector-curvature="0"
             style="fill:none;stroke:#0000ff;stroke-opacity:1"
             d="m 557.23787,579.13004 a 4.05,4.05 0 1 0 -8.1,0 4.05,4.05 0 0 0 8.1,0 z"
             id="path4946" />
          <path
             inkscape:connector-curvature="0"
             style="fill:none;stroke:#0000ff;stroke-opacity:1"
             d="m 496.57641,639.88004 a 4.05,4.05 0 1 0 -8.1,0 4.05,4.05 0 1 0 8.1,0 z"
             id="path4948" />
          <path
             inkscape:connector-curvature="0"
             style="fill:none;stroke:#0000ff;stroke-opacity:1"
             d="m 642.10714,735.95504 a 4.05,4.05 0 1 0 -8.1,0 4.05,4.05 0 0 0 8.1,0 z"
             id="path4952" />
          <path
             inkscape:connector-curvature="0"
             style="fill:none;stroke:#0000ff;stroke-opacity:1"
             d="m 223.15714,797.83004 a 4.05,4.05 0 1 0 -8.1,0 4.05,4.05 0 0 0 8.1,0 z"
             id="path4954" />
          <path
             inkscape:connector-curvature="0"
             style="fill:none;stroke:#0000ff;stroke-opacity:1"
             d="m 830.65714,797.83004 a 4.05,4.05 0 1 0 -8.1,0 4.05,4.05 0 0 0 8.1,0 z"
             id="path4956" />
          <path
             inkscape:connector-curvature="0"
             style="fill:none;stroke:#0000ff;stroke-opacity:1"
             d="m 642.10714,483.05504 a 4.05,4.05 0 1 0 -8.1,0 4.05,4.05 0 0 0 8.1,0 z"
             id="path4958" />
          <path
             inkscape:connector-curvature="0"
             style="fill:none;stroke:#0000ff;stroke-opacity:1"
             d="m 411.70714,483.05504 a 4.05,4.05 0 1 0 -8.1,0 4.05,4.05 0 1 0 8.1,0 z"
             id="path4960" />
          <path
             inkscape:connector-curvature="0"
             style="fill:none;stroke:#0000ff;stroke-opacity:1"
             d="m 411.70714,735.95504 a 4.05,4.05 0 1 0 -8.1,0 4.05,4.05 0 1 0 8.1,0 z"
             id="path4962" />
          <path
             inkscape:connector-curvature="0"
             style="fill:none;stroke:#0000ff;stroke-opacity:1"
             d="m 496.57641,579.13004 a 4.05,4.05 0 1 0 -8.1,0 4.05,4.05 0 1 0 8.1,0 z"
             id="path4968" />
          <path
             inkscape:connector-curvature="0"
             style="fill:none;stroke:#0000ff;stroke-opacity:1"
             d="m 557.23787,639.88004 a 4.05,4.05 0 1 0 -8.1,0 4.05,4.05 0 0 0 8.1,0 z"
             id="path4970" />
          <path
             inkscape:connector-curvature="0"
             style="fill:none;stroke:#000000;stroke-opacity:1"
             d="m 567.85714,653.92004 0,0.585"
             id="path4972" />
          <path
             inkscape:connector-curvature="0"
             style="fill:none;stroke:#000000;stroke-opacity:1"
             d="m 567.85714,654.50504 -90,0"
             id="path4974" />
          <path
             inkscape:connector-curvature="0"
             style="fill:none;stroke:#000000;stroke-opacity:1"
             d="m 477.85714,654.50504 0,-0.585"
             id="path4976" />
          <path
             inkscape:connector-curvature="0"
             style="fill:none;stroke:#000000;stroke-opacity:1"
             d="m 477.85714,653.92004 -83.75888,49.3842"
             id="path4978" />
          <path
             inkscape:connector-curvature="0"
             style="fill:none;stroke:#000000;stroke-opacity:1"
             d="m 394.09826,703.30424 7.30989,7.3099"
             id="path4980" />
          <path
             inkscape:connector-curvature="0"
             style="fill:none;stroke:#000000;stroke-opacity:1"
             d="m 429.99455,722.45504 a 26.1,26.1 0 0 0 -28.5864,-11.8409"
             id="path4982" />
          <path
             inkscape:connector-curvature="0"
             style="fill:none;stroke:#000000;stroke-opacity:1"
             d="m 429.99455,722.45504 185.72518,0"
             id="path4984" />
          <path
             inkscape:connector-curvature="0"
             style="fill:none;stroke:#000000;stroke-opacity:1"
             d="m 644.30613,710.61414 a 26.1,26.1 0 0 0 -28.5864,11.8409"
             id="path4986" />
          <path
             inkscape:connector-curvature="0"
             style="fill:none;stroke:#000000;stroke-opacity:1"
             d="m 644.30613,710.61414 7.30989,-7.3099"
             id="path4988" />
          <path
             inkscape:connector-curvature="0"
             style="fill:none;stroke:#000000;stroke-opacity:1"
             d="m 651.61602,703.30424 -83.75888,-49.3842"
             id="path4990" />
          <path
             inkscape:connector-curvature="0"
             style="fill:none;stroke:#000000;stroke-opacity:1"
             d="m 401.40815,508.39594 a 26.1,26.1 0 0 0 28.5864,-11.8409"
             id="path4992" />
          <path
             inkscape:connector-curvature="0"
             style="fill:none;stroke:#000000;stroke-opacity:1"
             d="m 401.40815,508.39594 -7.30989,7.3099"
             id="path4994" />
          <path
             inkscape:connector-curvature="0"
             style="fill:none;stroke:#000000;stroke-opacity:1"
             d="m 394.09826,515.70584 83.75888,49.3842"
             id="path4996" />
          <path
             inkscape:connector-curvature="0"
             style="fill:none;stroke:#000000;stroke-opacity:1"
             d="m 477.85714,565.09004 0,-0.585"
             id="path4998" />
          <path
             inkscape:connector-curvature="0"
             style="fill:none;stroke:#000000;stroke-opacity:1"
             d="m 477.85714,564.50504 90,0"
             id="path5000" />
          <path
             inkscape:connector-curvature="0"
             style="fill:none;stroke:#000000;stroke-opacity:1"
             d="m 567.85714,564.50504 0,0.585"
             id="path5002" />
          <path
             inkscape:connector-curvature="0"
             style="fill:none;stroke:#000000;stroke-opacity:1"
             d="m 567.85714,565.09004 83.75888,-49.3842"
             id="path5004" />
          <path
             inkscape:connector-curvature="0"
             style="fill:none;stroke:#000000;stroke-opacity:1"
             d="m 651.61602,515.70584 -7.30989,-7.3099"
             id="path5006" />
          <path
             inkscape:connector-curvature="0"
             style="fill:none;stroke:#000000;stroke-opacity:1"
             d="m 615.71973,496.55504 a 26.1,26.1 0 0 0 28.5864,11.8409"
             id="path5008" />
          <path
             inkscape:connector-curvature="0"
             style="fill:none;stroke:#000000;stroke-opacity:1"
             d="m 615.71973,496.55504 -185.72518,0"
             id="path5010" />
          <path
             inkscape:connector-curvature="0"
             style="fill:none;stroke:#000000;stroke-opacity:1"
             d="m 752.35714,726.93524 0,-20.6671"
             id="path5012" />
          <path
             inkscape:connector-curvature="0"
             style="fill:none;stroke:#000000;stroke-opacity:1"
             d="m 752.35714,706.26814 -48.05093,-48.0509"
             id="path5014" />
          <path
             inkscape:connector-curvature="0"
             style="fill:none;stroke:#000000;stroke-opacity:1"
             d="m 661.03967,658.08284 a 52.869877,52.869877 0 0 0 43.26654,0.1344"
             id="path5016" />
          <path
             inkscape:connector-curvature="0"
             style="fill:none;stroke:#000000;stroke-opacity:1"
             d="m 661.03967,658.08284 -9.44363,9.4437"
             id="path5018" />
          <path
             inkscape:connector-curvature="0"
             style="fill:none;stroke:#000000;stroke-opacity:1"
             d="m 651.59604,667.52654 100.7611,59.4087"
             id="path5020" />
          <path
             inkscape:connector-curvature="0"
             style="fill:none;stroke:#000000;stroke-opacity:1"
             d="m 732.18934,628.83414 20.1678,20.1678"
             id="path5022" />
          <path
             inkscape:connector-curvature="0"
             style="fill:none;stroke:#000000;stroke-opacity:1"
             d="m 752.35714,649.00194 0,-77.7365"
             id="path5024" />
          <path
             inkscape:connector-curvature="0"
             style="fill:none;stroke:#000000;stroke-opacity:1"
             d="m 752.35714,571.26544 -20.04416,20.0441"
             id="path5026" />
          <path
             inkscape:connector-curvature="0"
             style="fill:none;stroke:#000000;stroke-opacity:1"
             d="m 704.62018,561.74164 a 52.869877,52.869877 0 0 0 -43.26936,-0.146"
             id="path5028" />
          <path
             inkscape:connector-curvature="0"
             style="fill:none;stroke:#000000;stroke-opacity:1"
             d="m 704.62018,561.74164 47.73696,-47.737"
             id="path5030" />
          <path
             inkscape:connector-curvature="0"
             style="fill:none;stroke:#000000;stroke-opacity:1"
             d="m 752.35714,514.00464 0,-21.9298"
             id="path5032" />
          <path
             inkscape:connector-curvature="0"
             style="fill:none;stroke:#000000;stroke-opacity:1"
             d="m 752.35714,492.07484 -100.98585,59.5413"
             id="path5034" />
          <path
             inkscape:connector-curvature="0"
             style="fill:none;stroke:#000000;stroke-opacity:1"
             d="m 651.37129,551.61614 9.97953,9.9795"
             id="path5036" />
          <path
             inkscape:connector-curvature="0"
             style="fill:none;stroke:#000000;stroke-opacity:1"
             d="m 633.46075,590.97174 -18.11499,-18.115"
             id="path5038" />
          <path
             inkscape:connector-curvature="0"
             style="fill:none;stroke:#000000;stroke-opacity:1"
             d="m 615.34576,572.85674 -47.48862,27.9993"
             id="path5040" />
          <path
             inkscape:connector-curvature="0"
             style="fill:none;stroke:#000000;stroke-opacity:1"
             d="m 567.85714,600.85604 0,17.298"
             id="path5042" />
          <path
             inkscape:connector-curvature="0"
             style="fill:none;stroke:#000000;stroke-opacity:1"
             d="m 567.85714,618.15404 47.71681,28.1338"
             id="path5044" />
          <path
             inkscape:connector-curvature="0"
             style="fill:none;stroke:#000000;stroke-opacity:1"
             d="m 615.57395,646.28784 17.76424,-17.7642"
             id="path5046" />
          <path
             inkscape:connector-curvature="0"
             style="fill:none;stroke:#000000;stroke-opacity:1"
             d="m 477.85714,618.15404 0,-17.298"
             id="path5048" />
          <path
             inkscape:connector-curvature="0"
             style="fill:none;stroke:#000000;stroke-opacity:1"
             d="m 477.85714,600.85604 -135,-79.596"
             id="path5050" />
          <path
             inkscape:connector-curvature="0"
             style="fill:none;stroke:#000000;stroke-opacity:1"
             d="m 342.85714,521.26004 0,176.49"
             id="path5052" />
          <path
             inkscape:connector-curvature="0"
             style="fill:none;stroke:#000000;stroke-opacity:1"
             d="m 342.85714,697.75004 135,-79.596"
             id="path5054" />
          <path
             inkscape:connector-curvature="0"
             style="fill:none;stroke:#000000;stroke-opacity:1"
             d="m 252.85714,468.19604 -22.5,-13.266"
             id="path5056" />
          <path
             inkscape:connector-curvature="0"
             style="fill:none;stroke:#000000;stroke-opacity:1"
             d="m 230.35714,454.93004 -22.5,0"
             id="path5058" />
          <path
             inkscape:connector-curvature="0"
             style="fill:none;stroke:#000000;stroke-opacity:1"
             d="m 207.85714,454.93004 0,-45"
             id="path5060" />
          <path
             inkscape:connector-curvature="0"
             style="fill:none;stroke:#000000;stroke-opacity:1"
             d="m 207.85714,409.93004 45,0"
             id="path5062" />
          <path
             inkscape:connector-curvature="0"
             style="fill:none;stroke:#000000;stroke-opacity:1"
             d="m 252.85714,409.93004 0,22.5"
             id="path5064" />
          <path
             inkscape:connector-curvature="0"
             style="fill:none;stroke:#000000;stroke-opacity:1"
             d="m 252.85714,432.43004 117.22013,69.113"
             id="path5066" />
          <path
             inkscape:connector-curvature="0"
             style="fill:none;stroke:#000000;stroke-opacity:1"
             d="m 370.07727,501.54304 12.23899,-12.239"
             id="path5068" />
          <path
             inkscape:connector-curvature="0"
             style="fill:none;stroke:#000000;stroke-opacity:1"
             d="m 429.99455,469.55504 185.72518,0"
             id="path5070" />
          <path
             inkscape:connector-curvature="0"
             style="fill:none;stroke:#000000;stroke-opacity:1"
             d="m 663.39802,489.30404 12.23899,12.239"
             id="path5072" />
          <path
             inkscape:connector-curvature="0"
             style="fill:none;stroke:#000000;stroke-opacity:1"
             d="m 675.63701,501.54304 117.22013,-69.113"
             id="path5074" />
          <path
             inkscape:connector-curvature="0"
             style="fill:none;stroke:#000000;stroke-opacity:1"
             d="m 792.85714,432.43004 0,-22.5"
             id="path5076" />
          <path
             inkscape:connector-curvature="0"
             style="fill:none;stroke:#000000;stroke-opacity:1"
             d="m 792.85714,409.93004 45,0"
             id="path5078" />
          <path
             inkscape:connector-curvature="0"
             style="fill:none;stroke:#000000;stroke-opacity:1"
             d="m 837.85714,409.93004 0,45"
             id="path5080" />
          <path
             inkscape:connector-curvature="0"
             style="fill:none;stroke:#000000;stroke-opacity:1"
             d="m 837.85714,454.93004 -22.11809,0"
             id="path5082" />
          <path
             inkscape:connector-curvature="0"
             style="fill:none;stroke:#000000;stroke-opacity:1"
             d="m 815.73905,454.93004 -18.38191,10.6128"
             id="path5084" />
          <path
             inkscape:connector-curvature="0"
             style="fill:none;stroke:#000000;stroke-opacity:1"
             d="m 797.35714,465.54284 -4.5,2.6532"
             id="path5086" />
          <path
             inkscape:connector-curvature="0"
             style="fill:none;stroke:#000000;stroke-opacity:1"
             d="m 792.85714,468.19604 0,282.618"
             id="path5088" />
          <path
             inkscape:connector-curvature="0"
             style="fill:none;stroke:#000000;stroke-opacity:1"
             d="m 792.85714,750.81404 22.5,13.266"
             id="path5090" />
          <path
             inkscape:connector-curvature="0"
             style="fill:none;stroke:#000000;stroke-opacity:1"
             d="m 815.35714,764.08004 22.5,0"
             id="path5092" />
          <path
             inkscape:connector-curvature="0"
             style="fill:none;stroke:#000000;stroke-opacity:1"
             d="m 837.85714,764.08004 0,45"
             id="path5094" />
          <path
             inkscape:connector-curvature="0"
             style="fill:none;stroke:#000000;stroke-opacity:1"
             d="m 837.85714,809.08004 -45,0"
             id="path5096" />
          <path
             inkscape:connector-curvature="0"
             style="fill:none;stroke:#000000;stroke-opacity:1"
             d="m 792.85714,809.08004 0,-22.5"
             id="path5098" />
          <path
             inkscape:connector-curvature="0"
             style="fill:none;stroke:#000000;stroke-opacity:1"
             d="m 792.85714,786.58004 -117.22013,-69.113"
             id="path5100" />
          <path
             inkscape:connector-curvature="0"
             style="fill:none;stroke:#000000;stroke-opacity:1"
             d="m 675.63701,717.46704 -12.23899,12.239"
             id="path5102" />
          <path
             inkscape:connector-curvature="0"
             style="fill:none;stroke:#000000;stroke-opacity:1"
             d="m 615.71973,749.45504 -185.72518,0"
             id="path5104" />
          <path
             inkscape:connector-curvature="0"
             style="fill:none;stroke:#000000;stroke-opacity:1"
             d="m 382.31626,729.70604 -12.23899,-12.239"
             id="path5106" />
          <path
             inkscape:connector-curvature="0"
             style="fill:none;stroke:#000000;stroke-opacity:1"
             d="m 370.07727,717.46704 -117.22013,69.113"
             id="path5108" />
          <path
             inkscape:connector-curvature="0"
             style="fill:none;stroke:#000000;stroke-opacity:1"
             d="m 252.85714,786.58004 0,22.5"
             id="path5110" />
          <path
             inkscape:connector-curvature="0"
             style="fill:none;stroke:#000000;stroke-opacity:1"
             d="m 252.85714,809.08004 -45,0"
             id="path5112" />
          <path
             inkscape:connector-curvature="0"
             style="fill:none;stroke:#000000;stroke-opacity:1"
             d="m 207.85714,809.08004 0,-45"
             id="path5114" />
          <path
             inkscape:connector-curvature="0"
             style="fill:none;stroke:#000000;stroke-opacity:1"
             d="m 207.85714,764.08004 22.5,0"
             id="path5116" />
          <path
             inkscape:connector-curvature="0"
             style="fill:none;stroke:#000000;stroke-opacity:1"
             d="m 230.35714,764.08004 22.5,-13.266"
             id="path5118" />
          <path
             inkscape:connector-curvature="0"
             style="fill:none;stroke:#000000;stroke-opacity:1"
             d="m 252.85714,750.81404 0,-282.618"
             id="path5120" />
        </g>
      </g>
      <g
         id="g4593"
         transform="translate(102.54452,91.44151)">
        <g
           transform="matrix(0,-1,1,0,-226.28216,1072.3622)"
           id="g3163"
           style="stroke:#000000;stroke-opacity:1">
          <path
             inkscape:connector-curvature="0"
             style="fill:none;stroke:#ff0000;stroke-width:0.24046101;stroke-opacity:1"
             d="m 388.6298,896.19699 0,-16.2311 151.3702,0 151.37019,0 0,16.2311 0,16.23111 -151.37019,0 -151.3702,0 0,-16.23111 z"
             id="path3161" />
          <path
             inkscape:connector-curvature="0"
             style="fill:none;stroke:#ff0000;stroke-width:0.24046101;stroke-opacity:1"
             d="m 687.94575,896.37735 0.0623,-12.56411 -148.00586,0 -148.00589,0 0,12.46387 c 0,6.8552 0.0722,12.53609 0.1605,12.62446 0.0883,0.0882 66.66291,0.13331 147.94364,0.10015 l 147.78314,-0.0606 0.0623,-12.56411 z"
             id="path3159" />
          <path
             inkscape:connector-curvature="0"
             style="fill:none;stroke:#ff0000;stroke-width:0.24046101;stroke-opacity:1"
             d="m 494.68718,902.2774 c -1.88682,-0.97131 -2.04601,-1.38235 -2.14078,-5.52705 -0.0988,-4.32151 0.15163,-5.18585 1.75047,-6.04169 0.92065,-0.49285 1.29147,-0.52323 6.38777,-0.52323 4.72327,0 5.50932,0.0539 6.18961,0.42586 1.04799,0.57263 1.49202,1.31594 1.6666,2.78995 l 0.14599,1.23271 -1.95718,0 c -1.54524,0 -1.95718,-0.0732 -1.95718,-0.347 0,-0.82007 -0.97852,-1.09578 -3.88957,-1.09578 -1.55511,0 -3.08362,0.11984 -3.40666,0.26704 -0.84081,0.38302 -1.11991,1.19105 -1.11991,3.2419 0,1.59376 0.0685,1.87166 0.59022,2.39329 0.5636,0.56363 0.72559,0.59023 3.59126,0.59023 3.37657,0 4.15258,-0.19046 4.37423,-1.07356 0.1479,-0.58922 0.21763,-0.60967 2.08414,-0.60967 l 1.93111,0 -0.14299,1.2073 c -0.1794,1.51473 -0.5783,2.33783 -1.44385,2.97914 -0.63378,0.46962 -1.03571,0.50707 -6.13176,0.57145 -5.27843,0.0665 -5.48782,0.0513 -6.52152,-0.48089 z"
             id="path3157" />
          <path
             inkscape:connector-curvature="0"
             style="fill:none;stroke:#ff0000;stroke-width:0.24046101;stroke-opacity:1"
             d="m 548.05546,896.42902 0,-6.40762 6.91324,0.0825 c 6.33939,0.0749 6.99254,0.12195 7.86842,0.56295 1.67462,0.84313 1.93035,1.60774 1.93035,5.77103 0,4.16329 -0.25573,4.9279 -1.93035,5.77111 -0.87725,0.44168 -1.5191,0.48688 -7.86842,0.55454 l -6.91324,0.0741 0,-6.4077 z"
             id="path3155" />
          <path
             inkscape:connector-curvature="0"
             style="fill:none;stroke:#ff0000;stroke-width:0.24046101;stroke-opacity:1"
             d="m 560.40677,898.94478 c 0.59492,-0.46794 0.63358,-0.62196 0.63358,-2.52484 0,-3.01938 0.0526,-2.98824 -5.04968,-2.98824 l -4.08784,0 0,3.00574 0,3.00574 3.93518,0 c 3.61701,0 3.98641,-0.0404 4.56876,-0.4984 z"
             id="path3153" />
          <path
             inkscape:connector-curvature="0"
             style="fill:none;stroke:#ff0000;stroke-width:0.24046101;stroke-opacity:1"
             d="m 610.33485,896.41893 0,-6.39071 5.95141,0.0783 c 6.70877,0.0886 7.40059,0.24457 8.34933,1.88201 0.66204,1.14266 0.69981,4.77751 0.0619,5.94735 -0.77474,1.42064 -1.46953,1.60672 -6.36724,1.70511 l -4.38841,0.0882 0,1.54007 0,1.54007 -1.80346,0 -1.80346,0 0,-6.39071 z"
             id="path3151" />
          <path
             inkscape:connector-curvature="0"
             style="fill:none;stroke:#ff0000;stroke-width:0.24046101;stroke-opacity:1"
             d="m 621.16915,895.81094 c 0.36375,-0.6796 0.0769,-2.07348 -0.489,-2.37638 -0.25013,-0.13381 -1.81449,-0.24339 -3.47635,-0.24339 l -3.02158,0 0,1.56304 0,1.56296 3.35801,0 c 3.16786,0 3.37333,-0.0286 3.62892,-0.50623 z"
             id="path3149" />
          <path
             inkscape:connector-curvature="0"
             style="fill:none;stroke:#ff0000;stroke-width:0.24046101;stroke-opacity:1"
             d="m 401.37424,897.88022 0,-4.68905 -2.64507,0 -2.64507,0 0,-1.56296 0,-1.56296 7.21383,0 7.21383,0 0,1.56296 0,1.56296 -2.64507,0 -2.64508,0 0,4.68905 0,4.68896 -1.92368,0 -1.92369,0 0,-4.68896 z"
             id="path3147" />
          <path
             inkscape:connector-curvature="0"
             style="fill:none;stroke:#ff0000;stroke-width:0.24046101;stroke-opacity:1"
             d="m 412.43545,896.31717 0,-6.25192 1.79443,0 1.79443,0 0.0692,2.22421 0.0691,2.2243 4.02773,0.0657 4.02771,0.0657 0,-2.2902 0,-2.2902 1.9237,0 1.92368,0 0,6.25192 0,6.25201 -1.92368,0 -1.9237,0 0,-2.28439 0,-2.2843 -4.08783,0 -4.08784,0 0,2.2843 0,2.28439 -1.80346,0 -1.80345,0 0,-6.25201 z"
             id="path3145" />
          <path
             inkscape:connector-curvature="0"
             style="fill:none;stroke:#ff0000;stroke-width:0.24046101;stroke-opacity:1"
             d="m 430.71048,896.31717 0,-6.25192 6.85314,0 6.85315,0 0,1.44269 0,1.44278 -4.92946,0 -4.92945,0 0,1.08206 0,1.08215 4.68899,0 4.68899,0 0,1.20224 0,1.20233 -4.68899,0 -4.68899,0 0,1.08207 0,1.08206 5.04968,0 5.04968,0 0,1.44278 0,1.44277 -6.97337,0 -6.97337,0 0,-6.25201 z"
             id="path3143" />
          <path
             inkscape:connector-curvature="0"
             style="fill:none;stroke:#ff0000;stroke-width:0.24046101;stroke-opacity:1"
             d="m 455.47797,896.31717 0,-6.25192 1.92369,0 1.92368,0 0,2.2902 0,2.2902 4.02773,-0.0657 4.02772,-0.0657 0.0692,-2.2243 0.0692,-2.2243 1.79444,0 1.79443,0 0,6.25201 0,6.25201 -1.80346,0 -1.80346,0 0,-2.28439 0,-2.28439 -4.08784,0 -4.08783,0 0,2.28439 0,2.28439 -1.92369,0 -1.92369,0 0,-6.25201 z"
             id="path3141" />
          <path
             inkscape:connector-curvature="0"
             style="fill:none;stroke:#ff0000;stroke-width:0.24046101;stroke-opacity:1"
             d="m 472.8043,902.38883 c 0.008,-0.0992 1.49782,-2.88556 3.31243,-6.19184 l 3.29927,-6.01156 2.49966,0 2.49967,0 3.42442,6.19192 3.42441,6.19183 -2.12488,0 -2.12489,0 -0.56345,-1.02197 -0.56345,-1.02197 -3.90332,-0.0665 -3.90333,-0.0656 -0.52861,1.08804 -0.52861,1.08803 -2.11622,0 c -1.16394,0 -2.11033,-0.0808 -2.1031,-0.18035 z"
             id="path3139" />
          <path
             inkscape:connector-curvature="0"
             style="fill:none;stroke:#ff0000;stroke-width:0.24046101;stroke-opacity:1"
             d="m 483.37361,895.86859 c -1.58339,-3.04352 -1.40787,-3.0176 -2.70795,-0.40035 l -1.13843,2.29171 2.4152,0 2.41521,0 -0.98403,-1.89136 z"
             id="path3137" />
          <path
             inkscape:connector-curvature="0"
             style="fill:none;stroke:#ff0000;stroke-width:0.24046101;stroke-opacity:1"
             d="m 511.02446,896.31717 0,-6.25192 1.91499,0 1.91498,0 0.0688,2.34448 0.0688,2.34448 0.79135,0.0757 c 0.71392,0.069 1.03943,-0.16075 3.32664,-2.34448 l 2.53529,-2.42057 2.56003,0 2.56002,0 -0.71676,0.67784 c -0.39422,0.37283 -1.87998,1.73877 -3.30171,3.03536 -1.42172,1.29667 -2.58496,2.42688 -2.58496,2.51154 0,0.0847 1.59303,1.50514 3.54007,3.15647 l 3.54007,3.00246 -2.5957,0.0682 -2.59571,0.0682 -2.79144,-2.4129 c -2.32696,-2.01138 -2.92424,-2.41291 -3.58944,-2.41291 l -0.79799,0 0,2.40457 0,2.40466 -1.92368,0 -1.92369,0 0,-6.25201 z"
             id="path3135" />
          <path
             inkscape:connector-curvature="0"
             style="fill:none;stroke:#ff0000;stroke-width:0.24046101;stroke-opacity:1"
             d="m 528.51794,901.30676 c 0.38891,-0.69433 1.92638,-3.50776 3.41659,-6.25201 l 2.70948,-4.9895 2.4492,0 2.44921,0 2.54985,4.62887 c 1.40242,2.54588 2.94906,5.35923 3.43697,6.25193 l 0.88712,1.62313 -2.13829,0 -2.13831,0 -0.52571,-1.08206 -0.52571,-1.08206 -3.92282,0 -3.92282,0 -0.52571,1.08206 -0.52571,1.08206 -2.19024,0 -2.19023,0 0.70712,-1.26242 z"
             id="path3133" />
          <path
             inkscape:connector-curvature="0"
             style="fill:none;stroke:#ff0000;stroke-width:0.24046101;stroke-opacity:1"
             d="m 538.39384,895.53574 c -0.66344,-1.22337 -1.24301,-2.2626 -1.28792,-2.30948 -0.0808,-0.0843 -2.27582,4.16776 -2.27582,4.40863 0,0.069 1.07326,0.12506 2.385,0.12506 l 2.38501,0 -1.20627,-2.22421 z"
             id="path3131" />
          <path
             inkscape:connector-curvature="0"
             style="fill:none;stroke:#ff0000;stroke-width:0.24046101;stroke-opacity:1"
             d="m 566.74898,900.94605 c 0.48968,-0.8927 2.02959,-3.67903 3.42203,-6.19184 l 2.53169,-4.56878 2.49284,0 2.49283,0 3.3324,6.01156 c 1.8328,3.30628 3.33506,6.09269 3.33835,6.19184 0.003,0.0992 -0.94636,0.18035 -2.11029,0.18035 l -2.11622,0 -0.52572,-1.08206 -0.52572,-1.08206 -3.92281,0 -3.92281,0 -0.52572,1.08206 -0.52572,1.08206 -2.1627,0 -2.16273,0 0.8903,-1.62313 z"
             id="path3129" />
          <path
             inkscape:connector-curvature="0"
             style="fill:none;stroke:#ff0000;stroke-width:0.24046101;stroke-opacity:1"
             d="m 576.54668,895.65592 c -0.62101,-1.15722 -1.20247,-2.18332 -1.29214,-2.28027 -0.0896,-0.0969 -0.67273,0.84995 -1.29572,2.10403 l -1.13272,2.28027 2.42483,0 2.42486,0 -1.12911,-2.10403 z"
             id="path3127" />
          <path
             inkscape:connector-curvature="0"
             style="fill:none;stroke:#ff0000;stroke-width:0.24046101;stroke-opacity:1"
             d="m 589.6552,900.50092 0,-2.06835 -3.18736,-3.76285 c -1.75306,-2.06962 -3.33532,-3.95222 -3.51613,-4.18366 -0.30799,-0.3943 -0.18619,-0.42081 1.92873,-0.42081 l 2.25747,0 2.118,2.53948 c 1.69198,2.0288 2.18416,2.4847 2.44698,2.26655 0.18095,-0.15014 1.16819,-1.29297 2.19385,-2.53957 l 1.86487,-2.26646 2.25331,0 2.25332,0 -0.48746,0.66125 c -0.26812,0.36367 -1.78747,2.17616 -3.37635,4.02771 l -2.88884,3.36646 -0.007,2.22421 -0.007,2.2243 -1.92369,0 -1.92369,0 0,-2.06826 z"
             id="path3125" />
          <path
             inkscape:connector-curvature="0"
             style="fill:none;stroke:#ff0000;stroke-width:0.24046101;stroke-opacity:1"
             d="m 627.22319,896.37735 0.0641,-6.19192 6.49245,0 c 6.11692,0 6.54109,0.0286 7.33353,0.49411 1.14458,0.67237 1.43561,1.36476 1.43976,3.42537 0.004,2.02787 -0.42444,3.09133 -1.33807,3.32067 l -0.61148,0.15343 0.74207,0.45127 c 0.92674,0.56363 1.21101,1.29406 1.21101,3.11178 l 0,1.42712 -1.92368,0 -1.92369,0 0,-1.09788 c 0,-2.02787 0,-2.02812 -4.09631,-2.02812 l -3.59844,0 0,1.56304 0,1.56296 -1.92775,0 -1.92773,0 0.0642,-6.19183 z"
             id="path3123" />
          <path
             inkscape:connector-curvature="0"
             style="fill:none;stroke:#ff0000;stroke-width:0.24046101;stroke-opacity:1"
             d="m 638.57537,895.78275 c 0.51058,-0.72892 0.46992,-1.53409 -0.10659,-2.1106 -0.4367,-0.43671 -0.80153,-0.48098 -3.9676,-0.48098 l -3.48669,0 0,1.56304 0,1.56296 3.59329,0 c 3.44061,0 3.60917,-0.0227 3.9676,-0.53442 z"
             id="path3121" />
          <path
             inkscape:connector-curvature="0"
             style="fill:none;stroke:#ff0000;stroke-width:0.24046101;stroke-opacity:1"
             d="m 645.44214,896.31717 0,-6.25192 1.92369,0 1.92369,0 0,6.25192 0,6.25201 -1.92369,0 -1.92369,0 0,-6.25201 z"
             id="path3119" />
          <path
             inkscape:connector-curvature="0"
             style="fill:none;stroke:#ff0000;stroke-width:0.24046101;stroke-opacity:1"
             d="m 651.69413,901.06345 0,-1.50581 4.35148,-3.12306 4.35149,-3.12314 -4.23126,-0.0657 -4.23125,-0.0657 0,-1.56102 0,-1.56103 7.15372,0.064 7.15371,0.064 0.0702,1.44833 0.0702,1.44842 -4.4769,3.24063 -4.4769,3.24063 4.46685,0.0657 4.46683,0.0656 0,1.43747 0,1.43739 -7.33406,0 -7.33407,0 0,-1.50573 z"
             id="path3117" />
          <path
             inkscape:connector-curvature="0"
             style="fill:none;stroke:#ff0000;stroke-width:0.24046101;stroke-opacity:1"
             d="m 668.34198,896.37735 0.0642,-6.19192 6.79302,-0.064 6.79303,-0.064 0,1.44648 0,1.44656 -4.92945,0 -4.92945,0 0,1.08206 0,1.08207 4.68898,0 4.68899,0 0,1.19711 0,1.19711 -4.62887,0.0656 -4.62887,0.0657 -0.074,1.02197 -0.074,1.02197 5.06351,0 5.0635,0 0,1.44278 0,1.44269 -6.97743,0 -6.97743,0 0.0642,-6.19183 z"
             id="path3115" />
        </g>
        <g
           transform="matrix(0,-1,1,0,-225.47855,1068.1571)"
           id="g3189"
           style="stroke:#000000;stroke-opacity:1">
          <path
             inkscape:connector-curvature="0"
             style="fill:none;stroke:#ff0000;stroke-width:0.24046101;stroke-opacity:1"
             d="m 486.69646,868.67194 c -0.75018,-0.0715 -1.42255,-0.18928 -1.49418,-0.2609 -0.0716,-0.0715 1.7055,-1.96357 3.94917,-4.20437 l 4.07939,-4.07408 -4.86723,-4.87159 -4.86724,-4.87152 -4.14157,4.13645 c -2.27786,2.27505 -4.20176,4.07636 -4.27534,4.00271 -0.0736,-0.0732 -0.20042,-0.99798 -0.28188,-2.05429 -0.29248,-3.79281 0.99637,-7.33062 3.724,-10.22207 2.78659,-2.95389 7.32607,-4.61886 11.10184,-4.07189 l 1.32253,0.19155 3.73685,-3.69309 3.73684,-3.69308 5.52091,4.35804 c 3.0365,2.397 5.56992,4.40585 5.62983,4.46426 0.0599,0.0581 -1.77838,1.99572 -4.08509,4.30527 l -4.19403,4.19915 0.0773,2.46492 c 0.13201,4.21076 -1.01273,7.22567 -3.80294,10.01587 -2.95801,2.95802 -6.66602,4.2812 -10.86913,3.87866 z"
             id="path3113" />
          <path
             inkscape:connector-curvature="0"
             style="fill:none;stroke:#ff0000;stroke-width:0.24046101;stroke-opacity:1"
             d="m 580.11613,868.2975 c -3.69235,-0.99503 -7.03332,-3.67616 -8.68201,-6.96738 -1.12873,-2.25325 -1.71437,-5.77422 -1.30616,-7.85276 l 0.21993,-1.11976 -4.1735,-4.16843 c -2.29542,-2.29264 -4.14615,-4.23954 -4.11274,-4.32648 0.0334,-0.087 2.54953,-2.11531 5.59136,-4.50743 l 5.53061,-4.34929 3.54476,3.53856 3.54472,3.53857 2.94772,0.021 c 2.53368,0.0177 3.17126,0.10579 4.53944,0.62515 4.38261,1.66336 7.25607,4.68804 8.53341,8.98245 0.45057,1.51491 0.60357,5.74301 0.22965,6.34796 -0.14163,0.22917 -1.33226,-0.81586 -4.254,-3.73382 l -4.05733,-4.05203 -4.92908,4.9247 -4.92908,4.92462 4.11064,4.11565 4.11061,4.11566 -0.77438,0.15486 c -1.2912,0.25829 -4.36537,0.14375 -5.68457,-0.21175 z"
             id="path3111" />
          <path
             inkscape:connector-curvature="0"
             style="fill:none;stroke:#ff0000;stroke-width:0.24046101;stroke-opacity:1"
             d="m 529.96515,849.40025 c -2.15598,-0.20796 -6.4587,-1.01263 -7.46956,-1.39699 -0.56266,-0.21394 -0.5676,-0.24794 -0.54897,-3.77354 l 0.0188,-3.55776 1.08208,-0.31392 c 6.19713,-1.79785 18.13179,-1.85382 24.89618,-0.11673 l 1.67476,0.43006 0.0663,3.6436 0.0663,3.64351 -0.90793,0.25392 c -4.49153,1.25611 -12.77016,1.77698 -18.87799,1.18785 z"
             id="path3109" />
          <path
             inkscape:connector-curvature="0"
             style="fill:none;stroke:#ff0000;stroke-width:0.24046101;stroke-opacity:1"
             d="m 536.2644,847.03852 c 0.1369,-0.25585 0.24892,-1.60067 0.24892,-2.98857 0,-2.62567 -0.28152,-3.43294 -1.08903,-3.12306 -0.4763,0.1828 -0.52638,6.22651 -0.0532,6.41747 0.52207,0.21065 0.63811,0.17093 0.89328,-0.30584 z"
             id="path3107" />
          <path
             inkscape:connector-curvature="0"
             style="fill:none;stroke:#ff0000;stroke-width:0.24046101;stroke-opacity:1"
             d="m 541.18264,847.35766 c 0.54715,-0.20999 0.56476,-5.89408 0.0197,-6.34653 -0.28776,-0.23876 -0.43362,-0.23876 -0.72138,0 -0.46587,0.38664 -0.5282,5.74789 -0.0721,6.20396 0.33722,0.33715 0.28959,0.32839 0.77386,0.14257 z"
             id="path3105" />
          <path
             inkscape:connector-curvature="0"
             style="fill:none;stroke:#ff0000;stroke-width:0.24046101;stroke-opacity:1"
             d="m 531.17004,844.10541 c 0.0562,-2.54571 0.008,-3.06028 -0.30058,-3.17852 -0.95487,-0.36644 -1.08905,0.0126 -1.08905,3.07567 0,1.617 0.0767,3.01668 0.17045,3.11044 0.0937,0.0938 0.39132,0.13887 0.66127,0.10015 0.46035,-0.0656 0.49498,-0.25879 0.55791,-3.10774 z"
             id="path3103" />
          <path
             inkscape:connector-curvature="0"
             style="fill:none;stroke:#ff0000;stroke-width:0.24046101;stroke-opacity:1"
             d="m 519.20012,843.70691 c -2.60503,-0.30139 -7.9185,-1.34431 -8.37576,-1.64384 -0.31044,-0.20342 -3.3024,-2.52745 -6.6488,-5.1644 -5.26516,-4.14907 -6.10355,-4.89911 -6.22681,-5.57106 -0.24361,-1.32789 -1.07588,-9.95452 -1.37405,-14.24229 -0.3952,-5.68316 -0.40571,-16.72572 -0.0188,-19.71782 0.45956,-3.55346 1.38914,-7.99179 2.22945,-10.64439 2.00664,-6.33441 6.30038,-12.94881 11.1387,-17.15882 10.72164,-9.32945 24.96327,-12.21021 38.37181,-7.76178 9.23844,3.06491 16.51866,9.12393 21.54304,17.92923 2.5323,4.43791 3.97275,8.86598 4.93534,15.17168 1.10874,7.26288 0.78213,21.90072 -0.77659,34.80611 l -0.27593,2.28439 -6.25493,4.92941 c -3.44019,2.71118 -6.48289,5.0528 -6.76152,5.20361 -0.46412,0.25106 -7.47687,1.5293 -8.39052,1.5293 -0.33121,0 -0.40493,-0.35053 -0.46307,-2.20191 l -0.0692,-2.20192 -1.32253,-0.44992 c -4.69974,-1.5989 -13.79976,-2.31638 -20.71428,-1.63307 -3.03268,0.29961 -7.02722,1.05976 -8.56629,1.63004 l -1.13774,0.42156 -0.12024,2.27774 c -0.11932,2.26049 -0.12478,2.27716 -0.72138,2.20815 z"
             id="path3101" />
          <path
             inkscape:connector-curvature="0"
             style="fill:none;stroke:#ff0000;stroke-width:0.24046101;stroke-opacity:1"
             d="m 546.25956,833.11697 c 3.53133,-0.54587 7.7658,-1.46029 10.66283,-2.30249 1.77676,-0.51658 2.32849,-0.84978 6.26218,-3.78137 l 4.31375,-3.21488 0.50401,-1.84153 c 1.42617,-5.21094 2.14537,-9.8627 2.33966,-15.13297 0.30623,-8.30731 -1.12685,-14.57952 -4.81631,-21.07972 -3.7868,-6.67173 -9.46825,-12.20323 -15.37724,-14.9713 -4.65743,-2.1818 -8.43554,-2.98268 -13.99582,-2.9666 -5.45893,0.016 -9.47581,0.92215 -13.94673,3.14713 -7.04734,3.50717 -13.48624,10.51932 -17.5508,19.11346 -3.83565,8.11013 -4.21628,18.8359 -1.08754,30.6455 l 0.77506,2.92545 4.29814,3.26277 c 4.18147,3.17414 4.36291,3.28196 6.68444,3.97166 3.84984,1.14367 9.48968,2.19164 14.81592,2.753 0.52901,0.0555 3.66702,0.069 6.97336,0.0286 4.53302,-0.0547 6.78222,-0.19163 9.14509,-0.55689 z"
             id="path3099" />
          <path
             inkscape:connector-curvature="0"
             style="fill:none;stroke:#ff0000;stroke-width:0.24046101;stroke-opacity:1"
             d="m 533.74802,831.71383 c -1.36282,-0.22505 -2.42116,-1.63509 -2.59042,-3.45104 -0.11008,-1.18103 -0.655,-1.64299 -0.65715,-0.55714 -0.003,1.05664 -0.42096,2.29651 -1.03269,3.05665 l -0.55697,0.69223 -3.3247,-0.53182 c -1.82861,-0.29246 -3.46255,-0.58467 -3.63101,-0.6493 -0.80615,-0.30938 -1.19796,-3.27682 -0.58411,-4.42378 0.2485,-0.46431 0.10174,-0.67312 -1.52895,-2.17573 -4.30326,-3.96518 -7.27916,-9.42002 -8.50814,-15.59552 -0.562,-2.82404 -0.55038,-8.55955 0.0228,-11.25633 1.23047,-5.78895 3.58048,-10.37937 7.31428,-14.28748 2.31847,-2.42671 4.4401,-3.98765 7.2741,-5.35166 3.61613,-1.74037 5.44674,-2.13786 9.84686,-2.13786 3.078,0 4.06219,0.0911 5.65084,0.52331 7.28742,1.98217 13.62338,7.66172 16.83252,15.08853 4.78386,11.07118 2.33969,24.20009 -6.05618,32.53089 -2.11924,2.10286 -2.25672,2.29777 -2.03544,2.88556 0.65153,1.73086 0.45741,3.63408 -0.41846,4.10286 -0.24092,0.12894 -1.88741,0.44681 -3.65886,0.70628 l -3.22082,0.47181 -0.53405,-0.49705 c -0.58598,-0.54537 -0.97408,-1.53233 -1.1132,-2.83094 -0.0577,-0.53846 -0.232,-0.86964 -0.48388,-0.91938 -0.31414,-0.0623 -0.39371,0.12498 -0.39371,0.92552 0,1.152 -0.50279,2.3497 -1.30131,3.09992 -0.45467,0.42712 -0.91124,0.53543 -2.5714,0.61 -1.11023,0.0497 -2.34321,0.037 -2.73996,-0.0286 z"
             id="path3097" />
          <path
             inkscape:connector-curvature="0"
             style="fill:none;stroke:#ff0000;stroke-width:0.24046101;stroke-opacity:1"
             d="m 534.46001,817.23379 c 0.48574,-1.46239 1.16162,-2.15218 1.68404,-1.71858 0.19862,0.16479 0.54503,0.88311 0.76981,1.59612 0.43974,1.39506 0.64413,1.55943 1.03377,0.83143 0.58514,-1.09334 -0.11375,-5.55818 -1.14694,-7.32725 -0.91273,-1.5628 -2.03759,-0.51987 -2.9045,2.69299 -0.9544,3.53713 -0.45713,6.99911 0.56383,3.92529 z"
             id="path3095" />
          <path
             inkscape:connector-curvature="0"
             style="fill:none;stroke:#ff0000;stroke-width:0.24046101;stroke-opacity:1"
             d="m 522.69584,808.72381 c 0.22756,-1.65461 0.90445,-2.2753 3.69584,-3.38909 2.82209,-1.126 4.21648,-2.07273 4.83305,-3.28129 0.86363,-1.69282 0.63475,-2.49159 -1.29172,-4.50785 -1.86322,-1.9501 -5.25468,-2.57096 -7.72712,-1.4145 -1.49256,0.69812 -3.09618,2.41358 -3.90229,4.17432 -0.5551,1.21252 -0.60016,1.53671 -0.47726,3.43362 0.0747,1.15208 0.31135,2.51625 0.52603,3.03149 0.69865,1.67683 3.00274,3.63459 3.88095,3.29761 0.16121,-0.0614 0.36934,-0.66681 0.46252,-1.34431 z"
             id="path3093" />
          <path
             inkscape:connector-curvature="0"
             style="fill:none;stroke:#ff0000;stroke-width:0.24046101;stroke-opacity:1"
             d="m 551.79522,808.73181 c 1.59238,-1.59293 2.12538,-3.18004 1.98688,-5.91629 -0.1177,-2.32589 -0.60217,-3.34912 -2.46937,-5.21557 -1.61798,-1.61733 -2.59597,-2.03342 -4.77905,-2.03342 -2.08338,0 -3.76424,0.74702 -5.18934,2.30627 -1.50057,1.64191 -1.744,2.60598 -1.02941,4.07678 0.61659,1.26915 1.95501,2.22304 4.50631,3.21168 1.05142,0.40751 2.26986,0.96054 2.70764,1.22918 0.82203,0.50429 1.48841,1.71958 1.48841,2.71437 0,0.72084 0.17403,0.88942 0.91828,0.88942 0.40044,0 1.01413,-0.4166 1.85965,-1.26242 z"
             id="path3091" />
          <path
             inkscape:connector-curvature="0"
             style="fill:none;stroke:#ff0000;stroke-width:0.24046101;stroke-opacity:1"
             d="m 495.55701,773.48646 -4.52171,-4.52644 -1.36721,0.19348 c -2.3023,0.32571 -4.89445,-0.15006 -7.39436,-1.35718 -4.93809,-2.38446 -7.89547,-7.50375 -7.47615,-12.94141 0.0815,-1.05631 0.2083,-1.98074 0.28188,-2.05429 0.0736,-0.0732 1.99748,1.72766 4.27534,4.00271 l 4.14157,4.13653 4.86724,-4.8716 4.86723,-4.87159 -4.08366,-4.07838 c -3.15793,-3.15377 -4.00205,-4.12399 -3.72364,-4.27977 0.60846,-0.34052 4.70993,-0.21932 6.22421,0.18398 4.38737,1.16841 8.22581,5.00591 9.40311,9.4009 0.38054,1.42056 0.52701,5.63949 0.21342,6.1469 -0.0897,0.14518 1.672,2.09385 4.00322,4.42789 l 4.16347,4.1686 -2.18717,2.16227 c -2.15463,2.13021 -4.15886,4.58823 -5.95323,7.30117 -0.50297,0.76048 -0.9814,1.38268 -1.06317,1.38268 -0.0818,0 -2.18345,-2.03695 -4.67039,-4.52645 z"
             id="path3089" />
          <path
             inkscape:connector-curvature="0"
             style="fill:none;stroke:#ff0000;stroke-width:0.24046101;stroke-opacity:1"
             d="m 570.25328,776.38767 c -1.45083,-2.33631 -3.8048,-5.18425 -6.08465,-7.36142 l -1.9823,-1.89296 4.07307,-4.11852 4.07304,-4.11852 -0.18695,-1.44277 c -0.52301,-4.03613 1.21701,-8.67401 4.28972,-11.43383 2.49483,-2.24079 5.51748,-3.38219 8.96799,-3.38648 3.65915,-0.008 3.69474,-0.17009 -0.96403,4.48268 l -4.08615,4.08082 4.85471,4.85905 4.8547,4.85906 4.21465,-4.1234 4.21466,-4.1234 0.20819,0.94993 c 0.32019,1.46129 0.0338,4.84963 -0.55232,6.5342 -0.92235,2.651 -2.88782,5.2159 -5.24878,6.84972 -2.37385,1.64266 -6.07488,2.54563 -8.86246,2.16202 l -1.48703,-0.20459 -4.52211,4.52678 c -2.48714,2.48975 -4.57727,4.52595 -4.6447,4.52477 -0.0674,-8.4e-4 -0.57559,-0.73153 -1.12925,-1.62314 z"
             id="path3800" />
        </g>
      </g>
      <g
         id="text6275"
         style="font-size:32.28242493px;font-style:normal;font-weight:normal;line-height:125%;letter-spacing:0px;word-spacing:0px;fill:none;stroke:#ff0000;stroke-opacity:1;font-family:Sans"
         transform="matrix(0,1,-1,0,0,0)">
        <path
           id="path6282"
           style="font-variant:normal;font-stretch:normal;text-align:center;text-anchor:middle;fill:none;stroke:#ff0000;stroke-opacity:1;font-family:Courier New;-inkscape-font-specification:Courier New"
           d="m 522.01478,-326.0742 0,-0.44136 c -2e-5,-0.31524 0.0604,-0.54118 0.18127,-0.67781 0.12083,-0.13659 0.28109,-0.2049 0.48077,-0.20491 0.19965,10e-6 0.3599,0.0683 0.48077,0.20491 0.12083,0.13663 0.18125,0.36257 0.18127,0.67781 l 0,3.37326 c -2e-5,0.31527 -0.0604,0.54121 -0.18127,0.6778 -0.12087,0.13663 -0.28112,0.20493 -0.48077,0.20492 -0.18917,1e-5 -0.34417,-0.063 -0.46501,-0.18915 -0.12086,-0.12609 -0.18654,-0.33101 -0.19703,-0.61476 -0.0526,-0.8827 -0.50706,-1.6761 -1.36349,-2.38019 -0.85647,-0.70406 -1.97826,-1.0561 -3.36538,-1.05612 -1.46071,2e-5 -2.62191,0.3757 -3.48361,1.12705 -0.86171,0.75138 -1.29256,1.63673 -1.29255,2.65605 -1e-5,0.52544 0.12084,1.00358 0.36254,1.43442 0.2417,0.43087 0.56221,0.78028 0.96154,1.04823 0.39932,0.26798 0.85119,0.48341 1.35561,0.64628 0.5044,0.1629 1.29255,0.33366 2.36443,0.5123 1.79696,0.29425 3.03698,0.59374 3.72005,0.89848 0.91423,0.40985 1.60517,0.97731 2.07282,1.7024 0.46762,0.7251 0.70143,1.58155 0.70145,2.56935 -2e-5,1.51324 -0.60426,2.80317 -1.81273,3.86979 -1.20851,1.06663 -2.83734,1.59994 -4.8865,1.59994 -2.30139,0 -4.1404,-0.71984 -5.51702,-2.15952 l 0,0.75662 c 0,0.31526 -0.0604,0.54119 -0.18127,0.6778 -0.12086,0.13662 -0.28111,0.20492 -0.48077,0.20492 -0.18916,0 -0.34679,-0.0683 -0.47289,-0.20492 -0.1261,-0.13661 -0.18916,-0.36254 -0.18915,-0.6778 l 0,-3.65699 c -10e-6,-0.32577 0.0604,-0.55696 0.18127,-0.69357 0.12085,-0.13661 0.2811,-0.20491 0.48077,-0.20492 0.18915,10e-6 0.34415,0.0631 0.465,0.18915 0.12085,0.12611 0.18653,0.33103 0.19704,0.61476 0.0525,0.96679 0.57009,1.84689 1.55265,2.64028 0.98254,0.7934 2.304,1.1901 3.96437,1.1901 1.66034,0 2.97129,-0.41509 3.93284,-1.24527 0.96152,-0.83017 1.44229,-1.81273 1.44231,-2.94766 -2e-5,-0.69356 -0.18392,-1.31094 -0.5517,-1.85214 -0.36782,-0.54119 -0.91427,-0.96941 -1.63935,-1.28468 -0.50442,-0.22067 -1.55528,-0.46762 -3.15258,-0.74085 -2.1963,-0.36779 -3.77785,-0.93 -4.74463,-1.68663 -0.9668,-0.75661 -1.45019,-1.83374 -1.45019,-3.2314 0,-1.38712 0.55433,-2.57984 1.66299,-3.57818 1.10865,-0.9983 2.57197,-1.49745 4.38997,-1.49747 1.8495,2e-5 3.44155,0.58324 4.77616,1.74968 z"
           inkscape:connector-curvature="0" />
        <path
           id="path6284"
           style="font-variant:normal;font-stretch:normal;text-align:center;text-anchor:middle;fill:none;stroke:#ff0000;stroke-opacity:1;font-family:Courier New;-inkscape-font-specification:Courier New"
           d="m 540.99331,-315.11898 -8.70112,0 -1.78121,4.83921 2.53783,0 c 0.31525,0 0.54118,0.0604 0.6778,0.18127 0.13661,0.12085 0.20491,0.28111 0.20492,0.48077 -10e-6,0.18915 -0.0683,0.34678 -0.20492,0.47289 -0.13662,0.1261 -0.36255,0.18915 -0.6778,0.18915 l -4.94955,0 c -0.31526,0 -0.5412,-0.063 -0.67781,-0.18915 -0.13661,-0.12611 -0.20492,-0.28374 -0.20492,-0.47289 0,-0.19966 0.0683,-0.35992 0.20492,-0.48077 0.13661,-0.12085 0.36255,-0.18127 0.67781,-0.18127 l 1.02458,0 5.84804,-15.79443 -3.9092,0 c -0.31526,2e-5 -0.54119,-0.0604 -0.6778,-0.18127 -0.13662,-0.12084 -0.20492,-0.28109 -0.20492,-0.48077 0,-0.19965 0.0683,-0.3599 0.20492,-0.48077 0.13661,-0.12083 0.36254,-0.18126 0.6778,-0.18127 l 6.66771,0 6.46279,17.11851 1.02459,0 c 0.31524,0 0.54117,0.0604 0.6778,0.18127 0.1366,0.12085 0.2049,0.28111 0.20492,0.48077 -2e-5,0.18915 -0.0683,0.34678 -0.20492,0.47289 -0.13663,0.1261 -0.36256,0.18915 -0.6778,0.18915 l -4.93379,0 c -0.32578,0 -0.55697,-0.063 -0.69357,-0.18915 -0.13662,-0.12611 -0.20493,-0.28374 -0.20492,-0.47289 -10e-6,-0.19966 0.0683,-0.35992 0.20492,-0.48077 0.1366,-0.12085 0.36779,-0.18127 0.69357,-0.18127 l 2.52206,0 z m -0.50441,-1.32409 -3.657,-9.63113 -0.48865,0 -3.54665,9.63113 z"
           inkscape:connector-curvature="0" />
        <path
           id="path6286"
           style="font-variant:normal;font-stretch:normal;text-align:center;text-anchor:middle;fill:none;stroke:#ff0000;stroke-opacity:1;font-family:Courier New;-inkscape-font-specification:Courier New"
           d="m 550.34071,-310.27977 0,-15.79443 -1.78121,0 c -0.31526,2e-5 -0.54119,-0.0604 -0.6778,-0.18127 -0.13661,-0.12084 -0.20492,-0.28109 -0.20492,-0.48077 0,-0.19965 0.0683,-0.3599 0.20492,-0.48077 0.13661,-0.12083 0.36254,-0.18126 0.6778,-0.18127 l 8.32282,0 c 1.64983,10e-6 2.99231,0.47553 4.02742,1.42654 1.03508,0.95104 1.55263,2.06758 1.55264,3.34961 -1e-5,1.61834 -0.86697,2.92666 -2.60088,3.92497 1.37662,0.49391 2.38544,1.1507 3.02648,1.97036 0.64101,0.81968 0.96152,1.72342 0.96154,2.71122 -2e-5,0.88273 -0.21019,1.68926 -0.63052,2.41961 -0.42036,0.73035 -1.06401,1.35298 -1.93095,1.8679 -0.86698,0.51492 -1.81012,0.77238 -2.82944,0.77238 l -9.89911,0 c -0.31526,0 -0.54119,-0.063 -0.6778,-0.18915 -0.13661,-0.12611 -0.20492,-0.28374 -0.20492,-0.47289 0,-0.19966 0.0683,-0.35992 0.20492,-0.48077 0.13661,-0.12085 0.36254,-0.18127 0.6778,-0.18127 z m 1.32409,-8.92181 4.68158,0 c 0.9983,10e-6 1.91255,-0.18389 2.74274,-0.5517 0.64101,-0.29423 1.14017,-0.71982 1.49748,-1.27679 0.35728,-0.55695 0.53592,-1.12441 0.53594,-1.7024 -2e-5,-0.83016 -0.38884,-1.59466 -1.16646,-2.2935 -0.77765,-0.6988 -1.79173,-1.04821 -3.04224,-1.04823 l -5.24904,0 z m 0,8.92181 6.69923,0 c 0.85118,0 1.59204,-0.18916 2.22257,-0.56747 0.6305,-0.3783 1.10864,-0.84594 1.43442,-1.4029 0.32575,-0.55695 0.48864,-1.13492 0.48865,-1.73391 -10e-6,-0.67255 -0.23383,-1.32408 -0.70145,-1.9546 -0.46764,-0.63051 -1.11655,-1.10865 -1.94672,-1.43443 -0.83019,-0.32576 -1.97562,-0.48864 -3.43631,-0.48865 l -4.76039,0 z"
           inkscape:connector-curvature="0" />
        <path
           id="path6288"
           style="font-variant:normal;font-stretch:normal;text-align:center;text-anchor:middle;fill:none;stroke:#ff0000;stroke-opacity:1;font-family:Courier New;-inkscape-font-specification:Courier New"
           d="m 578.06766,-319.72175 c 1.21898,0.54646 2.14899,1.29519 2.79003,2.24621 0.64101,0.95104 0.96152,1.94147 0.96154,2.97131 -2e-5,1.5868 -0.64367,2.98707 -1.93096,4.20081 -1.28731,1.21375 -2.89775,1.82062 -4.83133,1.82062 -1.13493,0 -2.3119,-0.2417 -3.53089,-0.72509 -1.219,-0.4834 -2.07019,-0.9773 -2.55359,-1.48172 -0.15763,-0.16813 -0.23644,-0.34678 -0.23644,-0.53594 0,-0.16813 0.0604,-0.31525 0.18127,-0.44136 0.12085,-0.1261 0.26534,-0.18915 0.43348,-0.18915 0.16814,0 0.35729,0.0788 0.56747,0.23644 1.62883,1.20849 3.35223,1.81274 5.17023,1.81273 1.53424,1e-5 2.81892,-0.48076 3.85403,-1.4423 1.03508,-0.96153 1.55263,-2.03078 1.55265,-3.20775 -2e-5,-0.78814 -0.25485,-1.56052 -0.76451,-2.31715 -0.50968,-0.75661 -1.24265,-1.35297 -2.19892,-1.78909 -0.95629,-0.43609 -1.92308,-0.65415 -2.90037,-0.65416 -0.31527,10e-6 -0.54121,-0.0604 -0.67781,-0.18127 -0.13662,-0.12084 -0.20492,-0.2811 -0.20492,-0.48077 0,-0.18914 0.0657,-0.34677 0.19704,-0.47289 0.13135,-0.12609 0.32838,-0.18914 0.59111,-0.18915 l 1.13493,0.0158 c 1.18746,1e-5 2.16738,-0.36253 2.93978,-1.08764 0.77237,-0.72508 1.15856,-1.56577 1.15857,-2.52206 -10e-6,-0.9878 -0.40459,-1.86001 -1.21374,-2.61665 -0.80918,-0.7566 -1.86529,-1.13491 -3.16834,-1.13492 -0.91426,10e-6 -1.75495,0.15764 -2.52207,0.47288 -0.76713,0.31528 -1.38189,0.74613 -1.84426,1.29256 -0.16814,0.21019 -0.29687,0.33892 -0.38619,0.38619 -0.0893,0.0473 -0.19179,0.0709 -0.30738,0.0709 -0.17865,2e-5 -0.33102,-0.0604 -0.45712,-0.18127 -0.12611,-0.12083 -0.18916,-0.26532 -0.18916,-0.43348 0,-0.42032 0.45712,-0.95101 1.37138,-1.59205 1.27153,-0.89321 2.71646,-1.33983 4.3348,-1.33985 1.67085,2e-5 3.04222,0.50181 4.11411,1.50536 1.07187,1.00359 1.6078,2.19894 1.60782,3.58606 -2e-5,0.88274 -0.25748,1.71817 -0.77238,2.5063 -0.51494,0.78816 -1.27156,1.41867 -2.26986,1.89155 z"
           inkscape:connector-curvature="0" />
        <path
           id="path6290"
           style="font-variant:normal;font-stretch:normal;text-align:center;text-anchor:middle;fill:none;stroke:#ff0000;stroke-opacity:1;font-family:Courier New;-inkscape-font-specification:Courier New"
           d="m 595.35956,-326.0742 0,15.79443 3.43631,0 c 0.31525,0 0.54118,0.0604 0.67781,0.18127 0.1366,0.12085 0.2049,0.28111 0.20492,0.48077 -2e-5,0.18915 -0.0683,0.34678 -0.20492,0.47289 -0.13663,0.1261 -0.36256,0.18915 -0.67781,0.18915 l -8.21247,0 c -0.31526,0 -0.5412,-0.063 -0.6778,-0.18915 -0.13662,-0.12611 -0.20493,-0.28374 -0.20492,-0.47289 -1e-5,-0.19966 0.0683,-0.35992 0.20492,-0.48077 0.1366,-0.12085 0.36254,-0.18127 0.6778,-0.18127 l 3.43631,0 0,-15.79443 -5.42243,0 0,4.587 c -10e-6,0.32578 -0.0604,0.55697 -0.18128,0.69357 -0.12085,0.13663 -0.28111,0.20493 -0.48077,0.20492 -0.18915,10e-6 -0.34678,-0.0683 -0.47288,-0.20492 -0.12611,-0.1366 -0.18916,-0.36779 -0.18916,-0.69357 l 0,-5.91108 14.83289,0 0,5.91108 c -10e-6,0.32578 -0.0604,0.55697 -0.18127,0.69357 -0.12087,0.13663 -0.28112,0.20493 -0.48077,0.20492 -0.19968,10e-6 -0.35993,-0.0683 -0.48077,-0.20492 -0.12086,-0.1366 -0.18129,-0.36779 -0.18127,-0.69357 l 0,-4.587 z"
           inkscape:connector-curvature="0" />
        <path
           id="path6292"
           style="font-variant:normal;font-stretch:normal;text-align:center;text-anchor:middle;fill:none;stroke:#ff0000;stroke-opacity:1;font-family:Courier New;-inkscape-font-specification:Courier New"
           d="m 630.54236,-316.52188 0,6.24211 4.53972,0 c 0.31524,0 0.54118,0.0604 0.6778,0.18127 0.1366,0.12085 0.20491,0.28111 0.20492,0.48077 -10e-6,0.18915 -0.0683,0.34678 -0.20492,0.47289 -0.13662,0.1261 -0.36256,0.18915 -0.6778,0.18915 l -7.64501,0 c -0.31526,0 -0.5412,-0.063 -0.6778,-0.18915 -0.13662,-0.12611 -0.20493,-0.28374 -0.20492,-0.47289 -10e-6,-0.19966 0.0683,-0.35992 0.20492,-0.48077 0.1366,-0.12085 0.36254,-0.18127 0.6778,-0.18127 l 1.78121,0 0,-15.79443 -1.78121,0 c -0.31526,2e-5 -0.5412,-0.0604 -0.6778,-0.18127 -0.13662,-0.12084 -0.20493,-0.28109 -0.20492,-0.48077 -10e-6,-0.19965 0.0683,-0.3599 0.20492,-0.48077 0.1366,-0.12083 0.36254,-0.18126 0.6778,-0.18127 l 7.6923,0 c 1.81797,10e-6 3.30231,0.53595 4.45302,1.60781 1.15067,1.07189 1.72602,2.32767 1.72603,3.76734 -10e-6,0.8512 -0.18654,1.61833 -0.55958,2.30138 -0.37307,0.68307 -0.82231,1.21901 -1.34773,1.60781 -0.78816,0.5885 -1.60257,1.01935 -2.44325,1.29256 -0.60951,0.19967 -1.36613,0.29951 -2.26985,0.2995 z m 0,-1.32409 4.22446,0 c 0.97729,1e-5 1.89416,-0.21804 2.75063,-0.65416 0.85643,-0.43609 1.48169,-0.9694 1.87578,-1.59993 0.39406,-0.63051 0.59109,-1.27153 0.59111,-1.92307 -2e-5,-1.04034 -0.44663,-1.97561 -1.33985,-2.8058 -0.89324,-0.83016 -2.02291,-1.24525 -3.38902,-1.24527 l -4.71311,0 z"
           inkscape:connector-curvature="0" />
        <path
           id="path6294"
           style="font-variant:normal;font-stretch:normal;text-align:center;text-anchor:middle;fill:none;stroke:#ff0000;stroke-opacity:1;font-family:Courier New;-inkscape-font-specification:Courier New"
           d="m 651.19176,-322.60636 0,3.34173 c 1.7234,-1.55526 3.01333,-2.5562 3.86979,-3.00283 0.85644,-0.4466 1.64721,-0.66991 2.37232,-0.66992 0.78813,1e-5 1.52111,0.26535 2.19893,0.79602 0.67778,0.5307 1.01669,0.93265 1.0167,1.20587 -10e-6,0.19967 -0.0657,0.36518 -0.19703,0.49653 -0.13138,0.13137 -0.29689,0.19704 -0.49653,0.19703 -0.10511,1e-5 -0.19443,-0.0184 -0.26797,-0.0552 -0.0736,-0.0368 -0.21019,-0.15499 -0.40984,-0.35466 -0.36782,-0.36779 -0.68833,-0.62 -0.96154,-0.75662 -0.27323,-0.1366 -0.5412,-0.20491 -0.8039,-0.20492 -0.57799,1e-5 -1.27419,0.2312 -2.08859,0.69357 -0.81443,0.46239 -2.22521,1.59206 -4.23234,3.38902 l 0,7.25094 5.8638,0 c 0.32575,0 0.55694,0.0604 0.69357,0.18127 0.1366,0.12085 0.2049,0.28111 0.20492,0.48077 -2e-5,0.18915 -0.0683,0.34678 -0.20492,0.47289 -0.13663,0.1261 -0.36782,0.18915 -0.69357,0.18915 l -10.38775,0 c -0.31526,0 -0.5412,-0.0604 -0.67781,-0.18127 -0.13661,-0.12085 -0.20492,-0.27585 -0.20491,-0.46501 -10e-6,-0.17864 0.0657,-0.32839 0.19703,-0.44924 0.13136,-0.12085 0.35992,-0.18127 0.68569,-0.18127 l 3.19987,0 0,-11.03404 -2.44325,0 c -0.31526,2e-5 -0.5412,-0.063 -0.67781,-0.18915 -0.13661,-0.12609 -0.20492,-0.28897 -0.20491,-0.48865 -10e-6,-0.18914 0.0657,-0.34677 0.19703,-0.47289 0.13136,-0.12609 0.35992,-0.18914 0.68569,-0.18915 z"
           inkscape:connector-curvature="0" />
        <path
           id="path6296"
           style="font-variant:normal;font-stretch:normal;text-align:center;text-anchor:middle;fill:none;stroke:#ff0000;stroke-opacity:1;font-family:Courier New;-inkscape-font-specification:Courier New"
           d="m 679.53346,-315.7495 c -2e-5,2.01766 -0.72248,3.74107 -2.1674,5.17023 -1.44495,1.42917 -3.18675,2.14376 -5.2254,2.14376 -2.0597,0 -3.80938,-0.71721 -5.24905,-2.15164 -1.43968,-1.43442 -2.15952,-3.1552 -2.15952,-5.16235 0,-2.01764 0.71984,-3.74368 2.15952,-5.17811 1.43967,-1.43441 3.18935,-2.15163 5.24905,-2.15164 2.03865,10e-6 3.78045,0.7146 5.2254,2.14376 1.44492,1.42918 2.16738,3.15784 2.1674,5.18599 z m -1.33985,0 c -1e-5,-1.66035 -0.59112,-3.07376 -1.77332,-4.24022 -1.18224,-1.16644 -2.61403,-1.74967 -4.2954,-1.74968 -1.68138,10e-6 -3.11318,0.58586 -4.29539,1.75756 -1.18222,1.17172 -1.77333,2.5825 -1.77332,4.23234 -1e-5,1.63935 0.5911,3.0475 1.77332,4.22446 1.18221,1.17696 2.61401,1.76544 4.29539,1.76544 1.68137,0 3.11316,-0.58585 4.2954,-1.75756 1.1822,-1.17171 1.77331,-2.58248 1.77332,-4.23234 z"
           inkscape:connector-curvature="0" />
        <path
           id="path6298"
           style="font-variant:normal;font-stretch:normal;text-align:center;text-anchor:middle;fill:none;stroke:#ff0000;stroke-opacity:1;font-family:Courier New;-inkscape-font-specification:Courier New"
           d="m 688.77052,-322.60636 7.18788,0 c 0.31524,10e-6 0.54118,0.0631 0.67781,0.18915 0.13659,0.12612 0.2049,0.289 0.20491,0.48865 -1e-5,0.18917 -0.0683,0.3468 -0.20491,0.47289 -0.13663,0.12612 -0.36257,0.18917 -0.67781,0.18915 l -7.18788,0 0,8.81147 c -1e-5,0.76713 0.30737,1.40815 0.92213,1.92307 0.61474,0.51492 1.51585,0.77238 2.70333,0.77238 0.89322,0 1.86001,-0.13398 2.90038,-0.40195 1.04034,-0.26797 1.8495,-0.57009 2.42749,-0.90637 0.21015,-0.13661 0.38354,-0.20491 0.52017,-0.20492 0.16812,10e-6 0.31524,0.0657 0.44136,0.19704 0.12609,0.13136 0.18914,0.28636 0.18916,0.46501 -2e-5,0.15763 -0.0683,0.30475 -0.20492,0.44136 -0.33629,0.34678 -1.15333,0.72246 -2.45113,1.12705 -1.29783,0.40458 -2.54047,0.60687 -3.72793,0.60687 -1.54477,0 -2.77428,-0.36255 -3.68852,-1.08764 -0.91425,-0.7251 -1.37138,-1.70239 -1.37137,-2.9319 l 0,-8.81147 -2.44325,0 c -0.31526,2e-5 -0.5412,-0.063 -0.6778,-0.18915 -0.13662,-0.12609 -0.20492,-0.28897 -0.20492,-0.48865 0,-0.18914 0.0683,-0.34677 0.20492,-0.47289 0.1366,-0.12609 0.36254,-0.18914 0.6778,-0.18915 l 2.44325,0 0,-3.9092 c -10e-6,-0.31524 0.0631,-0.54118 0.18916,-0.67781 0.12609,-0.13659 0.28372,-0.2049 0.47288,-0.20491 0.19966,10e-6 0.36254,0.0683 0.48865,0.20491 0.1261,0.13663 0.18915,0.36257 0.18916,0.67781 z"
           inkscape:connector-curvature="0" />
        <path
           id="path6300"
           style="font-variant:normal;font-stretch:normal;text-align:center;text-anchor:middle;fill:none;stroke:#ff0000;stroke-opacity:1;font-family:Courier New;-inkscape-font-specification:Courier New"
           d="m 718.24714,-315.7495 c -10e-6,2.01766 -0.72248,3.74107 -2.1674,5.17023 -1.44494,1.42917 -3.18674,2.14376 -5.2254,2.14376 -2.05969,0 -3.80937,-0.71721 -5.24905,-2.15164 -1.43968,-1.43442 -2.15952,-3.1552 -2.15951,-5.16235 -10e-6,-2.01764 0.71983,-3.74368 2.15951,-5.17811 1.43968,-1.43441 3.18936,-2.15163 5.24905,-2.15164 2.03866,10e-6 3.78046,0.7146 5.2254,2.14376 1.44492,1.42918 2.16739,3.15784 2.1674,5.18599 z m -1.33984,0 c -2e-5,-1.66035 -0.59113,-3.07376 -1.77333,-4.24022 -1.18223,-1.16644 -2.61403,-1.74967 -4.29539,-1.74968 -1.68139,10e-6 -3.11318,0.58586 -4.29539,1.75756 -1.18222,1.17172 -1.77333,2.5825 -1.77333,4.23234 0,1.63935 0.59111,3.0475 1.77333,4.22446 1.18221,1.17696 2.614,1.76544 4.29539,1.76544 1.68136,0 3.11316,-0.58585 4.29539,-1.75756 1.1822,-1.17171 1.77331,-2.58248 1.77333,-4.23234 z"
           inkscape:connector-curvature="0" />
        <path
           id="path6302"
           style="font-variant:normal;font-stretch:normal;text-align:center;text-anchor:middle;fill:none;stroke:#ff0000;stroke-opacity:1;font-family:Courier New;-inkscape-font-specification:Courier New"
           d="m 732.6702,-314.48847 -8.77994,0 0,-1.529 7.36127,-12.72066 2.75851,0 0,12.92558 1.10341,0 c 0.32575,10e-6 0.55694,0.0604 0.69356,0.18127 0.1366,0.12086 0.20491,0.28111 0.20492,0.48077 -10e-6,0.18916 -0.0683,0.34679 -0.20492,0.47289 -0.13662,0.12611 -0.36781,0.18916 -0.69356,0.18915 l -1.10341,0 0,4.2087 1.10341,0 c 0.32575,0 0.55694,0.0604 0.69356,0.18127 0.1366,0.12085 0.20491,0.28111 0.20492,0.48077 -10e-6,0.18915 -0.0683,0.34678 -0.20492,0.47289 -0.13662,0.1261 -0.36781,0.18915 -0.69356,0.18915 l -4.91803,0 c -0.32578,0 -0.55696,-0.063 -0.69357,-0.18915 -0.13662,-0.12611 -0.20492,-0.28374 -0.20492,-0.47289 0,-0.19966 0.0683,-0.35992 0.20492,-0.48077 0.13661,-0.12085 0.36779,-0.18127 0.69357,-0.18127 l 2.47478,0 z m 0,-1.32408 0,-11.58573 -0.69357,0 -6.69924,11.58573 z"
           inkscape:connector-curvature="0" />
        <path
           id="path6304"
           style="font-variant:normal;font-stretch:normal;text-align:center;text-anchor:middle;fill:none;stroke:#ff0000;stroke-opacity:1;font-family:Courier New;-inkscape-font-specification:Courier New"
           d="m 521.84138,-268.60266 -1.63934,0.0158 -2.91613,-8.51197 -2.90038,8.51197 -1.63934,-0.0158 -2.74275,-12.31082 -0.64627,0 c -0.31526,10e-6 -0.5412,-0.063 -0.67781,-0.18916 -0.13661,-0.12609 -0.20492,-0.28897 -0.20492,-0.48865 0,-0.18914 0.0683,-0.34677 0.20492,-0.47289 0.13661,-0.12609 0.36255,-0.18914 0.67781,-0.18915 l 3.64123,0 c 0.31525,1e-5 0.54118,0.0631 0.6778,0.18915 0.13661,0.12612 0.20491,0.289 0.20492,0.48865 -10e-6,0.18917 -0.0683,0.3468 -0.20492,0.47289 -0.13662,0.12612 -0.36255,0.18917 -0.6778,0.18916 l -1.68663,0 2.34867,10.49809 2.82156,-8.38587 1.57629,0 2.90037,8.38587 2.2541,-10.49809 -1.67087,0 c -0.31527,10e-6 -0.54383,-0.063 -0.68569,-0.18916 -0.14188,-0.12609 -0.21281,-0.28897 -0.2128,-0.48865 -1e-5,-0.18914 0.0683,-0.34677 0.20492,-0.47289 0.1366,-0.12609 0.36779,-0.18914 0.69357,-0.18915 l 3.62547,0 c 0.32575,1e-5 0.55693,0.0631 0.69356,0.18915 0.1366,0.12612 0.2049,0.289 0.20492,0.48865 -2e-5,0.18917 -0.0683,0.3468 -0.20492,0.47289 -0.13663,0.12612 -0.36781,0.18917 -0.69356,0.18916 l -0.63052,0 z"
           inkscape:connector-curvature="0" />
        <path
           id="path6306"
           style="font-variant:normal;font-stretch:normal;text-align:center;text-anchor:middle;fill:none;stroke:#ff0000;stroke-opacity:1;font-family:Courier New;-inkscape-font-specification:Courier New"
           d="m 537.28903,-289.04714 0,3.42055 -1.9546,0 0,-3.42055 z m 0.0473,6.79381 0,12.32659 5.20176,0 c 0.32575,0 0.55693,0.0604 0.69356,0.18127 0.1366,0.12085 0.2049,0.28111 0.20492,0.48077 -2e-5,0.18916 -0.0683,0.34678 -0.20492,0.47289 -0.13663,0.1261 -0.36781,0.18915 -0.69356,0.18915 l -11.7276,0 c -0.31527,0 -0.5412,-0.063 -0.67781,-0.18915 -0.13661,-0.12611 -0.20492,-0.28373 -0.20492,-0.47289 0,-0.19966 0.0683,-0.35992 0.20492,-0.48077 0.13661,-0.12085 0.36254,-0.18127 0.67781,-0.18127 l 5.20175,0 0,-10.98674 -3.86191,0 c -0.31526,10e-6 -0.54382,-0.063 -0.68568,-0.18916 -0.14187,-0.12609 -0.21281,-0.28372 -0.2128,-0.47289 -10e-6,-0.19965 0.0683,-0.36253 0.20491,-0.48865 0.13661,-0.12609 0.3678,-0.18914 0.69357,-0.18915 z"
           inkscape:connector-curvature="0" />
        <path
           id="path6308"
           style="font-variant:normal;font-stretch:normal;text-align:center;text-anchor:middle;fill:none;stroke:#ff0000;stroke-opacity:1;font-family:Courier New;-inkscape-font-specification:Courier New"
           d="m 556.66164,-288.3851 0,18.45836 5.20175,0 c 0.32575,0 0.55694,0.0604 0.69357,0.18127 0.1366,0.12085 0.2049,0.28111 0.20492,0.48077 -2e-5,0.18916 -0.0683,0.34678 -0.20492,0.47289 -0.13663,0.1261 -0.36782,0.18915 -0.69357,0.18915 l -11.7276,0 c -0.31526,0 -0.54119,-0.063 -0.6778,-0.18915 -0.13662,-0.12611 -0.20492,-0.28373 -0.20492,-0.47289 0,-0.19966 0.0683,-0.35992 0.20492,-0.48077 0.13661,-0.12085 0.36254,-0.18127 0.6778,-0.18127 l 5.20176,0 0,-17.11851 -3.81462,0 c -0.31526,1e-5 -0.54383,-0.063 -0.68569,-0.18916 -0.14187,-0.12608 -0.2128,-0.28897 -0.2128,-0.48865 0,-0.18913 0.0683,-0.34676 0.20492,-0.47289 0.13661,-0.12608 0.3678,-0.18913 0.69357,-0.18915 z"
           inkscape:connector-curvature="0" />
        <path
           id="path6310"
           style="font-variant:normal;font-stretch:normal;text-align:center;text-anchor:middle;fill:none;stroke:#ff0000;stroke-opacity:1;font-family:Courier New;-inkscape-font-specification:Courier New"
           d="m 581.83499,-288.3851 0,18.45836 1.76545,0 c 0.32575,0 0.55693,0.0604 0.69357,0.18127 0.13659,0.12085 0.20489,0.28111 0.20491,0.48077 -2e-5,0.18916 -0.0683,0.34678 -0.20491,0.47289 -0.13664,0.1261 -0.36782,0.18915 -0.69357,0.18915 l -3.10529,0 0,-2.6324 c -1.53427,2.10172 -3.48362,3.15258 -5.84804,3.15258 -1.19799,0 -2.34605,-0.31789 -3.4442,-0.95366 -1.09815,-0.63577 -1.96511,-1.54213 -2.60087,-2.7191 -0.63578,-1.17696 -0.95366,-2.3907 -0.95366,-3.64123 0,-1.26102 0.31788,-2.47739 0.95366,-3.64911 0.63576,-1.1717 1.50272,-2.07806 2.60087,-2.7191 1.09815,-0.64101 2.25146,-0.96152 3.45996,-0.96154 2.31188,2e-5 4.25597,1.05088 5.83228,3.15258 l 0,-7.47161 -1.76545,0 c -0.32578,1e-5 -0.55697,-0.063 -0.69357,-0.18916 -0.13662,-0.12608 -0.20493,-0.28897 -0.20492,-0.48865 -1e-5,-0.18913 0.0683,-0.34676 0.20492,-0.47289 0.1366,-0.12608 0.36779,-0.18913 0.69357,-0.18915 z m -1.33984,12.98863 c -2e-5,-1.68137 -0.56748,-3.10003 -1.7024,-4.25598 -1.13494,-1.15594 -2.48529,-1.73391 -4.05106,-1.73392 -1.5763,10e-6 -2.93191,0.57798 -4.06683,1.73392 -1.13494,1.15595 -1.7024,2.57461 -1.7024,4.25598 0,1.67087 0.56746,3.08691 1.7024,4.2481 1.13492,1.16121 2.49053,1.74181 4.06683,1.7418 1.56577,10e-6 2.91612,-0.58059 4.05106,-1.7418 1.13492,-1.16119 1.70238,-2.57723 1.7024,-4.2481 z"
           inkscape:connector-curvature="0" />
        <path
           id="path6312"
           style="font-variant:normal;font-stretch:normal;text-align:center;text-anchor:middle;fill:none;stroke:#ff0000;stroke-opacity:1;font-family:Courier New;-inkscape-font-specification:Courier New"
           d="m 600.2303,-280.91348 0,-0.44137 c -2e-5,-0.32575 0.063,-0.55694 0.18915,-0.69356 0.12609,-0.1366 0.28372,-0.20491 0.47289,-0.20492 0.19965,1e-5 0.36253,0.0683 0.48865,0.20492 0.12609,0.13662 0.18914,0.36781 0.18915,0.69356 l 0,2.99496 c -0.0105,0.32577 -0.0762,0.55696 -0.19703,0.69356 -0.12087,0.13662 -0.28112,0.20493 -0.48077,0.20492 -0.17866,10e-6 -0.32841,-0.0604 -0.44924,-0.18127 -0.12087,-0.12084 -0.1918,-0.32313 -0.2128,-0.60687 -0.0631,-0.7461 -0.55435,-1.45543 -1.47383,-2.128 -0.91952,-0.67253 -2.15691,-1.00881 -3.71217,-1.00882 -1.96511,10e-6 -3.45733,0.61476 -4.47666,1.84426 -1.01934,1.22951 -1.52901,2.63767 -1.529,4.22446 -10e-6,1.7129 0.5622,3.12631 1.68663,4.24022 1.12441,1.11391 2.57985,1.67087 4.36632,1.67086 1.02983,10e-6 2.07806,-0.18915 3.1447,-0.56746 1.06661,-0.37831 2.03077,-0.98781 2.89249,-1.8285 0.22067,-0.21017 0.41508,-0.31525 0.58323,-0.31525 0.17863,0 0.32838,0.0604 0.44924,0.18127 0.12083,0.12085 0.18126,0.2706 0.18128,0.44924 -2e-5,0.45187 -0.5307,1.02459 -1.59206,1.71816 -1.71291,1.12442 -3.62022,1.68663 -5.72193,1.68663 -2.13325,0 -3.88556,-0.68043 -5.25693,-2.0413 -1.37137,-1.36086 -2.05706,-3.08689 -2.05706,-5.17811 0,-2.13324 0.70145,-3.90394 2.10435,-5.3121 1.40289,-1.40814 3.17096,-2.11221 5.30422,-2.11223 2.02814,2e-5 3.73054,0.60426 5.10718,1.81274 z"
           inkscape:connector-curvature="0" />
        <path
           id="path6314"
           style="font-variant:normal;font-stretch:normal;text-align:center;text-anchor:middle;fill:none;stroke:#ff0000;stroke-opacity:1;font-family:Courier New;-inkscape-font-specification:Courier New"
           d="m 614.7164,-289.04714 0,3.42055 -1.9546,0 0,-3.42055 z m 0.0473,6.79381 0,12.32659 5.20176,0 c 0.32575,0 0.55694,0.0604 0.69357,0.18127 0.13659,0.12085 0.2049,0.28111 0.20491,0.48077 -10e-6,0.18916 -0.0683,0.34678 -0.20491,0.47289 -0.13663,0.1261 -0.36782,0.18915 -0.69357,0.18915 l -11.7276,0 c -0.31526,0 -0.5412,-0.063 -0.67781,-0.18915 -0.13661,-0.12611 -0.20492,-0.28373 -0.20491,-0.47289 -10e-6,-0.19966 0.0683,-0.35992 0.20491,-0.48077 0.13661,-0.12085 0.36255,-0.18127 0.67781,-0.18127 l 5.20176,0 0,-10.98674 -3.86191,0 c -0.31527,10e-6 -0.54383,-0.063 -0.68569,-0.18916 -0.14187,-0.12609 -0.2128,-0.28372 -0.2128,-0.47289 0,-0.19965 0.0683,-0.36253 0.20492,-0.48865 0.13661,-0.12609 0.36779,-0.18914 0.69357,-0.18915 z"
           inkscape:connector-curvature="0" />
        <path
           id="path6316"
           style="font-variant:normal;font-stretch:normal;text-align:center;text-anchor:middle;fill:none;stroke:#ff0000;stroke-opacity:1;font-family:Courier New;-inkscape-font-specification:Courier New"
           d="m 631.83492,-282.25333 0,3.34173 c 1.7234,-1.55526 3.01333,-2.5562 3.86979,-3.00283 0.85644,-0.4466 1.64721,-0.66991 2.37232,-0.66992 0.78813,10e-6 1.5211,0.26535 2.19892,0.79602 0.67779,0.5307 1.01669,0.93266 1.01671,1.20587 -2e-5,0.19967 -0.0657,0.36518 -0.19703,0.49653 -0.13138,0.13137 -0.29689,0.19705 -0.49654,0.19703 -0.1051,2e-5 -0.19442,-0.0184 -0.26797,-0.0552 -0.0736,-0.0368 -0.21018,-0.15499 -0.40983,-0.35466 -0.36782,-0.36779 -0.68833,-0.62 -0.96154,-0.75662 -0.27324,-0.1366 -0.54121,-0.20491 -0.80391,-0.20492 -0.57798,10e-6 -1.27418,0.2312 -2.08858,0.69357 -0.81443,0.46239 -2.22521,1.59206 -4.23234,3.38902 l 0,7.25094 5.8638,0 c 0.32575,0 0.55694,0.0604 0.69357,0.18127 0.13659,0.12085 0.2049,0.28111 0.20492,0.48077 -2e-5,0.18916 -0.0683,0.34678 -0.20492,0.47289 -0.13663,0.1261 -0.36782,0.18915 -0.69357,0.18915 l -10.38775,0 c -0.31526,0 -0.5412,-0.0604 -0.67781,-0.18127 -0.13661,-0.12085 -0.20492,-0.27585 -0.20492,-0.46501 0,-0.17864 0.0657,-0.32839 0.19704,-0.44924 0.13135,-0.12085 0.35992,-0.18127 0.68569,-0.18127 l 3.19987,0 0,-11.03403 -2.44325,0 c -0.31527,10e-6 -0.5412,-0.063 -0.67781,-0.18916 -0.13661,-0.12609 -0.20492,-0.28897 -0.20492,-0.48865 0,-0.18914 0.0657,-0.34677 0.19704,-0.47289 0.13135,-0.12609 0.35992,-0.18914 0.68569,-0.18915 z"
           inkscape:connector-curvature="0" />
        <path
           id="path6318"
           style="font-variant:normal;font-stretch:normal;text-align:center;text-anchor:middle;fill:none;stroke:#ff0000;stroke-opacity:1;font-family:Courier New;-inkscape-font-specification:Courier New"
           d="m 658.30083,-280.91348 0,-0.44137 c -10e-6,-0.32575 0.063,-0.55694 0.18916,-0.69356 0.12608,-0.1366 0.28371,-0.20491 0.47288,-0.20492 0.19965,1e-5 0.36253,0.0683 0.48865,0.20492 0.12609,0.13662 0.18914,0.36781 0.18916,0.69356 l 0,2.99496 c -0.0105,0.32577 -0.0762,0.55696 -0.19704,0.69356 -0.12086,0.13662 -0.28112,0.20493 -0.48077,0.20492 -0.17866,10e-6 -0.32841,-0.0604 -0.44924,-0.18127 -0.12086,-0.12084 -0.1918,-0.32313 -0.2128,-0.60687 -0.0631,-0.7461 -0.55434,-1.45543 -1.47383,-2.128 -0.91952,-0.67253 -2.1569,-1.00881 -3.71216,-1.00882 -1.96512,10e-6 -3.45734,0.61476 -4.47667,1.84426 -1.01934,1.22951 -1.529,2.63767 -1.529,4.22446 0,1.7129 0.56221,3.12631 1.68663,4.24022 1.12441,1.11391 2.57985,1.67087 4.36632,1.67086 1.02984,10e-6 2.07807,-0.18915 3.1447,-0.56746 1.06661,-0.37831 2.03078,-0.98781 2.8925,-1.8285 0.22066,-0.21017 0.41507,-0.31525 0.58322,-0.31525 0.17863,0 0.32838,0.0604 0.44925,0.18127 0.12083,0.12085 0.18125,0.2706 0.18127,0.44924 -2e-5,0.45187 -0.5307,1.02459 -1.59205,1.71816 -1.71292,1.12442 -3.62023,1.68663 -5.72194,1.68663 -2.13325,0 -3.88556,-0.68043 -5.25692,-2.0413 -1.37138,-1.36086 -2.05707,-3.08689 -2.05706,-5.17811 -10e-6,-2.13324 0.70144,-3.90394 2.10434,-5.3121 1.4029,-1.40814 3.17097,-2.11221 5.30422,-2.11223 2.02815,2e-5 3.73054,0.60426 5.10718,1.81274 z"
           inkscape:connector-curvature="0" />
        <path
           id="path6320"
           style="font-variant:normal;font-stretch:normal;text-align:center;text-anchor:middle;fill:none;stroke:#ff0000;stroke-opacity:1;font-family:Courier New;-inkscape-font-specification:Courier New"
           d="m 676.66461,-268.60266 0,-1.93883 c -1.80749,1.63934 -3.76209,2.45901 -5.8638,2.45901 -1.29256,0 -2.27512,-0.35204 -2.94766,-1.05612 -0.87222,-0.92475 -1.30833,-2.00188 -1.30832,-3.23139 l 0,-8.54349 -1.78121,0 c -0.31526,10e-6 -0.5412,-0.063 -0.67781,-0.18916 -0.13661,-0.12609 -0.20492,-0.28897 -0.20491,-0.48865 -10e-6,-0.18914 0.0683,-0.34677 0.20491,-0.47289 0.13661,-0.12609 0.36255,-0.18914 0.67781,-0.18915 l 3.10529,0 0,9.88334 c 0,0.86171 0.27322,1.57104 0.81967,2.12799 0.54644,0.55696 1.2295,0.83544 2.04918,0.83543 2.15425,10e-6 4.12987,-0.9878 5.92685,-2.96342 l 0,-8.54349 -2.44325,0 c -0.31527,10e-6 -0.5412,-0.063 -0.6778,-0.18916 -0.13663,-0.12609 -0.20493,-0.28897 -0.20492,-0.48865 -1e-5,-0.18914 0.0683,-0.34677 0.20492,-0.47289 0.1366,-0.12609 0.36253,-0.18914 0.6778,-0.18915 l 3.76733,0 0,12.32659 1.11917,0 c 0.31524,0 0.54118,0.0604 0.6778,0.18127 0.1366,0.12085 0.20491,0.28111 0.20492,0.48077 -10e-6,0.18916 -0.0683,0.34678 -0.20492,0.47289 -0.13662,0.1261 -0.36256,0.18915 -0.6778,0.18915 z"
           inkscape:connector-curvature="0" />
        <path
           id="path6322"
           style="font-variant:normal;font-stretch:normal;text-align:center;text-anchor:middle;fill:none;stroke:#ff0000;stroke-opacity:1;font-family:Courier New;-inkscape-font-specification:Courier New"
           d="m 692.14378,-289.04714 0,3.42055 -1.9546,0 0,-3.42055 z m 0.0473,6.79381 0,12.32659 5.20175,0 c 0.32576,0 0.55694,0.0604 0.69357,0.18127 0.1366,0.12085 0.2049,0.28111 0.20492,0.48077 -2e-5,0.18916 -0.0683,0.34678 -0.20492,0.47289 -0.13663,0.1261 -0.36781,0.18915 -0.69357,0.18915 l -11.72759,0 c -0.31527,0 -0.5412,-0.063 -0.67781,-0.18915 -0.13661,-0.12611 -0.20492,-0.28373 -0.20492,-0.47289 0,-0.19966 0.0683,-0.35992 0.20492,-0.48077 0.13661,-0.12085 0.36254,-0.18127 0.67781,-0.18127 l 5.20175,0 0,-10.98674 -3.86191,0 c -0.31526,10e-6 -0.54382,-0.063 -0.68568,-0.18916 -0.14187,-0.12609 -0.21281,-0.28372 -0.2128,-0.47289 -10e-6,-0.19965 0.0683,-0.36253 0.20491,-0.48865 0.13661,-0.12609 0.3678,-0.18914 0.69357,-0.18915 z"
           inkscape:connector-curvature="0" />
        <path
           id="path6324"
           style="font-variant:normal;font-stretch:normal;text-align:center;text-anchor:middle;fill:none;stroke:#ff0000;stroke-opacity:1;font-family:Courier New;-inkscape-font-specification:Courier New"
           d="m 708.12736,-282.25333 7.18788,0 c 0.31525,1e-5 0.54118,0.0631 0.67781,0.18915 0.13659,0.12612 0.2049,0.289 0.20492,0.48865 -2e-5,0.18917 -0.0683,0.3468 -0.20492,0.47289 -0.13663,0.12612 -0.36256,0.18917 -0.67781,0.18916 l -7.18788,0 0,8.81146 c -10e-6,0.76713 0.30737,1.40815 0.92213,1.92307 0.61474,0.51492 1.51586,0.77239 2.70334,0.77238 0.89322,10e-6 1.86001,-0.13398 2.90037,-0.40195 1.04034,-0.26797 1.8495,-0.57009 2.42749,-0.90637 0.21015,-0.13661 0.38355,-0.20491 0.52017,-0.20491 0.16812,0 0.31524,0.0657 0.44136,0.19703 0.12609,0.13136 0.18914,0.28636 0.18916,0.46501 -2e-5,0.15763 -0.0683,0.30475 -0.20492,0.44136 -0.33629,0.34678 -1.15333,0.72247 -2.45113,1.12705 -1.29782,0.40458 -2.54047,0.60687 -3.72793,0.60687 -1.54477,0 -2.77427,-0.36255 -3.68852,-1.08764 -0.91425,-0.72509 -1.37137,-1.70239 -1.37137,-2.9319 l 0,-8.81146 -2.44325,0 c -0.31526,10e-6 -0.54119,-0.063 -0.6778,-0.18916 -0.13662,-0.12609 -0.20492,-0.28897 -0.20492,-0.48865 0,-0.18914 0.0683,-0.34677 0.20492,-0.47289 0.13661,-0.12609 0.36254,-0.18914 0.6778,-0.18915 l 2.44325,0 0,-3.9092 c 0,-0.31524 0.063,-0.54118 0.18916,-0.67781 0.12609,-0.13659 0.28372,-0.2049 0.47288,-0.20491 0.19966,1e-5 0.36254,0.0683 0.48865,0.20491 0.1261,0.13663 0.18915,0.36257 0.18916,0.67781 z"
           inkscape:connector-curvature="0" />
        <path
           id="path6326"
           style="font-variant:normal;font-stretch:normal;text-align:center;text-anchor:middle;fill:none;stroke:#ff0000;stroke-opacity:1;font-family:Courier New;-inkscape-font-specification:Courier New"
           d="m 734.57751,-281.38637 c -2e-5,-0.30474 0.063,-0.52542 0.18915,-0.66204 0.12609,-0.1366 0.28372,-0.20491 0.47289,-0.20492 0.19965,1e-5 0.36253,0.0683 0.48865,0.20492 0.12609,0.13662 0.18914,0.36781 0.18915,0.69356 l 0,2.26986 c -1e-5,0.31527 -0.0631,0.54121 -0.18915,0.67781 -0.12612,0.13662 -0.289,0.20492 -0.48865,0.20491 -0.17866,10e-6 -0.32841,-0.0578 -0.44924,-0.17339 -0.12087,-0.11558 -0.1918,-0.30474 -0.2128,-0.56746 -0.0631,-0.63051 -0.38883,-1.15068 -0.9773,-1.56053 -0.86172,-0.58847 -2.0019,-0.88271 -3.42055,-0.88272 -1.48172,10e-6 -2.63241,0.29951 -3.45208,0.89848 -0.62001,0.45189 -0.93001,0.9563 -0.93001,1.51324 0,0.63053 0.3678,1.15596 1.1034,1.57629 0.50441,0.29425 1.46069,0.52019 2.86885,0.67781 1.839,0.19967 3.11579,0.4256 3.83039,0.6778 1.01932,0.36781 1.77856,0.87748 2.27774,1.529 0.49914,0.65154 0.74872,1.35562 0.74873,2.11223 -10e-6,1.12443 -0.5412,2.12537 -1.62357,3.00284 -1.0824,0.87746 -2.6692,1.3162 -4.7604,1.3162 -2.09122,0 -3.80412,-0.53069 -5.13871,-1.59205 0,0.35729 -0.021,0.58848 -0.0631,0.69356 -0.042,0.10509 -0.11823,0.19441 -0.22856,0.26797 -0.11035,0.0736 -0.23382,0.11034 -0.37043,0.11034 -0.18916,0 -0.34679,-0.0683 -0.47289,-0.20492 -0.1261,-0.13661 -0.18915,-0.36254 -0.18915,-0.6778 l 0,-2.72698 c 0,-0.31526 0.0604,-0.54119 0.18127,-0.67781 0.12085,-0.1366 0.2811,-0.20491 0.48077,-0.20491 0.18915,0 0.34941,0.0657 0.48077,0.19703 0.13135,0.13136 0.19703,0.30738 0.19704,0.52806 -10e-6,0.4834 0.12084,0.88798 0.36254,1.21374 0.3678,0.50442 0.95365,0.92213 1.75757,1.25315 0.8039,0.33103 1.78908,0.49654 2.95554,0.49653 1.7234,10e-6 3.00545,-0.32051 3.84615,-0.96153 0.84067,-0.64102 1.26102,-1.31883 1.26103,-2.03342 -10e-6,-0.81966 -0.42561,-1.47645 -1.27679,-1.97036 -0.86172,-0.4939 -2.11487,-0.82492 -3.75946,-0.99306 -1.6446,-0.16813 -2.82419,-0.38881 -3.53877,-0.66204 -0.71459,-0.27322 -1.27154,-0.68306 -1.67087,-1.22951 -0.39933,-0.54644 -0.59899,-1.13492 -0.59899,-1.76545 0,-1.13491 0.55696,-2.03603 1.67087,-2.70333 1.11391,-0.66729 2.44324,-1.00093 3.98802,-1.00095 1.82848,2e-5 3.31545,0.44663 4.4609,1.33985 z"
           inkscape:connector-curvature="0" />
      </g>
    </g>
    <g
       transform="matrix(0,1,-1,0,1064.7126,903.63636)"
       id="g7137">
      <path
         inkscape:connector-curvature="0"
         style="fill:none;stroke:#0000ff;stroke-opacity:1"
         d="m 538.125,532.36218 a 5.625,5.625 0 1 0 -11.25,0 5.625,5.625 0 0 0 11.25,0 z"
         id="path6518" />
      <path
         inkscape:connector-curvature="0"
         style="fill:none;stroke:#0000ff;stroke-opacity:1"
         d="m 317.625,578.71218 a 5.625,5.625 0 1 0 -11.25,0 5.625,5.625 0 0 0 11.25,0 z"
         id="path6520" />
      <path
         inkscape:connector-curvature="0"
         style="fill:none;stroke:#0000ff;stroke-opacity:1"
         d="m 317.625,486.01218 a 5.625,5.625 0 1 0 -11.25,0 5.625,5.625 0 0 0 11.25,0 z"
         id="path6522" />
      <path
         inkscape:connector-curvature="0"
         style="fill:none;stroke:#0000ff;stroke-opacity:1"
         d="m 349.125,563.86218 a 5.625,5.625 0 1 0 -11.25,0 5.625,5.625 0 0 0 11.25,0 z"
         id="path6524" />
      <path
         inkscape:connector-curvature="0"
         style="fill:none;stroke:#0000ff;stroke-opacity:1"
         d="m 349.125,500.86218 a 5.625,5.625 0 1 0 -11.25,0 5.625,5.625 0 0 0 11.25,0 z"
         id="path6526" />
      <path
         inkscape:connector-curvature="0"
         style="fill:none;stroke:#0000ff;stroke-opacity:1"
         d="m 412.125,563.86218 a 5.625,5.625 0 1 0 -11.25,0 5.625,5.625 0 0 0 11.25,0 z"
         id="path6528" />
      <path
         inkscape:connector-curvature="0"
         style="fill:none;stroke:#0000ff;stroke-opacity:1"
         d="m 412.125,500.86218 a 5.625,5.625 0 1 0 -11.25,0 5.625,5.625 0 0 0 11.25,0 z"
         id="path6530" />
      <path
         inkscape:connector-curvature="0"
         style="fill:none;stroke:#000000;stroke-opacity:1"
         d="m 105,344.03718 a 33.75,33.75 0 1 0 -33.75,33.75"
         id="path6532" />
      <path
         inkscape:connector-curvature="0"
         style="fill:none;stroke:#000000;stroke-opacity:1"
         d="m 71.25,686.93718 a 33.75,33.75 0 1 0 33.75,33.75"
         id="path6534" />
      <path
         inkscape:connector-curvature="0"
         style="fill:none;stroke:#000000;stroke-opacity:1"
         d="m 645,720.68718 a 33.75,33.75 0 1 0 33.75,-33.75"
         id="path6536" />
      <path
         inkscape:connector-curvature="0"
         style="fill:none;stroke:#000000;stroke-opacity:1"
         d="M 678.75,377.78718 A 33.75,33.75 0 1 0 645,344.03718"
         id="path6538" />
      <path
         inkscape:connector-curvature="0"
         style="fill:none;stroke:#0000ff;stroke-opacity:1"
         d="m 155.625,486.01218 a 5.625,5.625 0 1 0 -11.25,0 5.625,5.625 0 0 0 11.25,0 z"
         id="path6540" />
      <path
         inkscape:connector-curvature="0"
         style="fill:none;stroke:#0000ff;stroke-opacity:1"
         d="m 155.625,578.71218 a 5.625,5.625 0 1 0 -11.25,0 5.625,5.625 0 0 0 11.25,0 z"
         id="path6542" />
      <path
         inkscape:connector-curvature="0"
         style="fill:none;stroke:#000000;stroke-opacity:1"
         d="m 678.75,377.78718 c -61.875,51.525 -123.75,103.05 -123.75,154.575 0,51.525 61.875,103.05 123.75,154.575"
         id="path6544" />
      <path
         inkscape:connector-curvature="0"
         style="fill:none;stroke:#000000;stroke-opacity:1"
         d="m 645,720.68718 c -90,-55.0125 -180,-110.025 -270,-110.025 -90,0 -180,55.0125 -270,110.025"
         id="path6546" />
      <path
         inkscape:connector-curvature="0"
         style="fill:none;stroke:#000000;stroke-opacity:1"
         d="m 71.25,686.93718 c 28.125,-51.525 56.25,-103.05 56.25,-154.575 0,-51.525 -28.125,-103.05 -56.25,-154.575"
         id="path6548" />
      <path
         inkscape:connector-curvature="0"
         style="fill:none;stroke:#000000;stroke-opacity:1"
         d="m 105,344.03718 c 90,55.0125 180,110.025 270,110.025 90,0 180,-55.0125 270,-110.025"
         id="path6550" />
    </g>
  </g>
</svg>
